<svg width="633" height="635" viewBox="0 0 633 635" fill="none" xmlns="http://www.w3.org/2000/svg">
<g id="Northscape Foundry Logos">
<rect x="0.5" y="-2161.5" width="632" height="3245" rx="4.5" stroke="#8A38F5" stroke-dasharray="10 5"/>
<g id="Property 1=Favicon">
<g id="Favicon">
<g id="Outer Ring">
<mask id="path-2-outside-1_0_1" maskUnits="userSpaceOnUse" x="53.2524" y="59.9746" width="526" height="532" fill="black">
<rect fill="white" x="53.2524" y="59.9746" width="526" height="532"/>
<path d="M574.217 325.93C574.217 182.122 458.831 65.5428 316.495 65.5428C174.16 65.5428 58.7739 182.122 58.7739 325.93C58.7739 469.738 174.16 586.318 316.495 586.318C458.831 586.318 574.217 469.738 574.217 325.93ZM578.738 325.93C578.738 472.261 461.328 590.886 316.495 590.886C171.663 590.886 54.2524 472.261 54.2524 325.93C54.2524 179.6 171.663 60.9746 316.495 60.9746C461.328 60.9746 578.738 179.6 578.738 325.93Z"/>
</mask>
<path d="M574.217 325.93C574.217 182.122 458.831 65.5428 316.495 65.5428C174.16 65.5428 58.7739 182.122 58.7739 325.93C58.7739 469.738 174.16 586.318 316.495 586.318C458.831 586.318 574.217 469.738 574.217 325.93ZM578.738 325.93C578.738 472.261 461.328 590.886 316.495 590.886C171.663 590.886 54.2524 472.261 54.2524 325.93C54.2524 179.6 171.663 60.9746 316.495 60.9746C461.328 60.9746 578.738 179.6 578.738 325.93Z" fill="#8BA57D"/>
<path d="M574.217 325.93C574.217 182.122 458.831 65.5428 316.495 65.5428C174.16 65.5428 58.7739 182.122 58.7739 325.93C58.7739 469.738 174.16 586.318 316.495 586.318C458.831 586.318 574.217 469.738 574.217 325.93ZM578.738 325.93C578.738 472.261 461.328 590.886 316.495 590.886C171.663 590.886 54.2524 472.261 54.2524 325.93C54.2524 179.6 171.663 60.9746 316.495 60.9746C461.328 60.9746 578.738 179.6 578.738 325.93Z" stroke="#8BA57D" mask="url(#path-2-outside-1_0_1)"/>
</g>
<g id="Maker&#39;s Mark">
<g id="Vector">
<path d="M316.501 408.797C366.443 408.797 406.929 367.892 406.929 317.433C406.929 266.974 366.443 226.069 316.501 226.069C266.558 226.069 226.072 266.974 226.072 317.433C226.072 367.892 266.558 408.797 316.501 408.797Z" fill="url(#paint0_linear_0_1)"/>
<path d="M406.929 317.433C406.929 266.974 366.443 226.069 316.501 226.069C266.558 226.069 226.072 266.974 226.072 317.433L226.188 322.13C228.53 368.849 265.608 406.305 311.848 408.672L316.501 408.797C364.883 408.797 404.394 370.405 406.815 322.13L406.929 317.433ZM416.12 317.432C416.12 372.889 371.594 417.995 316.497 417.995C261.401 417.994 216.883 372.888 216.882 317.432C216.882 261.976 261.4 216.871 316.497 216.87C371.594 216.87 416.12 261.975 416.12 317.432Z" fill="#8BA57D"/>
<path d="M316.501 408.797C366.443 408.797 406.929 367.892 406.929 317.433M316.501 408.797C266.558 408.797 226.072 367.892 226.072 317.433M316.501 408.797L311.848 408.672C265.608 406.305 228.53 368.849 226.188 322.13L226.072 317.433M316.501 408.797C364.883 408.797 404.394 370.405 406.815 322.13L406.929 317.433M406.929 317.433C406.929 266.974 366.443 226.069 316.501 226.069C266.558 226.069 226.072 266.974 226.072 317.433M416.12 317.432C416.12 372.889 371.594 417.995 316.497 417.995C261.401 417.994 216.883 372.888 216.882 317.432C216.882 261.976 261.4 216.871 316.497 216.87C371.594 216.87 416.12 261.975 416.12 317.432Z" stroke="#2B2622" stroke-opacity="0.75"/>
</g>
<g id="Vector_2" filter="url(#filter0_d_0_1)">
<path d="M320.968 272.668C320.986 272.686 320.873 273.14 320.718 273.679C320.312 275.077 320.207 277.999 320.517 279.204C321.036 281.217 321.792 282.13 326.089 285.945C330.365 289.738 331.893 291.442 333.341 294.024C334.957 296.907 335.491 298.935 335.488 302.176C335.485 304.609 335.313 305.623 334.54 307.759C332.77 312.646 328.583 316.585 323.507 318.143C321.485 318.763 319.842 318.982 317.182 318.988C314.656 318.996 313.387 318.825 311.349 318.201C305.467 316.402 300.584 311.807 299.052 306.63C298.605 305.114 298.605 302.004 299.054 300.481C299.687 298.332 301.419 295.792 302.912 294.819L303.299 294.566L303.242 295.776C303.15 297.699 303.812 299.33 305.266 300.769C306.278 301.767 307.251 302.253 308.419 302.339C309.605 302.427 310.167 302.316 310.945 301.845C311.412 301.562 311.673 301.276 311.892 300.813C312.615 299.273 312.063 297.309 310.128 294.545C308.451 292.151 307.902 290.613 307.899 288.285C307.892 284.44 309.62 281.051 313.339 277.608C315.411 275.689 317.531 274.227 319.726 273.203C320.387 272.893 320.944 272.654 320.968 272.668Z" fill="url(#paint1_linear_0_1)"/>
</g>
<g id="Vector_3">
<path fill-rule="evenodd" clip-rule="evenodd" d="M292.106 307.078L288.579 307.165L288.58 304.002H292.106V307.078Z" fill="#8BA57D"/>
<path d="M346.781 293.031H342.027V288.533H346.781V293.031Z" fill="#8BA57D"/>
<path fill-rule="evenodd" clip-rule="evenodd" d="M294.7 285.44H291.5V282.347H294.797L294.7 285.44Z" fill="#8BA57D"/>
<path d="M354.465 284.036H351.092V280.803H354.465V284.036Z" fill="#8BA57D"/>
<path fill-rule="evenodd" clip-rule="evenodd" d="M282.43 281.506H279.057V278.413H282.43V281.506Z" fill="#8BA57D"/>
<path fill-rule="evenodd" clip-rule="evenodd" d="M340.792 279.123H337.419V276.03H340.792V279.123Z" fill="#8BA57D"/>
<path d="M335.116 264.776H331.435V261.403H335.116V264.776Z" fill="#8BA57D"/>
<path fill-rule="evenodd" clip-rule="evenodd" d="M302.246 263.514H298.414V260H302.246V263.514Z" fill="#8BA57D"/>
</g>
<g id="Vector_4" opacity="0.9" filter="url(#filter1_d_0_1)">
<path d="M344.324 304.517H340.644V301.074H344.324V304.517Z" fill="#B06F4D"/>
<path d="M355.535 298.169L352.162 298.182V294.963H355.535V298.169Z" fill="#B06F4D"/>
<path d="M287.658 292.292H283.512V288.427H287.658V292.292ZM291.652 270.366H287.043V266.008H291.652V270.366Z" fill="#B06F4D"/>
<path fill-rule="evenodd" clip-rule="evenodd" d="M350.751 269.664H346.15V265.447H350.751V269.664Z" fill="#B06F4D"/>
</g>
<path id="Vector_5" fill-rule="evenodd" clip-rule="evenodd" d="M368.745 322.681L369.122 323.025C369.497 323.369 369.5 323.38 369.5 326.264C369.5 329.489 369.426 329.792 368.546 330.166C368.269 330.285 367.108 330.488 365.967 330.617C360.82 331.202 355.943 332.536 351.49 334.578C341.457 339.175 335.065 345.884 335.038 351.846C335.03 353.595 335.244 354.439 336.129 356.131C336.735 357.289 337.02 357.641 338.302 358.811C340.635 360.936 344.302 363.003 348.151 364.362C351.036 365.381 350.916 365.185 350.916 368.853C350.916 371.768 350.816 372.25 350.154 372.575C349.96 372.667 347.341 372.719 342.789 372.719H335.718L334.293 372.023C332.682 371.238 331.412 370.89 328.644 370.482C325.576 370.029 323.585 369.875 319.896 369.852L318.201 369.85C310.26 369.872 305.516 370.566 302.651 372.128L301.697 372.649L287.16 372.727L286.255 371.897V365.811L286.677 365.424C286.916 365.205 287.763 364.803 288.634 364.493C293.083 362.919 297.474 360.324 299.685 357.961C301.079 356.47 302.227 353.709 302.227 351.846C302.227 349.443 300.796 346.726 298.8 345.339C296.955 344.057 295.484 343.548 292.034 342.998C284.726 341.835 279.213 339.92 273.89 336.694C269.98 334.327 267.269 331.934 265.043 328.892C263.997 327.464 263.807 326.973 264.167 326.643C264.315 326.515 267.275 326.475 276.532 326.475C283.23 326.475 288.711 326.427 288.71 326.369C288.71 326.309 288.634 326.017 288.544 325.719C288.413 325.288 288.422 325.146 288.583 325.047C288.698 324.978 290.16 324.936 291.833 324.951C295.213 324.985 295.065 325.026 295.234 324.002C295.288 323.672 295.471 323.239 295.643 323.04L295.952 322.681H368.745Z" fill="url(#paint2_linear_0_1)"/>
<g id="Vector_6" filter="url(#filter2_f_0_1)">
<mask id="path-9-inside-2_0_1" fill="white">
<path d="M295.151 368.611H293.667L296.142 368.079L304.053 361.874L307.021 361.142L304.053 362.5L296.635 369.29L295.151 368.611Z"/>
<path d="M298.121 327.866V336.692C299.606 332.619 304.057 330.583 304.057 330.583L306.283 329.904L310.733 329.224L330.022 327.187H298.863C298.271 327.187 298.121 327.641 298.121 327.866Z"/>
<path d="M340.4 369.292L332.24 362.502L336.691 365.217L341.884 367.934H346.335L342.626 368.613L340.4 369.292Z"/>
</mask>
<path d="M295.151 368.611H293.667L296.142 368.079L304.053 361.874L307.021 361.142L304.053 362.5L296.635 369.29L295.151 368.611Z" fill="#8BA57D"/>
<path d="M298.121 327.866V336.692C299.606 332.619 304.057 330.583 304.057 330.583L306.283 329.904L310.733 329.224L330.022 327.187H298.863C298.271 327.187 298.121 327.641 298.121 327.866Z" fill="#8BA57D"/>
<path d="M340.4 369.292L332.24 362.502L336.691 365.217L341.884 367.934H346.335L342.626 368.613L340.4 369.292Z" fill="#8BA57D"/>
<path d="M295.151 368.611H293.667L296.142 368.079L304.053 361.874L307.021 361.142L304.053 362.5L296.635 369.29L295.151 368.611Z" stroke="#8BA57D" stroke-width="0.4" mask="url(#path-9-inside-2_0_1)"/>
<path d="M298.121 327.866V336.692C299.606 332.619 304.057 330.583 304.057 330.583L306.283 329.904L310.733 329.224L330.022 327.187H298.863C298.271 327.187 298.121 327.641 298.121 327.866Z" stroke="#8BA57D" stroke-width="0.4" mask="url(#path-9-inside-2_0_1)"/>
<path d="M340.4 369.292L332.24 362.502L336.691 365.217L341.884 367.934H346.335L342.626 368.613L340.4 369.292Z" stroke="#8BA57D" stroke-width="0.4" mask="url(#path-9-inside-2_0_1)"/>
</g>
</g>
<path id="Vector_7" opacity="0.75" d="M495.095 144.615L404.667 213.138L427.274 235.979L495.095 144.615ZM495.095 505.503L404.667 436.98L427.274 414.139L495.095 505.503ZM137.902 505.503L228.331 436.98L205.724 414.139L137.902 505.503ZM137.902 144.615L228.331 213.138L205.724 235.979L137.902 144.615Z" fill="#8BA57D"/>
<g id="Vector_8">
<mask id="path-11-inside-3_0_1" fill="white">
<path d="M316.5 634.872L282.589 452.144L316.5 470.417L350.41 452.144L316.5 634.872Z"/>
</mask>
<path d="M316.5 634.872L282.589 452.144L316.5 470.417L350.41 452.144L316.5 634.872Z" fill="#8BA57D" stroke="#BBC6B0" stroke-opacity="0.75" stroke-width="0.4" mask="url(#path-11-inside-3_0_1)"/>
</g>
<g id="Vector_9">
<mask id="path-12-inside-4_0_1" fill="white">
<path d="M633 323.565L452.143 357.827L470.229 323.565L452.143 289.304L633 323.565ZM0 323.565L180.857 289.304L162.771 323.565L180.857 357.827L0 323.565Z"/>
</mask>
<path d="M633 323.565L452.143 357.827L470.229 323.565L452.143 289.304L633 323.565ZM0 323.565L180.857 289.304L162.771 323.565L180.857 357.827L0 323.565Z" fill="#B06F4D" stroke="#E8E5E0" stroke-opacity="0.5" stroke-width="0.4" mask="url(#path-12-inside-4_0_1)"/>
</g>
<g id="North Pointer">
<mask id="path-13-inside-5_0_1" fill="white">
<path d="M316.5 0L350.41 182.728L316.5 164.455L282.589 182.728L316.5 0Z"/>
</mask>
<path d="M316.5 0L350.41 182.728L316.5 164.455L282.589 182.728L316.5 0Z" fill="#1C3B2A" stroke="#BBC6B0" stroke-opacity="0.5" stroke-width="0.4" mask="url(#path-13-inside-5_0_1)"/>
</g>
</g>
</g>
</g>
<defs>
<filter id="filter0_d_0_1" x="292.717" y="266.667" width="48.7705" height="58.3208" filterUnits="userSpaceOnUse" color-interpolation-filters="sRGB">
<feFlood flood-opacity="0" result="BackgroundImageFix"/>
<feColorMatrix in="SourceAlpha" type="matrix" values="0 0 0 0 0 0 0 0 0 0 0 0 0 0 0 0 0 0 127 0" result="hardAlpha"/>
<feOffset/>
<feGaussianBlur stdDeviation="3"/>
<feComposite in2="hardAlpha" operator="out"/>
<feColorMatrix type="matrix" values="0 0 0 0 1 0 0 0 0 0.834135 0 0 0 0 0.557692 0 0 0 1 0"/>
<feBlend mode="normal" in2="BackgroundImageFix" result="effect1_dropShadow_0_1"/>
<feBlend mode="normal" in="SourceGraphic" in2="effect1_dropShadow_0_1" result="shape"/>
</filter>
<filter id="filter1_d_0_1" x="281.512" y="263.447" width="76.0234" height="43.0693" filterUnits="userSpaceOnUse" color-interpolation-filters="sRGB">
<feFlood flood-opacity="0" result="BackgroundImageFix"/>
<feColorMatrix in="SourceAlpha" type="matrix" values="0 0 0 0 0 0 0 0 0 0 0 0 0 0 0 0 0 0 127 0" result="hardAlpha"/>
<feOffset/>
<feGaussianBlur stdDeviation="1"/>
<feComposite in2="hardAlpha" operator="out"/>
<feColorMatrix type="matrix" values="0 0 0 0 1 0 0 0 0 0.834135 0 0 0 0 0.557692 0 0 0 1 0"/>
<feBlend mode="normal" in2="BackgroundImageFix" result="effect1_dropShadow_0_1"/>
<feBlend mode="normal" in="SourceGraphic" in2="effect1_dropShadow_0_1" result="shape"/>
</filter>
<filter id="filter2_f_0_1" x="293.567" y="327.087" width="52.8675" height="42.305" filterUnits="userSpaceOnUse" color-interpolation-filters="sRGB">
<feFlood flood-opacity="0" result="BackgroundImageFix"/>
<feBlend mode="normal" in="SourceGraphic" in2="BackgroundImageFix" result="shape"/>
<feGaussianBlur stdDeviation="0.05" result="effect1_foregroundBlur_0_1"/>
</filter>
<linearGradient id="paint0_linear_0_1" x1="316.501" y1="216.87" x2="316.501" y2="417.995" gradientUnits="userSpaceOnUse">
<stop stop-color="#8BA57D"/>
<stop offset="1" stop-color="#1C3B2A"/>
</linearGradient>
<linearGradient id="paint1_linear_0_1" x1="317.102" y1="272.672" x2="317.102" y2="318.993" gradientUnits="userSpaceOnUse">
<stop offset="0.600962" stop-color="#B06F4D"/>
<stop offset="1" stop-color="#4A2F20"/>
</linearGradient>
<linearGradient id="paint2_linear_0_1" x1="316.75" y1="322.681" x2="316.75" y2="372.727" gradientUnits="userSpaceOnUse">
<stop stop-color="#8BA57D"/>
<stop offset="0.043" stop-color="#1C3B2A"/>
</linearGradient>
</defs>
</svg>
