<svg width="436" height="92" viewBox="0 0 436 92" fill="none" xmlns="http://www.w3.org/2000/svg">
<g id="North-Mark-source">
<g id="Vector">
<path d="M80.9737 70.2856H99.0618V77.5089H80.9737V70.2856ZM81.6197 91.6778H72.8986V52.7827H101.377V60.0061H81.6197V91.6778Z" fill="url(#paint0_linear_0_1)"/>
<path d="M130.34 91.6778C127.361 91.6778 124.598 91.1944 122.05 90.2274C119.538 89.2603 117.348 87.8993 115.482 86.1444C113.652 84.3892 112.188 82.2894 111.175 79.9663C110.171 77.6025 109.668 75.0239 109.668 72.2303C109.668 69.4367 110.171 66.858 111.175 64.4942C112.194 62.1613 113.678 60.0593 115.536 58.3161C117.402 56.5612 119.591 55.2002 122.104 54.2332C124.616 53.2662 127.344 52.7827 130.286 52.7827C133.265 52.7827 135.993 53.2662 138.469 54.2332C140.981 55.2002 143.153 56.5612 144.983 58.3161C146.841 60.0593 148.325 62.1613 149.344 64.4942C150.384 66.8222 150.905 69.4009 150.905 72.2303C150.905 75.0239 150.384 77.6204 149.344 80.02C148.325 82.353 146.841 84.4549 144.983 86.1981C143.153 87.9173 140.981 89.2603 138.469 90.2274C135.993 91.1944 133.283 91.6778 130.34 91.6778ZM130.286 84.2641C131.973 84.2641 133.516 83.9776 134.916 83.4046C136.352 82.8315 137.608 82.0078 138.684 80.9333C139.768 79.8485 140.611 78.5492 141.161 77.1191C141.771 75.6506 142.076 74.0211 142.076 72.2303C142.076 70.4395 141.771 68.81 141.161 67.3415C140.611 65.9114 139.768 64.612 138.684 63.5272C137.637 62.4484 136.371 61.6058 134.97 61.056C133.534 60.4829 131.973 60.1964 130.286 60.1964C128.6 60.1964 127.038 60.4829 125.603 61.056C124.212 61.6234 122.948 62.4638 121.888 63.5272C120.8 64.6189 119.94 65.9155 119.358 67.3415C118.784 68.81 118.497 70.4395 118.497 72.2303C118.497 73.9852 118.784 75.6148 119.358 77.1191C119.968 78.5875 120.794 79.8589 121.835 80.9333C122.911 82.0078 124.167 82.8315 125.603 83.4046C127.038 83.9776 128.6 84.2641 130.286 84.2641Z" fill="url(#paint1_linear_0_1)"/>
<path d="M176.262 91.6778C170.914 91.6778 166.733 90.1664 163.718 87.1437C160.704 84.1209 159.196 79.8053 159.196 74.1969V52.7827H167.917V73.8691C167.917 77.511 168.653 80.1331 170.124 81.7355C171.596 83.338 173.66 84.1392 176.315 84.1392C178.971 84.1392 181.035 83.338 182.506 81.7355C183.978 80.1331 184.713 77.511 184.713 73.8691V52.7827H193.327V74.1969C193.327 79.8053 191.819 84.1209 188.805 87.1437C185.79 90.1664 181.609 91.6778 176.262 91.6778Z" fill="url(#paint2_linear_0_1)"/>
<path d="M201.618 91.6778V52.7827H208.832L231.065 80.7872H227.566V52.7827H236.18V91.6778H229.02L206.733 63.6734H210.232V91.6778H201.618Z" fill="url(#paint3_linear_0_1)"/>
<path d="M244.471 91.6778V52.7827H261.59C265.682 52.7827 269.288 53.5977 272.411 55.2276C275.533 56.8204 277.974 59.0615 279.732 61.9509C281.491 64.8402 282.37 68.2667 282.37 72.2303C282.37 76.1569 281.491 79.5833 279.732 82.5097C277.974 85.3991 275.533 87.6587 272.411 89.2886C269.288 90.8815 265.682 91.6778 261.59 91.6778H244.471ZM253.192 84.2877H261.159C263.672 84.2877 265.843 83.8062 267.673 82.8431C269.54 81.8429 270.975 80.4353 271.98 78.6202C273.021 76.8051 273.541 74.6752 273.541 72.2303C273.541 69.7484 273.021 67.6185 271.98 65.8404C270.975 64.0253 269.54 62.6362 267.673 61.673C265.843 60.6729 263.672 60.1728 261.159 60.1728H253.192V84.2877Z" fill="url(#paint4_linear_0_1)"/>
<path d="M290.662 91.6778V52.7827H306.973C310.347 52.7827 313.254 53.3569 315.694 54.5052C318.135 55.6165 320.019 57.2279 321.347 59.3393C322.675 61.4508 323.339 63.9697 323.339 66.8961C323.339 69.7854 322.675 72.2859 321.347 74.3973C320.019 76.4717 318.135 78.0646 315.694 79.1759C313.254 80.2872 310.347 80.8427 306.973 80.8427H295.507L299.383 76.8977V91.6778H290.662ZM314.618 91.6778L305.197 77.5645H314.51L324.038 91.6778H314.618ZM299.383 77.8979L295.507 73.675H306.489C309.18 73.675 311.19 73.0823 312.518 71.8969C313.846 70.6745 314.51 69.0075 314.51 66.8961C314.51 64.7476 313.846 63.0806 312.518 61.8953C311.19 60.7099 309.18 60.1172 306.489 60.1172H295.507L299.383 55.8388V77.8979Z" fill="url(#paint5_linear_0_1)"/>
<path d="M340.381 91.6778V75.7864L342.373 81.2317L325.792 52.7827H335.052L347.757 74.6196H342.427L355.186 52.7827H363.745L347.164 81.2317L349.102 75.7864V91.6778H340.381Z" fill="url(#paint6_linear_0_1)"/>
</g>
<g id="Group 1">
<g id="Compass">
<g id="Outer Ring">
<mask id="path-2-outside-1_0_1" maskUnits="userSpaceOnUse" x="52.5963" y="3.57744" width="42" height="42" fill="black">
<rect fill="white" x="52.5963" y="3.57744" width="42" height="42"/>
<path d="M92.9584 24.468C92.9584 13.6722 84.2235 4.92038 73.4485 4.92038C62.6735 4.92038 53.9386 13.6722 53.9386 24.468C53.9386 35.2639 62.6735 44.0156 73.4485 44.0156C84.2235 44.0156 92.9584 35.2639 92.9584 24.468ZM93.3006 24.468C93.3006 35.4533 84.4125 44.3586 73.4485 44.3586C62.4844 44.3586 53.5963 35.4533 53.5963 24.468C53.5963 13.4828 62.4844 4.57744 73.4485 4.57744C84.4125 4.57744 93.3006 13.4828 93.3006 24.468Z"/>
</mask>
<path d="M92.9584 24.468C92.9584 13.6722 84.2235 4.92038 73.4485 4.92038C62.6735 4.92038 53.9386 13.6722 53.9386 24.468C53.9386 35.2639 62.6735 44.0156 73.4485 44.0156C84.2235 44.0156 92.9584 35.2639 92.9584 24.468ZM93.3006 24.468C93.3006 35.4533 84.4125 44.3586 73.4485 44.3586C62.4844 44.3586 53.5963 35.4533 53.5963 24.468C53.5963 13.4828 62.4844 4.57744 73.4485 4.57744C84.4125 4.57744 93.3006 13.4828 93.3006 24.468Z" fill="#8BA57D"/>
<path d="M92.9584 24.468C92.9584 13.6722 84.2235 4.92038 73.4485 4.92038C62.6735 4.92038 53.9386 13.6722 53.9386 24.468C53.9386 35.2639 62.6735 44.0156 73.4485 44.0156C84.2235 44.0156 92.9584 35.2639 92.9584 24.468ZM93.3006 24.468C93.3006 35.4533 84.4125 44.3586 73.4485 44.3586C62.4844 44.3586 53.5963 35.4533 53.5963 24.468C53.5963 13.4828 62.4844 4.57744 73.4485 4.57744C84.4125 4.57744 93.3006 13.4828 93.3006 24.468Z" stroke="#8BA57D" mask="url(#path-2-outside-1_0_1)"/>
</g>
<g id="Vector_2">
<path d="M73.4488 30.6889C77.2295 30.6889 80.2944 27.6181 80.2944 23.8301C80.2944 20.0421 77.2295 16.9713 73.4488 16.9713C69.6681 16.9713 66.6033 20.0421 66.6033 23.8301C66.6033 27.6181 69.6681 30.6889 73.4488 30.6889Z" fill="url(#paint7_linear_0_1)"/>
<path d="M80.2944 23.8301C80.2944 20.0421 77.2295 16.9713 73.4488 16.9713C69.6681 16.9713 66.6033 20.0421 66.6033 23.8301L66.612 24.1827C66.7894 27.69 69.5962 30.5018 73.0967 30.6795L73.4488 30.6889C77.1115 30.6889 80.1025 27.8068 80.2858 24.1827L80.2944 23.8301ZM80.9902 23.8301C80.9901 27.9933 77.6195 31.3795 73.4486 31.3795C69.2777 31.3793 65.9076 27.9932 65.9076 23.8301C65.9076 19.6669 69.2777 16.2808 73.4486 16.2807C77.6195 16.2807 80.9902 19.6668 80.9902 23.8301Z" fill="#1C3B2A"/>
</g>
<g id="Vector_3" filter="url(#filter0_d_0_1)">
<path d="M73.7688 20.4696C73.7702 20.4709 73.7616 20.505 73.7499 20.5455C73.7192 20.6504 73.7112 20.8698 73.7347 20.9602C73.7739 21.1113 73.8312 21.1799 74.1565 21.4663C74.4802 21.751 74.5959 21.8789 74.7055 22.0728C74.8278 22.2892 74.8682 22.4415 74.868 22.6847C74.8677 22.8674 74.8547 22.9435 74.7962 23.1039C74.6623 23.4707 74.3453 23.7665 73.961 23.8834C73.8079 23.9299 73.6836 23.9464 73.4822 23.9469C73.291 23.9474 73.1949 23.9346 73.0407 23.8878C72.5953 23.7528 72.2257 23.4078 72.1098 23.0191C72.0759 22.9054 72.0759 22.6718 72.1099 22.5575C72.1578 22.3962 72.2889 22.2055 72.402 22.1325L72.4313 22.1135L72.4269 22.2043C72.42 22.3486 72.4701 22.4711 72.5802 22.5791C72.6567 22.6541 72.7304 22.6906 72.8189 22.697C72.9086 22.7036 72.9512 22.6952 73.0101 22.6599C73.0454 22.6387 73.0652 22.6172 73.0817 22.5824C73.1365 22.4668 73.0947 22.3194 72.9482 22.1119C72.8213 21.9322 72.7797 21.8167 72.7795 21.642C72.7789 21.3533 72.9098 21.0989 73.1913 20.8404C73.3481 20.6964 73.5087 20.5866 73.6748 20.5097C73.7249 20.4865 73.767 20.4685 73.7688 20.4696Z" fill="url(#paint8_linear_0_1)"/>
</g>
<g id="Vector_4">
<path fill-rule="evenodd" clip-rule="evenodd" d="M71.5839 23.0526L71.317 23.0592L71.3171 22.8217H71.5839V23.0526Z" fill="#8BA57D"/>
<path d="M75.723 21.9981H75.363V21.6604H75.723V21.9981Z" fill="#8BA57D"/>
<path fill-rule="evenodd" clip-rule="evenodd" d="M71.7804 21.4282H71.5381V21.196H71.7877L71.7804 21.4282Z" fill="#8BA57D"/>
<path d="M76.3046 21.3228H76.0493V21.0801H76.3046V21.3228Z" fill="#8BA57D"/>
<path fill-rule="evenodd" clip-rule="evenodd" d="M70.8515 21.1329H70.5962V20.9007H70.8515V21.1329Z" fill="#8BA57D"/>
<path fill-rule="evenodd" clip-rule="evenodd" d="M75.2696 20.954H75.0142V20.7218H75.2696V20.954Z" fill="#8BA57D"/>
<path d="M74.8399 19.877H74.5613V19.6238H74.8399V19.877Z" fill="#8BA57D"/>
<path fill-rule="evenodd" clip-rule="evenodd" d="M72.3516 19.7823H72.0615V19.5184H72.3516V19.7823Z" fill="#8BA57D"/>
</g>
<g id="Vector_5" opacity="0.9" filter="url(#filter1_d_0_1)">
<path d="M75.5368 22.8604H75.2582V22.6019H75.5368V22.8604Z" fill="#B06F4D"/>
<path d="M76.3855 22.3838L76.1301 22.3849V22.1432H76.3855V22.3838Z" fill="#B06F4D"/>
<path d="M71.2471 21.9426H70.9332V21.6525H71.2471V21.9426ZM71.5494 20.2966H71.2005V19.9695H71.5494V20.2966Z" fill="#B06F4D"/>
<path fill-rule="evenodd" clip-rule="evenodd" d="M76.0233 20.2439H75.675V19.9274H76.0233V20.2439Z" fill="#B06F4D"/>
</g>
<path id="Vector_6" fill-rule="evenodd" clip-rule="evenodd" d="M77.3855 24.224L77.414 24.2498C77.4424 24.2756 77.4427 24.2764 77.4427 24.493C77.4427 24.7351 77.4371 24.7578 77.3704 24.7859C77.3494 24.7949 77.2616 24.8101 77.1752 24.8198C76.7856 24.8637 76.4164 24.9638 76.0792 25.1171C75.3197 25.4622 74.8359 25.9659 74.8338 26.4134C74.8332 26.5448 74.8494 26.6081 74.9164 26.7351C74.9623 26.8221 74.9838 26.8485 75.0809 26.9363C75.2575 27.0959 75.5351 27.251 75.8265 27.3531C76.0449 27.4296 76.0358 27.4148 76.0358 27.6902C76.0358 27.909 76.0282 27.9452 75.9782 27.9696C75.9634 27.9766 75.7651 27.9804 75.4206 27.9804H74.8853L74.7774 27.9282C74.6555 27.8692 74.5593 27.8432 74.3498 27.8125C74.1175 27.7784 73.9668 27.7669 73.6875 27.7652L73.5593 27.7651C72.9581 27.7667 72.5989 27.8188 72.3821 27.9361L72.3098 27.9752L71.2094 27.981L71.1408 27.9187V27.4618L71.1728 27.4328C71.1909 27.4163 71.255 27.3861 71.321 27.3629C71.6578 27.2447 71.9901 27.0499 72.1575 26.8725C72.2631 26.7606 72.35 26.5533 72.35 26.4134C72.35 26.233 72.2416 26.0291 72.0905 25.925C71.9509 25.8287 71.8395 25.7905 71.5784 25.7493C71.0251 25.6619 70.6078 25.5181 70.2048 25.276C69.9089 25.0983 69.7036 24.9187 69.5351 24.6903C69.4559 24.583 69.4415 24.5462 69.4688 24.5214C69.48 24.5118 69.7041 24.5089 70.4048 24.5089C70.9119 24.5089 71.3268 24.5052 71.3267 24.5008C71.3267 24.4964 71.321 24.4744 71.3141 24.452C71.3042 24.4197 71.3049 24.4091 71.3171 24.4016C71.3258 24.3965 71.4365 24.3933 71.5631 24.3944C71.819 24.3969 71.8078 24.4 71.8206 24.3232C71.8247 24.2984 71.8385 24.2659 71.8515 24.251L71.8749 24.224H77.3855Z" fill="url(#paint9_linear_0_1)"/>
<g id="Vector_7" filter="url(#filter2_f_0_1)">
<mask id="path-8-inside-2_0_1" fill="white">
<path d="M71.8144 27.6722H71.7021L71.8894 27.6323L72.4883 27.1665L72.713 27.1115L72.4883 27.2135L71.9268 27.7232L71.8144 27.6722Z"/>
<path d="M72.0393 24.6135V25.276C72.1517 24.9702 72.4886 24.8174 72.4886 24.8174L72.6571 24.7664L72.994 24.7154L74.4542 24.5625H72.0954C72.0506 24.5625 72.0393 24.5965 72.0393 24.6135Z"/>
<path d="M75.2398 27.7234L74.6221 27.2136L74.959 27.4174L75.3522 27.6214H75.6891L75.4083 27.6724L75.2398 27.7234Z"/>
</mask>
<path d="M71.8144 27.6722H71.7021L71.8894 27.6323L72.4883 27.1665L72.713 27.1115L72.4883 27.2135L71.9268 27.7232L71.8144 27.6722Z" fill="#8BA57D"/>
<path d="M72.0393 24.6135V25.276C72.1517 24.9702 72.4886 24.8174 72.4886 24.8174L72.6571 24.7664L72.994 24.7154L74.4542 24.5625H72.0954C72.0506 24.5625 72.0393 24.5965 72.0393 24.6135Z" fill="#8BA57D"/>
<path d="M75.2398 27.7234L74.6221 27.2136L74.959 27.4174L75.3522 27.6214H75.6891L75.4083 27.6724L75.2398 27.7234Z" fill="#8BA57D"/>
<path d="M71.8144 27.6722H71.7021L71.8894 27.6323L72.4883 27.1665L72.713 27.1115L72.4883 27.2135L71.9268 27.7232L71.8144 27.6722Z" stroke="#8BA57D" stroke-width="0.4" mask="url(#path-8-inside-2_0_1)"/>
<path d="M72.0393 24.6135V25.276C72.1517 24.9702 72.4886 24.8174 72.4886 24.8174L72.6571 24.7664L72.994 24.7154L74.4542 24.5625H72.0954C72.0506 24.5625 72.0393 24.5965 72.0393 24.6135Z" stroke="#8BA57D" stroke-width="0.4" mask="url(#path-8-inside-2_0_1)"/>
<path d="M75.2398 27.7234L74.6221 27.2136L74.959 27.4174L75.3522 27.6214H75.6891L75.4083 27.6724L75.2398 27.7234Z" stroke="#8BA57D" stroke-width="0.4" mask="url(#path-8-inside-2_0_1)"/>
</g>
<path id="Vector_8" opacity="0.75" d="M86.9687 10.8565L80.1231 16.0006L81.8345 17.7153L86.9687 10.8565ZM86.9687 37.9488L80.1231 32.8047L81.8345 31.09L86.9687 37.9488ZM59.9287 37.9488L66.7743 32.8047L65.0629 31.09L59.9287 37.9488ZM59.9287 10.8565L66.7743 16.0006L65.0629 17.7153L59.9287 10.8565Z" fill="#8BA57D"/>
<g id="Vector_9">
<mask id="path-10-inside-3_0_1" fill="white">
<path d="M73.4488 47.6607L70.8817 33.943L73.4488 35.3148L76.0159 33.943L73.4488 47.6607Z"/>
</mask>
<path d="M73.4488 47.6607L70.8817 33.943L73.4488 35.3148L76.0159 33.943L73.4488 47.6607Z" fill="#8BA57D" stroke="#BBC6B0" stroke-opacity="0.75" stroke-width="0.4" mask="url(#path-10-inside-3_0_1)"/>
</g>
<g id="Vector_10">
<mask id="path-11-inside-4_0_1" fill="white">
<path d="M97.4083 24.2905L83.7172 26.8625L85.0863 24.2905L83.7172 21.7184L97.4083 24.2905ZM49.4893 24.2905L63.1804 21.7184L61.8113 24.2905L63.1804 26.8625L49.4893 24.2905Z"/>
</mask>
<path d="M97.4083 24.2905L83.7172 26.8625L85.0863 24.2905L83.7172 21.7184L97.4083 24.2905ZM49.4893 24.2905L63.1804 21.7184L61.8113 24.2905L63.1804 26.8625L49.4893 24.2905Z" fill="#B06F4D" stroke="#E8E5E0" stroke-opacity="0.5" stroke-width="0.4" mask="url(#path-11-inside-4_0_1)"/>
</g>
<g id="North Pointer">
<mask id="path-12-inside-5_0_1" fill="white">
<path d="M73.4488 0L76.0159 13.7176L73.4488 12.3459L70.8817 13.7176L73.4488 0Z"/>
</mask>
<path d="M73.4488 0L76.0159 13.7176L73.4488 12.3459L70.8817 13.7176L73.4488 0Z" fill="#1C3B2A" stroke="#BBC6B0" stroke-opacity="0.5" stroke-width="0.4" mask="url(#path-12-inside-5_0_1)"/>
</g>
</g>
<g id="Vector_11">
<path d="M7.89862 43.5155V4.62142H15.0145L36.9461 32.6252H33.4944V4.62142H41.9909V43.5155H34.9282L12.9434 15.5118H16.3951V43.5155H7.89862Z" fill="url(#paint10_linear_0_1)"/>
<path d="M104.268 43.5155V4.62142H120.358C123.686 4.62142 126.554 5.19557 128.961 6.34387C131.369 7.45513 133.227 9.06648 134.537 11.1779C135.847 13.2893 136.502 15.8081 136.502 18.7344C136.502 21.6237 135.847 24.124 134.537 26.2354C133.227 28.3098 131.369 29.9026 128.961 31.0138C126.554 32.1251 123.686 32.6807 120.358 32.6807H109.047L112.871 28.7358V43.5155H104.268ZM127.899 43.5155L118.606 29.4025H127.793L137.192 43.5155H127.899ZM112.871 29.7359L109.047 25.5131H119.881C122.536 25.5131 124.518 24.9204 125.828 23.7351C127.138 22.5127 127.793 20.8458 127.793 18.7344C127.793 16.586 127.138 14.9191 125.828 13.7338C124.518 12.5484 122.536 11.9558 119.881 11.9558H109.047L112.871 7.6774V29.7359Z" fill="url(#paint11_linear_0_1)"/>
<path d="M157.093 43.5155V11.9558H145.198V4.62142H177.591V11.9558H165.696V43.5155H157.093Z" fill="url(#paint12_linear_0_1)"/>
<path d="M211.086 4.62142H219.689V43.5155H211.086V4.62142ZM194.199 43.5155H185.596V4.62142H194.199V43.5155ZM211.723 27.5689H193.562V19.9568H211.723V27.5689Z" fill="url(#paint13_linear_0_1)"/>
<path d="M242.829 44.1821C239.855 44.1821 237.005 43.7746 234.279 42.9597C231.553 42.1078 229.358 41.015 227.694 39.6815L230.615 32.9028C232.208 34.0881 234.084 35.0698 236.244 35.8477C238.439 36.5885 240.651 36.9589 242.882 36.9589C244.581 36.9589 245.944 36.7922 246.971 36.4589C248.033 36.0884 248.812 35.5883 249.307 34.9586C249.803 34.3289 250.051 33.6066 250.051 32.7917C250.051 31.7545 249.661 30.9396 248.882 30.3469C248.104 29.7172 247.077 29.2171 245.802 28.8467C244.404 28.4066 242.986 28.0358 241.554 27.7355C239.998 27.3552 238.457 26.9104 236.934 26.4019C235.466 25.9091 234.058 25.2378 232.739 24.4017C231.472 23.594 230.399 22.4912 229.606 21.1791C228.827 19.8455 228.438 18.1416 228.438 16.0673C228.438 13.8447 229.004 11.8259 230.137 10.0109C231.305 8.15878 233.04 6.69563 235.341 5.62141C237.678 4.51015 240.598 3.95455 244.103 3.95455C246.44 3.95455 248.741 4.25086 251.007 4.84354C253.272 5.39916 255.273 6.25114 257.007 7.39944L254.352 14.2337C252.617 13.1965 250.883 12.4371 249.148 11.9556C247.492 11.4489 245.776 11.187 244.05 11.1777C242.386 11.1777 241.023 11.3814 239.961 11.7889C238.899 12.1964 238.138 12.7335 237.678 13.4002C237.217 14.0299 236.987 14.7708 236.987 15.6228C236.987 16.6229 237.377 17.4378 238.156 18.0675C238.934 18.6602 239.961 19.1417 241.236 19.5121C242.51 19.8826 243.908 20.253 245.431 20.6234C246.988 20.9938 248.528 21.4198 250.051 21.9014C251.608 22.3829 253.024 23.0312 254.299 23.8461C255.558 24.6454 256.615 25.7508 257.379 27.0687C258.193 28.4022 258.6 30.0876 258.6 32.1249C258.614 34.2652 258.002 36.3587 256.848 38.1257C255.68 39.9408 253.927 41.4039 251.591 42.5152C249.29 43.6264 246.369 44.1821 242.829 44.1821Z" fill="url(#paint14_linear_0_1)"/>
<path d="M286.732 44.1821C283.865 44.1821 281.192 43.7005 278.714 42.7375C276.271 41.7373 274.147 40.3297 272.341 38.5147C270.535 36.6994 269.092 34.5276 268.093 32.1249C267.102 29.6802 266.606 26.9946 266.606 24.0683C266.606 21.142 267.102 18.4564 268.093 16.0117C269.092 13.609 270.535 11.4372 272.341 9.62196C274.196 7.79806 276.38 6.38112 278.767 5.45472C281.209 4.45459 283.882 3.95455 286.785 3.95455C290.007 3.95455 292.91 4.54718 295.494 5.73252C298.06 6.83906 300.323 8.59569 302.079 10.8443L296.556 16.1784C295.282 14.6596 293.866 13.5299 292.308 12.789C290.75 12.0112 289.051 11.6222 287.21 11.6222C285.475 11.6222 283.882 11.9185 282.431 12.5112C281.017 13.0782 279.733 13.9489 278.66 15.0671C277.587 16.1962 276.739 17.5371 276.165 19.0121C275.598 20.5308 275.315 22.2162 275.315 24.0683C275.315 25.9204 275.598 27.6058 276.165 29.1245C276.739 30.5995 277.587 31.9404 278.66 33.0695C279.733 34.1877 281.017 35.0584 282.431 35.6254C283.882 36.2181 285.475 36.5144 287.21 36.5144C289.051 36.5144 290.75 36.144 292.308 35.4031C293.866 34.6252 295.282 33.4585 296.556 31.9027L302.079 37.2367C300.316 39.491 298.056 41.2641 295.494 42.4041C292.91 43.5894 289.989 44.1821 286.732 44.1821Z" fill="url(#paint15_linear_0_1)"/>
<path d="M310.084 43.5155L326.653 4.62142H335.149L351.771 43.5155H342.743L329.149 9.17762H332.547L318.9 43.5155H310.084ZM318.369 35.1811L320.652 28.3468H339.769L342.106 35.1811H318.369Z" fill="url(#paint16_linear_0_1)"/>
<path d="M359.776 43.5155V4.62142H375.866C379.194 4.62142 382.062 5.19557 384.469 6.34387C386.876 7.45513 388.735 9.06648 390.045 11.1779C391.355 13.2893 392.01 15.8081 392.01 18.7344C392.01 21.6237 391.355 24.124 390.045 26.2354C388.735 28.3468 386.876 29.9766 384.469 31.1249C382.062 32.2362 379.194 32.7919 375.866 32.7919H364.555L368.379 28.7358V43.5155H359.776ZM368.379 29.7359L364.555 25.4575H375.388C378.044 25.4575 380.026 24.8649 381.336 23.6795C382.646 22.4942 383.301 20.8458 383.301 18.7344C383.301 16.586 382.646 14.9191 381.336 13.7338C380.026 12.5484 378.044 11.9558 375.388 11.9558H364.555L368.379 7.6774V29.7359Z" fill="url(#paint17_linear_0_1)"/>
<path d="M407.928 20.2902H425.823V27.2911H407.928V20.2902ZM408.565 36.2923H428.797V43.5155H400.015V4.62142H428.107V11.8446H408.565V36.2923Z" fill="url(#paint18_linear_0_1)"/>
</g>
</g>
</g>
<defs>
<filter id="filter0_d_0_1" x="71.5844" y="19.9695" width="3.7836" height="4.47737" filterUnits="userSpaceOnUse" color-interpolation-filters="sRGB">
<feFlood flood-opacity="0" result="BackgroundImageFix"/>
<feColorMatrix in="SourceAlpha" type="matrix" values="0 0 0 0 0 0 0 0 0 0 0 0 0 0 0 0 0 0 127 0" result="hardAlpha"/>
<feOffset/>
<feGaussianBlur stdDeviation="0.25"/>
<feComposite in2="hardAlpha" operator="out"/>
<feColorMatrix type="matrix" values="0 0 0 0 1 0 0 0 0 0.834135 0 0 0 0 0.557692 0 0 0 1 0"/>
<feBlend mode="normal" in2="BackgroundImageFix" result="effect1_dropShadow_0_1"/>
<feBlend mode="normal" in="SourceGraphic" in2="effect1_dropShadow_0_1" result="shape"/>
</filter>
<filter id="filter1_d_0_1" x="70.7332" y="19.7274" width="5.85229" height="3.33299" filterUnits="userSpaceOnUse" color-interpolation-filters="sRGB">
<feFlood flood-opacity="0" result="BackgroundImageFix"/>
<feColorMatrix in="SourceAlpha" type="matrix" values="0 0 0 0 0 0 0 0 0 0 0 0 0 0 0 0 0 0 127 0" result="hardAlpha"/>
<feOffset/>
<feGaussianBlur stdDeviation="0.1"/>
<feComposite in2="hardAlpha" operator="out"/>
<feColorMatrix type="matrix" values="0 0 0 0 1 0 0 0 0 0.834135 0 0 0 0 0.557692 0 0 0 1 0"/>
<feBlend mode="normal" in2="BackgroundImageFix" result="effect1_dropShadow_0_1"/>
<feBlend mode="normal" in="SourceGraphic" in2="effect1_dropShadow_0_1" result="shape"/>
</filter>
<filter id="filter2_f_0_1" x="71.6021" y="24.4625" width="4.18701" height="3.36088" filterUnits="userSpaceOnUse" color-interpolation-filters="sRGB">
<feFlood flood-opacity="0" result="BackgroundImageFix"/>
<feBlend mode="normal" in="SourceGraphic" in2="BackgroundImageFix" result="shape"/>
<feGaussianBlur stdDeviation="0.05" result="effect1_foregroundBlur_0_1"/>
</filter>
<linearGradient id="paint0_linear_0_1" x1="245.954" y1="37.6568" x2="245.954" y2="105.569" gradientUnits="userSpaceOnUse">
<stop offset="0.201923" stop-color="#B06F4D"/>
<stop offset="0.899038" stop-color="#4A2F20"/>
</linearGradient>
<linearGradient id="paint1_linear_0_1" x1="245.954" y1="37.6568" x2="245.954" y2="105.569" gradientUnits="userSpaceOnUse">
<stop offset="0.201923" stop-color="#B06F4D"/>
<stop offset="0.899038" stop-color="#4A2F20"/>
</linearGradient>
<linearGradient id="paint2_linear_0_1" x1="245.954" y1="37.6568" x2="245.954" y2="105.569" gradientUnits="userSpaceOnUse">
<stop offset="0.201923" stop-color="#B06F4D"/>
<stop offset="0.899038" stop-color="#4A2F20"/>
</linearGradient>
<linearGradient id="paint3_linear_0_1" x1="245.954" y1="37.6568" x2="245.954" y2="105.569" gradientUnits="userSpaceOnUse">
<stop offset="0.201923" stop-color="#B06F4D"/>
<stop offset="0.899038" stop-color="#4A2F20"/>
</linearGradient>
<linearGradient id="paint4_linear_0_1" x1="245.954" y1="37.6568" x2="245.954" y2="105.569" gradientUnits="userSpaceOnUse">
<stop offset="0.201923" stop-color="#B06F4D"/>
<stop offset="0.899038" stop-color="#4A2F20"/>
</linearGradient>
<linearGradient id="paint5_linear_0_1" x1="245.954" y1="37.6568" x2="245.954" y2="105.569" gradientUnits="userSpaceOnUse">
<stop offset="0.201923" stop-color="#B06F4D"/>
<stop offset="0.899038" stop-color="#4A2F20"/>
</linearGradient>
<linearGradient id="paint6_linear_0_1" x1="245.954" y1="37.6568" x2="245.954" y2="105.569" gradientUnits="userSpaceOnUse">
<stop offset="0.201923" stop-color="#B06F4D"/>
<stop offset="0.899038" stop-color="#4A2F20"/>
</linearGradient>
<linearGradient id="paint7_linear_0_1" x1="73.4489" y1="16.2807" x2="73.4489" y2="31.3795" gradientUnits="userSpaceOnUse">
<stop stop-color="#8BA57D"/>
<stop offset="1" stop-color="#1C3B2A"/>
</linearGradient>
<linearGradient id="paint8_linear_0_1" x1="73.4762" y1="20.4699" x2="73.4762" y2="23.9472" gradientUnits="userSpaceOnUse">
<stop offset="0.600962" stop-color="#B06F4D"/>
<stop offset="1" stop-color="#4A2F20"/>
</linearGradient>
<linearGradient id="paint9_linear_0_1" x1="73.4494" y1="24.224" x2="73.4494" y2="27.981" gradientUnits="userSpaceOnUse">
<stop stop-color="#8BA57D"/>
<stop offset="0.043" stop-color="#1C3B2A"/>
</linearGradient>
<linearGradient id="paint10_linear_0_1" x1="414.406" y1="4.62142" x2="414.406" y2="43.5155" gradientUnits="userSpaceOnUse">
<stop offset="0.197115" stop-color="#8BA57D"/>
<stop offset="0.951923" stop-color="#1C3B2A"/>
</linearGradient>
<linearGradient id="paint11_linear_0_1" x1="414.406" y1="4.62142" x2="414.406" y2="43.5155" gradientUnits="userSpaceOnUse">
<stop offset="0.197115" stop-color="#8BA57D"/>
<stop offset="0.951923" stop-color="#1C3B2A"/>
</linearGradient>
<linearGradient id="paint12_linear_0_1" x1="414.406" y1="4.62142" x2="414.406" y2="43.5155" gradientUnits="userSpaceOnUse">
<stop offset="0.197115" stop-color="#8BA57D"/>
<stop offset="0.951923" stop-color="#1C3B2A"/>
</linearGradient>
<linearGradient id="paint13_linear_0_1" x1="414.406" y1="4.62142" x2="414.406" y2="43.5155" gradientUnits="userSpaceOnUse">
<stop offset="0.197115" stop-color="#8BA57D"/>
<stop offset="0.951923" stop-color="#1C3B2A"/>
</linearGradient>
<linearGradient id="paint14_linear_0_1" x1="414.406" y1="4.62142" x2="414.406" y2="43.5155" gradientUnits="userSpaceOnUse">
<stop offset="0.197115" stop-color="#8BA57D"/>
<stop offset="0.951923" stop-color="#1C3B2A"/>
</linearGradient>
<linearGradient id="paint15_linear_0_1" x1="414.406" y1="4.62142" x2="414.406" y2="43.5155" gradientUnits="userSpaceOnUse">
<stop offset="0.197115" stop-color="#8BA57D"/>
<stop offset="0.951923" stop-color="#1C3B2A"/>
</linearGradient>
<linearGradient id="paint16_linear_0_1" x1="414.406" y1="4.62142" x2="414.406" y2="43.5155" gradientUnits="userSpaceOnUse">
<stop offset="0.197115" stop-color="#8BA57D"/>
<stop offset="0.951923" stop-color="#1C3B2A"/>
</linearGradient>
<linearGradient id="paint17_linear_0_1" x1="414.406" y1="4.62142" x2="414.406" y2="43.5155" gradientUnits="userSpaceOnUse">
<stop offset="0.197115" stop-color="#8BA57D"/>
<stop offset="0.951923" stop-color="#1C3B2A"/>
</linearGradient>
<linearGradient id="paint18_linear_0_1" x1="414.406" y1="4.62142" x2="414.406" y2="43.5155" gradientUnits="userSpaceOnUse">
<stop offset="0.197115" stop-color="#8BA57D"/>
<stop offset="0.951923" stop-color="#1C3B2A"/>
</linearGradient>
</defs>
</svg>
