<svg width="641" height="147" viewBox="0 0 641 147" fill="none" xmlns="http://www.w3.org/2000/svg">
<g id="North Mark">
<g id="Compass">
<g id="Outer Ring">
<mask id="path-1-outside-1_0_1" maskUnits="userSpaceOnUse" x="73.0469" y="6.36133" width="59" height="60" fill="black">
<rect fill="white" x="73.0469" y="6.36133" width="59" height="60"/>
<path d="M131.014 36.1684C131.014 20.533 118.372 7.858 102.778 7.858C87.1838 7.858 74.5422 20.533 74.5422 36.1684C74.5422 51.8037 87.1838 64.4787 102.778 64.4787C118.372 64.4787 131.014 51.8037 131.014 36.1684ZM131.509 36.1684C131.509 52.078 118.646 64.9754 102.778 64.9754C86.9102 64.9754 74.0469 52.078 74.0469 36.1684C74.0469 20.2587 86.9102 7.36133 102.778 7.36133C118.646 7.36133 131.509 20.2587 131.509 36.1684Z"/>
</mask>
<path d="M131.014 36.1684C131.014 20.533 118.372 7.858 102.778 7.858C87.1838 7.858 74.5422 20.533 74.5422 36.1684C74.5422 51.8037 87.1838 64.4787 102.778 64.4787C118.372 64.4787 131.014 51.8037 131.014 36.1684ZM131.509 36.1684C131.509 52.078 118.646 64.9754 102.778 64.9754C86.9102 64.9754 74.0469 52.078 74.0469 36.1684C74.0469 20.2587 86.9102 7.36133 102.778 7.36133C118.646 7.36133 131.509 20.2587 131.509 36.1684Z" fill="#8BA57D"/>
<path d="M131.014 36.1684C131.014 20.533 118.372 7.858 102.778 7.858C87.1838 7.858 74.5422 20.533 74.5422 36.1684C74.5422 51.8037 87.1838 64.4787 102.778 64.4787C118.372 64.4787 131.014 51.8037 131.014 36.1684ZM131.509 36.1684C131.509 52.078 118.646 64.9754 102.778 64.9754C86.9102 64.9754 74.0469 52.078 74.0469 36.1684C74.0469 20.2587 86.9102 7.36133 102.778 7.36133C118.646 7.36133 131.509 20.2587 131.509 36.1684Z" stroke="#8BA57D" mask="url(#path-1-outside-1_0_1)"/>
</g>
<g id="Vector">
<path d="M102.779 45.1782C108.25 45.1782 112.686 40.7308 112.686 35.2447C112.686 29.7586 108.25 25.3112 102.779 25.3112C97.3069 25.3112 92.8713 29.7586 92.8713 35.2447C92.8713 40.7308 97.3069 45.1782 102.779 45.1782Z" fill="url(#paint0_linear_0_1)"/>
<path d="M112.686 35.2447C112.686 29.7586 108.25 25.3112 102.779 25.3112C97.3069 25.3112 92.8713 29.7586 92.8713 35.2447L92.884 35.7554C93.1406 40.8348 97.2029 44.9072 102.269 45.1646L102.779 45.1782C108.079 45.1782 112.408 41.0041 112.673 35.7554L112.686 35.2447ZM113.693 35.2446C113.693 41.2741 108.815 46.1782 102.778 46.1782C96.7419 46.178 91.8646 41.274 91.8645 35.2446C91.8645 29.2152 96.7418 24.3112 102.778 24.311C108.815 24.311 113.693 29.2151 113.693 35.2446Z" fill="#1C3B2A"/>
</g>
<g id="Vector_2" filter="url(#filter0_d_0_1)">
<path d="M103.241 30.3775C103.243 30.3795 103.231 30.4288 103.214 30.4874C103.17 30.6394 103.158 30.9571 103.192 31.0881C103.249 31.3069 103.332 31.4063 103.803 31.821C104.271 32.2334 104.438 32.4187 104.597 32.6994C104.774 33.0128 104.833 33.2334 104.832 33.5857C104.832 33.8502 104.813 33.9605 104.728 34.1928C104.535 34.7241 104.076 35.1524 103.52 35.3217C103.298 35.3891 103.118 35.4129 102.827 35.4136C102.55 35.4144 102.411 35.3959 102.188 35.328C101.543 35.1325 101.008 34.6328 100.84 34.0699C100.791 33.9052 100.791 33.567 100.841 33.4014C100.91 33.1678 101.1 32.8917 101.263 32.7859L101.306 32.7584L101.3 32.8898C101.289 33.0989 101.362 33.2763 101.521 33.4327C101.632 33.5413 101.739 33.5941 101.867 33.6034C101.997 33.613 102.058 33.6009 102.143 33.5498C102.195 33.519 102.223 33.4878 102.247 33.4375C102.326 33.2701 102.266 33.0566 102.054 32.7561C101.87 32.4958 101.81 32.3286 101.81 32.0755C101.809 31.6574 101.998 31.2889 102.406 30.9146C102.633 30.706 102.865 30.547 103.105 30.4356C103.178 30.402 103.239 30.376 103.241 30.3775Z" fill="url(#paint1_linear_0_1)"/>
</g>
<g id="Vector_3">
<path fill-rule="evenodd" clip-rule="evenodd" d="M100.079 34.1185L99.6931 34.1279L99.6932 33.7841H100.079V34.1185Z" fill="#8BA57D"/>
<path d="M106.07 32.5912H105.549V32.1022H106.07V32.5912Z" fill="#8BA57D"/>
<path fill-rule="evenodd" clip-rule="evenodd" d="M100.364 31.7659H100.013V31.4296H100.374L100.364 31.7659Z" fill="#8BA57D"/>
<path d="M106.912 31.6133H106.542V31.2618H106.912V31.6133Z" fill="#8BA57D"/>
<path fill-rule="evenodd" clip-rule="evenodd" d="M99.0195 31.3382H98.6499V31.002H99.0195V31.3382Z" fill="#8BA57D"/>
<path fill-rule="evenodd" clip-rule="evenodd" d="M105.414 31.0791H105.044V30.7428H105.414V31.0791Z" fill="#8BA57D"/>
<path d="M104.792 29.5193H104.388V29.1525H104.792V29.5193Z" fill="#8BA57D"/>
<path fill-rule="evenodd" clip-rule="evenodd" d="M101.19 29.3821H100.771V29H101.19V29.3821Z" fill="#8BA57D"/>
</g>
<g id="Vector_4" opacity="0.9" filter="url(#filter1_d_0_1)">
<path d="M105.8 33.8401H105.397V33.4657H105.8V33.8401Z" fill="#B06F4D"/>
<path d="M107.029 33.1499L106.659 33.1514V32.8014H107.029V33.1499Z" fill="#B06F4D"/>
<path d="M99.5919 32.5109H99.1377V32.0907H99.5919V32.5109ZM100.03 30.1271H99.5246V29.6532H100.03V30.1271Z" fill="#B06F4D"/>
<path fill-rule="evenodd" clip-rule="evenodd" d="M106.504 30.0507H106V29.5923H106.504V30.0507Z" fill="#B06F4D"/>
</g>
<path id="Vector_5" fill-rule="evenodd" clip-rule="evenodd" d="M108.476 35.8149L108.517 35.8524C108.558 35.8898 108.558 35.8909 108.558 36.2045C108.558 36.5551 108.55 36.5881 108.454 36.6288C108.424 36.6417 108.296 36.6638 108.171 36.6778C107.608 36.7414 107.073 36.8864 106.585 37.1084C105.486 37.6083 104.786 38.3377 104.783 38.9859C104.782 39.1761 104.805 39.2678 104.902 39.4517C104.969 39.5777 105 39.616 105.14 39.7431C105.396 39.9742 105.798 40.1989 106.22 40.3468C106.536 40.4575 106.522 40.4362 106.522 40.835C106.522 41.1519 106.511 41.2043 106.439 41.2396C106.418 41.2497 106.131 41.2553 105.632 41.2553H104.857L104.701 41.1797C104.525 41.0942 104.386 41.0565 104.082 41.0121C103.746 40.9628 103.528 40.9461 103.124 40.9436L102.938 40.9434C102.068 40.9457 101.548 41.0212 101.235 41.1911L101.13 41.2477L99.5374 41.2562L99.4382 41.1659V40.5042L99.4844 40.4621C99.5107 40.4383 99.6035 40.3946 99.6989 40.361C100.186 40.1898 100.667 39.9077 100.91 39.6507C101.062 39.4887 101.188 39.1885 101.188 38.9859C101.188 38.7246 101.031 38.4293 100.813 38.2784C100.611 38.139 100.449 38.0837 100.071 38.024C99.2708 37.8975 98.6667 37.6892 98.0835 37.3386C97.6552 37.0811 97.3582 36.821 97.1143 36.4903C96.9997 36.335 96.9789 36.2816 97.0183 36.2457C97.0345 36.2318 97.3588 36.2275 98.373 36.2275C99.1068 36.2275 99.7073 36.2222 99.7072 36.2159C99.7072 36.2095 99.6989 36.1777 99.689 36.1452C99.6746 36.0984 99.6756 36.083 99.6933 36.0722C99.7058 36.0648 99.866 36.0601 100.049 36.0618C100.42 36.0654 100.403 36.0699 100.422 35.9586C100.428 35.9227 100.448 35.8757 100.467 35.854L100.501 35.8149H108.476Z" fill="url(#paint2_linear_0_1)"/>
<g id="Vector_6" filter="url(#filter2_f_0_1)">
<mask id="path-7-inside-2_0_1" fill="white">
<path d="M100.413 40.8089H100.25L100.522 40.7511L101.388 40.0765L101.713 39.9969L101.388 40.1445L100.576 40.8828L100.413 40.8089Z"/>
<path d="M100.738 36.379V37.3386C100.901 36.8957 101.389 36.6744 101.389 36.6744L101.633 36.6005L102.12 36.5267L104.233 36.3052H100.82C100.755 36.3052 100.738 36.3545 100.738 36.379Z"/>
<path d="M105.37 40.883L104.476 40.1448L104.964 40.44L105.533 40.7353H106.021L105.614 40.8092L105.37 40.883Z"/>
</mask>
<path d="M100.413 40.8089H100.25L100.522 40.7511L101.388 40.0765L101.713 39.9969L101.388 40.1445L100.576 40.8828L100.413 40.8089Z" fill="#8BA57D"/>
<path d="M100.738 36.379V37.3386C100.901 36.8957 101.389 36.6744 101.389 36.6744L101.633 36.6005L102.12 36.5267L104.233 36.3052H100.82C100.755 36.3052 100.738 36.3545 100.738 36.379Z" fill="#8BA57D"/>
<path d="M105.37 40.883L104.476 40.1448L104.964 40.44L105.533 40.7353H106.021L105.614 40.8092L105.37 40.883Z" fill="#8BA57D"/>
<path d="M100.413 40.8089H100.25L100.522 40.7511L101.388 40.0765L101.713 39.9969L101.388 40.1445L100.576 40.8828L100.413 40.8089Z" stroke="#8BA57D" stroke-width="0.4" mask="url(#path-7-inside-2_0_1)"/>
<path d="M100.738 36.379V37.3386C100.901 36.8957 101.389 36.6744 101.389 36.6744L101.633 36.6005L102.12 36.5267L104.233 36.3052H100.82C100.755 36.3052 100.738 36.3545 100.738 36.379Z" stroke="#8BA57D" stroke-width="0.4" mask="url(#path-7-inside-2_0_1)"/>
<path d="M105.37 40.883L104.476 40.1448L104.964 40.44L105.533 40.7353H106.021L105.614 40.8092L105.37 40.883Z" stroke="#8BA57D" stroke-width="0.4" mask="url(#path-7-inside-2_0_1)"/>
</g>
<path id="Vector_7" opacity="0.75" d="M122.345 16.4551L112.438 23.9052L114.915 26.3885L122.345 16.4551ZM122.345 55.6923L112.438 48.2422L114.915 45.7588L122.345 55.6923ZM83.2114 55.6923L93.1187 48.2422L90.6419 45.7588L83.2114 55.6923ZM83.2114 16.4551L93.1187 23.9052L90.6419 26.3885L83.2114 16.4551Z" fill="#8BA57D"/>
<g id="Vector_8">
<mask id="path-9-inside-3_0_1" fill="white">
<path d="M102.778 69.7576L99.0632 49.8906L102.778 51.8773L106.494 49.8906L102.778 69.7576Z"/>
</mask>
<path d="M102.778 69.7576L99.0632 49.8906L102.778 51.8773L106.494 49.8906L102.778 69.7576Z" fill="#8BA57D" stroke="#BBC6B0" stroke-opacity="0.75" stroke-width="0.4" mask="url(#path-9-inside-3_0_1)"/>
</g>
<g id="Vector_9">
<mask id="path-10-inside-4_0_1" fill="white">
<path d="M137.454 35.9111L117.639 39.6361L119.621 35.9111L117.639 32.186L137.454 35.9111ZM68.103 35.9111L87.9175 32.186L85.9361 35.9111L87.9175 39.6361L68.103 35.9111Z"/>
</mask>
<path d="M137.454 35.9111L117.639 39.6361L119.621 35.9111L117.639 32.186L137.454 35.9111ZM68.103 35.9111L87.9175 32.186L85.9361 35.9111L87.9175 39.6361L68.103 35.9111Z" fill="#B06F4D" stroke="#E8E5E0" stroke-opacity="0.5" stroke-width="0.4" mask="url(#path-10-inside-4_0_1)"/>
</g>
<g id="North Pointer">
<mask id="path-11-inside-5_0_1" fill="white">
<path d="M102.778 0.731934L106.494 20.5989L102.778 18.6122L99.0632 20.5989L102.778 0.731934Z"/>
</mask>
<path d="M102.778 0.731934L106.494 20.5989L102.778 18.6122L99.0632 20.5989L102.778 0.731934Z" fill="#1C3B2A" stroke="#BBC6B0" stroke-opacity="0.5" stroke-width="0.4" mask="url(#path-11-inside-5_0_1)"/>
</g>
</g>
<g id="Vector_10" filter="url(#filter3_d_0_1)">
<path d="M5 63.3079V6.97852H15.6663L48.541 47.5357H43.367V6.97852H56.1029V63.3079H45.5162L12.562 22.7507H17.7359V63.3079H5Z" fill="url(#paint3_linear_0_1)"/>
<path d="M149.454 63.3079V6.97852H173.573C178.561 6.97852 182.859 7.81004 186.468 9.47309C190.076 11.0825 192.862 13.4162 194.826 16.4741C196.789 19.5319 197.771 23.1799 197.771 27.418C197.771 31.6025 196.789 35.2236 194.826 38.2815C192.862 41.2858 190.076 43.5926 186.468 45.202C182.859 46.8114 178.561 47.6162 173.573 47.6162H156.618L162.349 41.9028V63.3079H149.454ZM184.876 63.3079L170.946 42.8683H184.716L198.806 63.3079H184.876ZM162.349 43.3512L156.618 37.2354H172.856C176.836 37.2354 179.808 36.3771 181.771 34.6604C183.735 32.89 184.716 30.4759 184.716 27.418C184.716 24.3065 183.735 21.8924 181.771 20.1757C179.808 18.459 176.836 17.6006 172.856 17.6006H156.618L162.349 11.4044V43.3512Z" fill="url(#paint4_linear_0_1)"/>
<path d="M228.636 63.3079V17.6006H210.806V6.97852H259.361V17.6006H241.531V63.3079H228.636Z" fill="url(#paint5_linear_0_1)"/>
<path d="M309.569 6.97852H322.464V63.3079H309.569V6.97852ZM284.256 63.3079H271.361V6.97852H284.256V63.3079ZM310.524 40.2128H283.301V29.1884H310.524V40.2128Z" fill="url(#paint6_linear_0_1)"/>
<path d="M357.15 64.2733C352.693 64.2733 348.421 63.6832 344.335 62.503C340.249 61.2691 336.958 59.6864 334.464 57.7552L338.842 47.9378C341.23 49.6545 344.043 51.0762 347.28 52.2027C350.57 53.2757 353.887 53.8122 357.23 53.8122C359.777 53.8122 361.82 53.5707 363.359 53.0879C364.951 52.5514 366.118 51.8272 366.861 50.9152C367.604 50.0032 367.976 48.9571 367.976 47.7768C367.976 46.2747 367.392 45.0945 366.225 44.2361C365.057 43.3241 363.518 42.5999 361.608 42.0634C359.511 41.4261 357.386 40.889 355.24 40.454C352.907 39.9034 350.597 39.2591 348.315 38.5227C346.114 37.809 344.003 36.8367 342.026 35.6258C340.126 34.456 338.519 32.8589 337.33 30.9585C336.162 29.0273 335.579 26.5595 335.579 23.5552C335.579 20.3364 336.428 17.4126 338.126 14.7839C339.877 12.1016 342.477 9.98254 345.927 8.42678C349.429 6.81737 353.807 6.0127 359.061 6.0127C362.563 6.0127 366.012 6.44185 369.409 7.3002C372.805 8.1049 375.803 9.3388 378.403 11.0019L374.423 20.8997C371.823 19.3976 369.223 18.2978 366.623 17.6004C364.14 16.8665 361.568 16.4873 358.981 16.4738C356.487 16.4738 354.444 16.7689 352.852 17.359C351.26 17.9491 350.119 18.727 349.429 19.6927C348.739 20.6047 348.394 21.6776 348.394 22.9115C348.394 24.36 348.978 25.5402 350.145 26.4522C351.313 27.3105 352.852 28.0079 354.762 28.5444C356.673 29.0809 358.769 29.6173 361.051 30.1538C363.385 30.6903 365.694 31.3072 367.976 32.0046C370.311 32.702 372.433 33.6409 374.344 34.8211C376.232 35.9787 377.815 37.5798 378.96 39.4884C380.181 41.4197 380.791 43.8606 380.791 46.8112C380.811 49.9109 379.895 52.9429 378.164 55.502C376.413 58.1307 373.787 60.2497 370.284 61.8591C366.835 63.4686 362.457 64.2733 357.15 64.2733Z" fill="url(#paint7_linear_0_1)"/>
<path d="M422.96 64.2733C418.661 64.2733 414.655 63.5759 410.94 62.1811C407.279 60.7326 404.095 58.694 401.388 56.0653C398.682 53.4363 396.517 50.2909 395.02 46.8112C393.534 43.2705 392.792 39.3811 392.792 35.143C392.792 30.9049 393.534 27.0154 395.02 23.4747C396.517 19.995 398.682 16.8497 401.388 14.2207C404.168 11.5792 407.443 9.52704 411.02 8.18536C414.681 6.7369 418.688 6.0127 423.039 6.0127C427.868 6.0127 432.22 6.871 436.094 8.5877C439.94 10.1903 443.332 12.7343 445.964 15.991L437.686 23.7162C435.775 21.5166 433.653 19.8804 431.318 18.8075C428.983 17.6809 426.436 17.1176 423.676 17.1176C421.076 17.1176 418.688 17.5467 416.512 18.4051C414.393 19.2262 412.468 20.4872 410.861 22.1067C409.252 23.742 407.98 25.684 407.119 27.8201C406.27 30.0197 405.846 32.4606 405.846 35.143C405.846 37.8253 406.27 40.2662 407.119 42.4658C407.98 44.6019 409.252 46.5439 410.861 48.1792C412.468 49.7987 414.393 51.0597 416.512 51.8808C418.688 52.7392 421.076 53.1683 423.676 53.1683C426.436 53.1683 428.983 52.6319 431.318 51.5589C433.653 50.4323 435.775 48.7425 437.686 46.4893L445.964 54.2145C443.321 57.4793 439.934 60.0472 436.094 61.6982C432.22 63.4149 427.842 64.2733 422.96 64.2733Z" fill="url(#paint8_linear_0_1)"/>
<path d="M457.964 63.3079L482.799 6.97852H495.535L520.45 63.3079H506.918L486.54 13.5772H491.634L471.177 63.3079H457.964ZM470.381 51.2373L473.804 41.3394H502.46L505.962 51.2373H470.381Z" fill="url(#paint9_linear_0_1)"/>
<path d="M532.449 63.3079V6.97852H556.568C561.556 6.97852 565.855 7.81004 569.463 9.47309C573.072 11.0825 575.858 13.4162 577.821 16.4741C579.785 19.5319 580.766 23.1799 580.766 27.418C580.766 31.6025 579.785 35.2236 577.821 38.2815C575.858 41.3394 573.072 43.6999 569.463 45.3629C565.855 46.9723 561.556 47.7771 556.568 47.7771H539.613L545.345 41.9028V63.3079H532.449ZM545.345 43.3512L539.613 37.1549H555.852C559.832 37.1549 562.803 36.2966 564.767 34.5799C566.73 32.8632 567.712 30.4759 567.712 27.418C567.712 24.3065 566.73 21.8924 564.767 20.1757C562.803 18.459 559.832 17.6006 555.852 17.6006H539.613L545.345 11.4044V43.3512Z" fill="url(#paint10_linear_0_1)"/>
<path d="M604.627 29.6712H631.452V39.8105H604.627V29.6712ZM605.582 52.8467H635.909V63.3079H592.766V6.97852H634.874V17.4397H605.582V52.8467Z" fill="url(#paint11_linear_0_1)"/>
</g>
<g id="Vector_11" filter="url(#filter4_d_0_1)">
<path d="M130.687 108.683H156.865V119.145H130.687V108.683ZM131.622 139.665H119V83.3345H160.215V93.796H131.622V139.665Z" fill="url(#paint12_linear_0_1)"/>
<path d="M202.132 139.665C197.821 139.665 193.822 138.965 190.134 137.565C186.498 136.164 183.33 134.193 180.629 131.651C177.98 129.109 175.861 126.068 174.396 122.704C172.942 119.28 172.215 115.546 172.215 111.5C172.215 107.454 172.942 103.719 174.396 100.296C175.871 96.9172 178.018 93.873 180.707 91.3483C183.408 88.8067 186.576 86.8357 190.212 85.4352C193.848 84.0347 197.795 83.3345 202.054 83.3345C206.365 83.3345 210.313 84.0347 213.897 85.4352C217.533 86.8357 220.675 88.8067 223.324 91.3483C226.013 93.873 228.16 96.9172 229.635 100.296C231.141 103.668 231.894 107.402 231.894 111.5C231.894 115.546 231.141 119.306 229.635 122.782C228.16 126.16 226.013 129.205 223.324 131.729C220.675 134.219 217.533 136.164 213.897 137.565C210.313 138.965 206.391 139.665 202.132 139.665ZM202.054 128.928C204.496 128.928 206.729 128.513 208.755 127.683C210.832 126.853 212.65 125.66 214.208 124.104C215.776 122.533 216.997 120.651 217.792 118.58C218.675 116.454 219.117 114.093 219.117 111.5C219.117 108.906 218.675 106.546 217.792 104.42C216.997 102.348 215.776 100.467 214.208 98.8954C212.693 97.333 210.86 96.1127 208.833 95.3164C206.755 94.4865 204.496 94.0715 202.054 94.0715C199.613 94.0715 197.354 94.4865 195.276 95.3164C193.262 96.1383 191.434 97.3553 189.9 98.8954C188.325 100.477 187.081 102.354 186.239 104.42C185.407 106.546 184.992 108.906 184.992 111.5C184.992 114.042 185.407 116.402 186.239 118.58C187.121 120.707 188.316 122.548 189.822 124.104C191.381 125.66 193.199 126.853 195.276 127.683C197.354 128.513 199.613 128.928 202.054 128.928Z" fill="url(#paint13_linear_0_1)"/>
<path d="M268.592 139.665C260.853 139.665 254.802 137.476 250.439 133.099C246.076 128.721 243.894 122.471 243.894 114.348V83.3345H256.516V113.873C256.516 119.148 257.58 122.945 259.71 125.266C261.839 127.587 264.826 128.747 268.67 128.747C272.513 128.747 275.5 127.587 277.629 125.266C279.759 122.945 280.824 119.148 280.824 113.873V83.3345H293.289V114.348C293.289 122.471 291.108 128.721 286.745 133.099C282.382 137.476 276.331 139.665 268.592 139.665Z" fill="url(#paint14_linear_0_1)"/>
<path d="M305.289 139.665V83.3345H315.729L347.906 123.893H342.842V83.3345H355.308V139.665H344.946L312.691 99.1072H317.755V139.665H305.289Z" fill="url(#paint15_linear_0_1)"/>
<path d="M367.308 139.665V83.3345H392.083C398.005 83.3345 403.225 84.5148 407.743 86.8753C412.262 89.1822 415.794 92.4279 418.339 96.6125C420.884 100.797 422.157 105.76 422.157 111.5C422.157 117.187 420.884 122.149 418.339 126.387C415.794 130.572 412.262 133.845 407.743 136.205C403.225 138.512 398.005 139.665 392.083 139.665H367.308ZM379.929 128.962H391.46C395.096 128.962 398.238 128.265 400.887 126.87C403.588 125.422 405.666 123.383 407.12 120.754C408.626 118.125 409.38 115.041 409.38 111.5C409.38 107.906 408.626 104.821 407.12 102.246C405.666 99.6168 403.588 97.605 400.887 96.2101C398.238 94.7616 395.096 94.0374 391.46 94.0374H379.929V128.962Z" fill="url(#paint16_linear_0_1)"/>
<path d="M434.157 139.665V83.3345H457.764C462.646 83.3345 466.853 84.166 470.385 85.8291C473.917 87.4386 476.644 89.7723 478.566 92.8303C480.488 95.8882 481.449 99.5363 481.449 103.774C481.449 107.959 480.488 111.58 478.566 114.638C476.644 117.643 473.917 119.95 470.385 121.559C466.853 123.169 462.646 123.973 457.764 123.973H441.169L446.779 118.26V139.665H434.157ZM468.827 139.665L455.193 119.225H468.671L482.462 139.665H468.827ZM446.779 119.708L441.169 113.592H457.063C460.958 113.592 463.867 112.734 465.789 111.017C467.71 109.247 468.671 106.832 468.671 103.774C468.671 100.663 467.71 98.2487 465.789 96.532C463.867 94.8152 460.958 93.9569 457.063 93.9569H441.169L446.779 87.7605V119.708Z" fill="url(#paint17_linear_0_1)"/>
<path d="M506.114 139.665V116.65L508.996 124.536L485 83.3345H498.401L516.788 114.96H509.074L527.539 83.3345H539.927L515.931 124.536L518.735 116.65V139.665H506.114Z" fill="url(#paint18_linear_0_1)"/>
</g>
<g id="Vector_12" filter="url(#filter5_d_0_1)">
<path d="M636 106V116L556 116V106L636 106Z" fill="url(#paint19_linear_0_1)"/>
<path d="M85 108V118L5 118L5 108L85 108Z" fill="url(#paint20_linear_0_1)"/>
</g>
</g>
<defs>
<filter id="filter0_d_0_1" x="100.304" y="29.8774" width="5.02856" height="6.03613" filterUnits="userSpaceOnUse" color-interpolation-filters="sRGB">
<feFlood flood-opacity="0" result="BackgroundImageFix"/>
<feColorMatrix in="SourceAlpha" type="matrix" values="0 0 0 0 0 0 0 0 0 0 0 0 0 0 0 0 0 0 127 0" result="hardAlpha"/>
<feOffset/>
<feGaussianBlur stdDeviation="0.25"/>
<feComposite in2="hardAlpha" operator="out"/>
<feColorMatrix type="matrix" values="0 0 0 0 1 0 0 0 0 0.834135 0 0 0 0 0.557692 0 0 0 1 0"/>
<feBlend mode="normal" in2="BackgroundImageFix" result="effect1_dropShadow_0_1"/>
<feBlend mode="normal" in="SourceGraphic" in2="effect1_dropShadow_0_1" result="shape"/>
</filter>
<filter id="filter1_d_0_1" x="98.9377" y="29.3923" width="8.29087" height="4.64756" filterUnits="userSpaceOnUse" color-interpolation-filters="sRGB">
<feFlood flood-opacity="0" result="BackgroundImageFix"/>
<feColorMatrix in="SourceAlpha" type="matrix" values="0 0 0 0 0 0 0 0 0 0 0 0 0 0 0 0 0 0 127 0" result="hardAlpha"/>
<feOffset/>
<feGaussianBlur stdDeviation="0.1"/>
<feComposite in2="hardAlpha" operator="out"/>
<feColorMatrix type="matrix" values="0 0 0 0 1 0 0 0 0 0.834135 0 0 0 0 0.557692 0 0 0 1 0"/>
<feBlend mode="normal" in2="BackgroundImageFix" result="effect1_dropShadow_0_1"/>
<feBlend mode="normal" in="SourceGraphic" in2="effect1_dropShadow_0_1" result="shape"/>
</filter>
<filter id="filter2_f_0_1" x="100.15" y="36.2052" width="5.97026" height="4.77764" filterUnits="userSpaceOnUse" color-interpolation-filters="sRGB">
<feFlood flood-opacity="0" result="BackgroundImageFix"/>
<feBlend mode="normal" in="SourceGraphic" in2="BackgroundImageFix" result="shape"/>
<feGaussianBlur stdDeviation="0.05" result="effect1_foregroundBlur_0_1"/>
</filter>
<filter id="filter3_d_0_1" x="0" y="3.0127" width="640.909" height="68.2607" filterUnits="userSpaceOnUse" color-interpolation-filters="sRGB">
<feFlood flood-opacity="0" result="BackgroundImageFix"/>
<feColorMatrix in="SourceAlpha" type="matrix" values="0 0 0 0 0 0 0 0 0 0 0 0 0 0 0 0 0 0 127 0" result="hardAlpha"/>
<feOffset dy="2"/>
<feGaussianBlur stdDeviation="2.5"/>
<feComposite in2="hardAlpha" operator="out"/>
<feColorMatrix type="matrix" values="0 0 0 0 0.109804 0 0 0 0 0.231373 0 0 0 0 0.164706 0 0 0 0.5 0"/>
<feBlend mode="normal" in2="BackgroundImageFix" result="effect1_dropShadow_0_1"/>
<feBlend mode="normal" in="SourceGraphic" in2="effect1_dropShadow_0_1" result="shape"/>
</filter>
<filter id="filter4_d_0_1" x="114" y="80.3345" width="430.927" height="66.3311" filterUnits="userSpaceOnUse" color-interpolation-filters="sRGB">
<feFlood flood-opacity="0" result="BackgroundImageFix"/>
<feColorMatrix in="SourceAlpha" type="matrix" values="0 0 0 0 0 0 0 0 0 0 0 0 0 0 0 0 0 0 127 0" result="hardAlpha"/>
<feOffset dy="2"/>
<feGaussianBlur stdDeviation="2.5"/>
<feComposite in2="hardAlpha" operator="out"/>
<feColorMatrix type="matrix" values="0 0 0 0 0.168627 0 0 0 0 0.14902 0 0 0 0 0.133333 0 0 0 0.5 0"/>
<feBlend mode="normal" in2="BackgroundImageFix" result="effect1_dropShadow_0_1"/>
<feBlend mode="normal" in="SourceGraphic" in2="effect1_dropShadow_0_1" result="shape"/>
</filter>
<filter id="filter5_d_0_1" x="0" y="103" width="641" height="22" filterUnits="userSpaceOnUse" color-interpolation-filters="sRGB">
<feFlood flood-opacity="0" result="BackgroundImageFix"/>
<feColorMatrix in="SourceAlpha" type="matrix" values="0 0 0 0 0 0 0 0 0 0 0 0 0 0 0 0 0 0 127 0" result="hardAlpha"/>
<feOffset dy="2"/>
<feGaussianBlur stdDeviation="2.5"/>
<feComposite in2="hardAlpha" operator="out"/>
<feColorMatrix type="matrix" values="0 0 0 0 0.168627 0 0 0 0 0.14902 0 0 0 0 0.133333 0 0 0 0.5 0"/>
<feBlend mode="normal" in2="BackgroundImageFix" result="effect1_dropShadow_0_1"/>
<feBlend mode="normal" in="SourceGraphic" in2="effect1_dropShadow_0_1" result="shape"/>
</filter>
<linearGradient id="paint0_linear_0_1" x1="102.779" y1="24.311" x2="102.779" y2="46.1782" gradientUnits="userSpaceOnUse">
<stop stop-color="#8BA57D"/>
<stop offset="1" stop-color="#1C3B2A"/>
</linearGradient>
<linearGradient id="paint1_linear_0_1" x1="102.818" y1="30.3779" x2="102.818" y2="35.4141" gradientUnits="userSpaceOnUse">
<stop offset="0.600962" stop-color="#B06F4D"/>
<stop offset="1" stop-color="#4A2F20"/>
</linearGradient>
<linearGradient id="paint2_linear_0_1" x1="102.779" y1="35.8149" x2="102.779" y2="41.2562" gradientUnits="userSpaceOnUse">
<stop stop-color="#8BA57D"/>
<stop offset="0.043" stop-color="#1C3B2A"/>
</linearGradient>
<linearGradient id="paint3_linear_0_1" x1="614.338" y1="6.97852" x2="614.338" y2="63.3079" gradientUnits="userSpaceOnUse">
<stop offset="0.197115" stop-color="#8BA57D"/>
<stop offset="0.951923" stop-color="#1C3B2A"/>
</linearGradient>
<linearGradient id="paint4_linear_0_1" x1="614.338" y1="6.97852" x2="614.338" y2="63.3079" gradientUnits="userSpaceOnUse">
<stop offset="0.197115" stop-color="#8BA57D"/>
<stop offset="0.951923" stop-color="#1C3B2A"/>
</linearGradient>
<linearGradient id="paint5_linear_0_1" x1="614.338" y1="6.97852" x2="614.338" y2="63.3079" gradientUnits="userSpaceOnUse">
<stop offset="0.197115" stop-color="#8BA57D"/>
<stop offset="0.951923" stop-color="#1C3B2A"/>
</linearGradient>
<linearGradient id="paint6_linear_0_1" x1="614.338" y1="6.97852" x2="614.338" y2="63.3079" gradientUnits="userSpaceOnUse">
<stop offset="0.197115" stop-color="#8BA57D"/>
<stop offset="0.951923" stop-color="#1C3B2A"/>
</linearGradient>
<linearGradient id="paint7_linear_0_1" x1="614.338" y1="6.97852" x2="614.338" y2="63.3079" gradientUnits="userSpaceOnUse">
<stop offset="0.197115" stop-color="#8BA57D"/>
<stop offset="0.951923" stop-color="#1C3B2A"/>
</linearGradient>
<linearGradient id="paint8_linear_0_1" x1="614.338" y1="6.97852" x2="614.338" y2="63.3079" gradientUnits="userSpaceOnUse">
<stop offset="0.197115" stop-color="#8BA57D"/>
<stop offset="0.951923" stop-color="#1C3B2A"/>
</linearGradient>
<linearGradient id="paint9_linear_0_1" x1="614.338" y1="6.97852" x2="614.338" y2="63.3079" gradientUnits="userSpaceOnUse">
<stop offset="0.197115" stop-color="#8BA57D"/>
<stop offset="0.951923" stop-color="#1C3B2A"/>
</linearGradient>
<linearGradient id="paint10_linear_0_1" x1="614.338" y1="6.97852" x2="614.338" y2="63.3079" gradientUnits="userSpaceOnUse">
<stop offset="0.197115" stop-color="#8BA57D"/>
<stop offset="0.951923" stop-color="#1C3B2A"/>
</linearGradient>
<linearGradient id="paint11_linear_0_1" x1="614.338" y1="6.97852" x2="614.338" y2="63.3079" gradientUnits="userSpaceOnUse">
<stop offset="0.197115" stop-color="#8BA57D"/>
<stop offset="0.951923" stop-color="#1C3B2A"/>
</linearGradient>
<linearGradient id="paint12_linear_0_1" x1="369.454" y1="61.428" x2="369.454" y2="159.784" gradientUnits="userSpaceOnUse">
<stop offset="0.201923" stop-color="#B06F4D"/>
<stop offset="0.899038" stop-color="#4A2F20"/>
</linearGradient>
<linearGradient id="paint13_linear_0_1" x1="369.454" y1="61.428" x2="369.454" y2="159.784" gradientUnits="userSpaceOnUse">
<stop offset="0.201923" stop-color="#B06F4D"/>
<stop offset="0.899038" stop-color="#4A2F20"/>
</linearGradient>
<linearGradient id="paint14_linear_0_1" x1="369.454" y1="61.428" x2="369.454" y2="159.784" gradientUnits="userSpaceOnUse">
<stop offset="0.201923" stop-color="#B06F4D"/>
<stop offset="0.899038" stop-color="#4A2F20"/>
</linearGradient>
<linearGradient id="paint15_linear_0_1" x1="369.454" y1="61.428" x2="369.454" y2="159.784" gradientUnits="userSpaceOnUse">
<stop offset="0.201923" stop-color="#B06F4D"/>
<stop offset="0.899038" stop-color="#4A2F20"/>
</linearGradient>
<linearGradient id="paint16_linear_0_1" x1="369.454" y1="61.428" x2="369.454" y2="159.784" gradientUnits="userSpaceOnUse">
<stop offset="0.201923" stop-color="#B06F4D"/>
<stop offset="0.899038" stop-color="#4A2F20"/>
</linearGradient>
<linearGradient id="paint17_linear_0_1" x1="369.454" y1="61.428" x2="369.454" y2="159.784" gradientUnits="userSpaceOnUse">
<stop offset="0.201923" stop-color="#B06F4D"/>
<stop offset="0.899038" stop-color="#4A2F20"/>
</linearGradient>
<linearGradient id="paint18_linear_0_1" x1="369.454" y1="61.428" x2="369.454" y2="159.784" gradientUnits="userSpaceOnUse">
<stop offset="0.201923" stop-color="#B06F4D"/>
<stop offset="0.899038" stop-color="#4A2F20"/>
</linearGradient>
<linearGradient id="paint19_linear_0_1" x1="320.5" y1="106" x2="320.5" y2="118" gradientUnits="userSpaceOnUse">
<stop offset="0.206731" stop-color="#B06F4D"/>
<stop offset="1" stop-color="#4A2F20"/>
</linearGradient>
<linearGradient id="paint20_linear_0_1" x1="320.5" y1="106" x2="320.5" y2="118" gradientUnits="userSpaceOnUse">
<stop offset="0.206731" stop-color="#B06F4D"/>
<stop offset="1" stop-color="#4A2F20"/>
</linearGradient>
</defs>
</svg>
