<svg width="48" height="48" viewBox="0 0 48 48" fill="none" xmlns="http://www.w3.org/2000/svg">
<path d="M23.9595 4.32744C35.0619 4.32763 44.0611 13.3453 44.0611 24.4681C44.0611 35.5908 35.0619 44.6085 23.9595 44.6087C12.857 44.6087 3.85703 35.5909 3.857 24.4681C3.857 13.3452 12.857 4.32744 23.9595 4.32744ZM23.9595 5.17021C13.3231 5.17021 4.6988 13.8098 4.6988 24.4681C4.69883 35.1263 13.3231 43.7659 23.9595 43.7659C34.5958 43.7657 43.2193 35.1261 43.2193 24.4681C43.2193 13.81 34.5959 5.17041 23.9595 5.17021Z" fill="#8BA57D" stroke="#8BA57D" stroke-width="0.5"/>
<path d="M23.9596 30.6889C27.7403 30.6889 30.8051 27.6181 30.8051 23.8301C30.8051 20.0421 27.7403 16.9713 23.9596 16.9713C20.1789 16.9713 17.114 20.0421 17.114 23.8301C17.114 27.6181 20.1789 30.6889 23.9596 30.6889Z" fill="url(#paint0_linear_114_176)"/>
<path d="M30.8051 23.8301C30.8051 20.0421 27.7403 16.9713 23.9596 16.9713C20.1789 16.9713 17.114 20.0421 17.114 23.8301L17.1227 24.1827C17.3001 27.69 20.1069 30.5018 23.6074 30.6795L23.9596 30.6889C27.6222 30.6889 30.6132 27.8068 30.7965 24.1827L30.8051 23.8301ZM31.5009 23.8301C31.5009 27.9933 28.1302 31.3795 23.9593 31.3795C19.7884 31.3793 16.4184 27.9932 16.4183 23.8301C16.4183 19.6669 19.7884 16.2808 23.9593 16.2807C28.1303 16.2807 31.5009 19.6668 31.5009 23.8301Z" fill="#1C3B2A"/>
<g filter="url(#filter0_d_114_176)">
<path d="M24.2795 20.4696C24.2809 20.4709 24.2723 20.505 24.2606 20.5455C24.2299 20.6504 24.2219 20.8698 24.2454 20.9602C24.2846 21.1113 24.3419 21.1799 24.6672 21.4663C24.9909 21.751 25.1066 21.8789 25.2162 22.0728C25.3385 22.2892 25.3789 22.4415 25.3787 22.6847C25.3785 22.8674 25.3654 22.9435 25.3069 23.1039C25.173 23.4707 24.856 23.7665 24.4718 23.8834C24.3186 23.9299 24.1943 23.9464 23.9929 23.9469C23.8017 23.9474 23.7056 23.9346 23.5514 23.8878C23.1061 23.7528 22.7364 23.4078 22.6205 23.0191C22.5866 22.9054 22.5866 22.6718 22.6206 22.5575C22.6685 22.3962 22.7996 22.2055 22.9127 22.1325L22.942 22.1135L22.9377 22.2043C22.9307 22.3486 22.9808 22.4711 23.0909 22.5791C23.1674 22.6541 23.2411 22.6906 23.3296 22.697C23.4194 22.7036 23.4619 22.6952 23.5208 22.6599C23.5562 22.6387 23.5759 22.6172 23.5924 22.5824C23.6472 22.4668 23.6054 22.3194 23.459 22.1119C23.332 21.9322 23.2904 21.8167 23.2902 21.642C23.2896 21.3533 23.4205 21.0989 23.702 20.8404C23.8588 20.6964 24.0194 20.5866 24.1855 20.5097C24.2356 20.4865 24.2777 20.4685 24.2795 20.4696Z" fill="url(#paint1_linear_114_176)"/>
</g>
<path fill-rule="evenodd" clip-rule="evenodd" d="M22.0947 23.0526L21.8277 23.0592L21.8278 22.8217H22.0947V23.0526Z" fill="#8BA57D"/>
<path d="M26.2337 21.9981H25.8738V21.6604H26.2337V21.9981Z" fill="#8BA57D"/>
<path fill-rule="evenodd" clip-rule="evenodd" d="M22.2911 21.4282H22.0488V21.196H22.2984L22.2911 21.4282Z" fill="#8BA57D"/>
<path d="M26.8154 21.3228H26.56V21.0801H26.8154V21.3228Z" fill="#8BA57D"/>
<path fill-rule="evenodd" clip-rule="evenodd" d="M21.3622 21.1329H21.1069V20.9007H21.3622V21.1329Z" fill="#8BA57D"/>
<path fill-rule="evenodd" clip-rule="evenodd" d="M25.7803 20.954H25.5249V20.7218H25.7803V20.954Z" fill="#8BA57D"/>
<path d="M25.3506 19.877H25.072V19.6238H25.3506V19.877Z" fill="#8BA57D"/>
<path fill-rule="evenodd" clip-rule="evenodd" d="M22.8623 19.7823H22.5722V19.5184H22.8623V19.7823Z" fill="#8BA57D"/>
<g opacity="0.9" filter="url(#filter1_d_114_176)">
<path d="M26.0475 22.8604H25.7689V22.6019H26.0475V22.8604Z" fill="#B06F4D"/>
<path d="M26.8962 22.3838L26.6409 22.3849V22.1432H26.8962V22.3838Z" fill="#B06F4D"/>
<path d="M21.7578 21.9426H21.4439V21.6525H21.7578V21.9426ZM22.0601 20.2966H21.7112V19.9695H22.0601V20.2966Z" fill="#B06F4D"/>
<path fill-rule="evenodd" clip-rule="evenodd" d="M26.534 20.2439H26.1857V19.9274H26.534V20.2439Z" fill="#B06F4D"/>
</g>
<path fill-rule="evenodd" clip-rule="evenodd" d="M27.8962 24.224L27.9247 24.2498C27.9531 24.2756 27.9534 24.2764 27.9534 24.493C27.9534 24.7351 27.9478 24.7578 27.8811 24.7859C27.8601 24.7949 27.7723 24.8101 27.6859 24.8198C27.2963 24.8637 26.9271 24.9638 26.59 25.1171C25.8304 25.4622 25.3466 25.9659 25.3445 26.4134C25.3439 26.5448 25.3601 26.6081 25.4271 26.7351C25.473 26.8221 25.4945 26.8485 25.5916 26.9363C25.7683 27.0959 26.0458 27.251 26.3372 27.3531C26.5556 27.4296 26.5465 27.4148 26.5465 27.6902C26.5465 27.909 26.539 27.9452 26.4889 27.9696C26.4741 27.9766 26.2759 27.9804 25.9313 27.9804H25.396L25.2882 27.9282C25.1662 27.8692 25.07 27.8432 24.8605 27.8125C24.6282 27.7784 24.4775 27.7669 24.1982 27.7652L24.07 27.7651C23.4688 27.7667 23.1097 27.8188 22.8928 27.9361L22.8205 27.9752L21.7201 27.981L21.6516 27.9187V27.4618L21.6835 27.4328C21.7016 27.4163 21.7658 27.3861 21.8317 27.3629C22.1685 27.2447 22.5009 27.0499 22.6682 26.8725C22.7738 26.7606 22.8607 26.5533 22.8607 26.4134C22.8607 26.233 22.7523 26.0291 22.6013 25.925C22.4616 25.8287 22.3503 25.7905 22.0891 25.7493C21.5359 25.6619 21.1185 25.5181 20.7155 25.276C20.4196 25.0983 20.2143 24.9187 20.0458 24.6903C19.9666 24.583 19.9523 24.5462 19.9795 24.5214C19.9907 24.5118 20.2148 24.5089 20.9155 24.5089C21.4226 24.5089 21.8375 24.5052 21.8374 24.5008C21.8374 24.4964 21.8317 24.4744 21.8249 24.452C21.8149 24.4197 21.8156 24.4091 21.8278 24.4016C21.8365 24.3965 21.9472 24.3933 22.0738 24.3944C22.3297 24.3969 22.3185 24.4 22.3313 24.3232C22.3354 24.2984 22.3492 24.2659 22.3622 24.251L22.3856 24.224H27.8962Z" fill="url(#paint2_linear_114_176)"/>
<g filter="url(#filter2_f_114_176)">
<path d="M22.3251 27.6722H22.2128L22.4002 27.6323L22.999 27.1665L23.2237 27.1115L22.999 27.2135L22.4375 27.7232L22.3251 27.6722Z" fill="#8BA57D"/>
<path d="M22.55 24.6135V25.276C22.6624 24.9702 22.9993 24.8174 22.9993 24.8174L23.1678 24.7664L23.5047 24.7154L24.9649 24.5625H22.6061C22.5613 24.5625 22.55 24.5965 22.55 24.6135Z" fill="#8BA57D"/>
<path d="M25.7505 27.7234L25.1328 27.2136L25.4698 27.4174L25.8629 27.6214H26.1998L25.9191 27.6724L25.7505 27.7234Z" fill="#8BA57D"/>
<path d="M23.1913 24.6621L23.1533 24.6679L23.1454 24.6689L23.1386 24.6709L22.9706 24.7217L22.998 24.8144L22.9697 24.7207L22.9579 24.7265H22.957L22.956 24.7275C22.9551 24.7279 22.9535 24.7288 22.9521 24.7295C22.949 24.731 22.9446 24.7327 22.9394 24.7353C22.9286 24.7408 22.9137 24.7493 22.8954 24.7597C22.8589 24.7807 22.8094 24.8118 22.7558 24.8535C22.7219 24.8799 22.686 24.9113 22.6503 24.9472V24.6621H23.1913Z" stroke="#8BA57D" stroke-width="0.2"/>
</g>
<path opacity="0.75" d="M37.4794 10.8565L30.6339 16.0006L32.3453 17.7153L37.4794 10.8565ZM37.4794 37.9488L30.6339 32.8047L32.3453 31.09L37.4794 37.9488ZM10.4394 37.9488L17.285 32.8047L15.5736 31.09L10.4394 37.9488ZM10.4394 10.8565L17.285 16.0006L15.5736 17.7153L10.4394 10.8565Z" fill="#8BA57D"/>
<path d="M23.9595 47.6607L21.3924 33.943L23.9595 35.3148L26.5266 33.943L23.9595 47.6607Z" fill="#8BA57D"/>
<path d="M23.9588 47.1169L21.5291 34.1286L23.9119 35.403L23.9598 35.4284L24.0067 35.403L26.3895 34.1286L23.9588 47.1169Z" stroke="#BBC6B0" stroke-opacity="0.75" stroke-width="0.2"/>
<path d="M47.919 24.2905L34.2279 26.8625L35.597 24.2905L34.2279 21.7184L47.919 24.2905ZM0 24.2905L13.6912 21.7184L12.322 24.2905L13.6912 26.8625L0 24.2905Z" fill="#B06F4D"/>
<path d="M12.2334 24.2438L12.209 24.2907L12.2334 24.3375L13.5039 26.7252L0.541016 24.2897L13.5039 21.8551L12.2334 24.2438ZM47.377 24.2897L34.4141 26.7252L35.6855 24.3375L35.71 24.2907L35.6855 24.2438L34.4141 21.8551L47.377 24.2897Z" stroke="#E8E5E0" stroke-opacity="0.5" stroke-width="0.2"/>
<path d="M23.9595 0L26.5266 13.7176L23.9595 12.3459L21.3924 13.7176L23.9595 0Z" fill="#1C3B2A"/>
<path d="M26.3895 13.5312L24.0067 12.2578L23.9598 12.2324L23.9119 12.2578L21.5291 13.5312L23.9588 0.542969L26.3895 13.5312Z" stroke="#BBC6B0" stroke-opacity="0.5" stroke-width="0.2"/>
<defs>
<filter id="filter0_d_114_176" x="22.0951" y="19.9695" width="3.7836" height="4.47737" filterUnits="userSpaceOnUse" color-interpolation-filters="sRGB">
<feFlood flood-opacity="0" result="BackgroundImageFix"/>
<feColorMatrix in="SourceAlpha" type="matrix" values="0 0 0 0 0 0 0 0 0 0 0 0 0 0 0 0 0 0 127 0" result="hardAlpha"/>
<feOffset/>
<feGaussianBlur stdDeviation="0.25"/>
<feComposite in2="hardAlpha" operator="out"/>
<feColorMatrix type="matrix" values="0 0 0 0 1 0 0 0 0 0.834135 0 0 0 0 0.557692 0 0 0 1 0"/>
<feBlend mode="normal" in2="BackgroundImageFix" result="effect1_dropShadow_114_176"/>
<feBlend mode="normal" in="SourceGraphic" in2="effect1_dropShadow_114_176" result="shape"/>
</filter>
<filter id="filter1_d_114_176" x="21.2439" y="19.7274" width="5.85229" height="3.33299" filterUnits="userSpaceOnUse" color-interpolation-filters="sRGB">
<feFlood flood-opacity="0" result="BackgroundImageFix"/>
<feColorMatrix in="SourceAlpha" type="matrix" values="0 0 0 0 0 0 0 0 0 0 0 0 0 0 0 0 0 0 127 0" result="hardAlpha"/>
<feOffset/>
<feGaussianBlur stdDeviation="0.1"/>
<feComposite in2="hardAlpha" operator="out"/>
<feColorMatrix type="matrix" values="0 0 0 0 1 0 0 0 0 0.834135 0 0 0 0 0.557692 0 0 0 1 0"/>
<feBlend mode="normal" in2="BackgroundImageFix" result="effect1_dropShadow_114_176"/>
<feBlend mode="normal" in="SourceGraphic" in2="effect1_dropShadow_114_176" result="shape"/>
</filter>
<filter id="filter2_f_114_176" x="22.1128" y="24.4625" width="4.18701" height="3.36088" filterUnits="userSpaceOnUse" color-interpolation-filters="sRGB">
<feFlood flood-opacity="0" result="BackgroundImageFix"/>
<feBlend mode="normal" in="SourceGraphic" in2="BackgroundImageFix" result="shape"/>
<feGaussianBlur stdDeviation="0.05" result="effect1_foregroundBlur_114_176"/>
</filter>
<linearGradient id="paint0_linear_114_176" x1="23.9596" y1="16.2807" x2="23.9596" y2="31.3795" gradientUnits="userSpaceOnUse">
<stop stop-color="#8BA57D"/>
<stop offset="1" stop-color="#1C3B2A"/>
</linearGradient>
<linearGradient id="paint1_linear_114_176" x1="23.9869" y1="20.4699" x2="23.9869" y2="23.9472" gradientUnits="userSpaceOnUse">
<stop offset="0.600962" stop-color="#B06F4D"/>
<stop offset="1" stop-color="#4A2F20"/>
</linearGradient>
<linearGradient id="paint2_linear_114_176" x1="23.9601" y1="24.224" x2="23.9601" y2="27.981" gradientUnits="userSpaceOnUse">
<stop stop-color="#8BA57D"/>
<stop offset="0.043" stop-color="#1C3B2A"/>
</linearGradient>
</defs>
</svg>
