<svg width="631" height="140" viewBox="0 0 631 140" fill="none" xmlns="http://www.w3.org/2000/svg">
<g id="North Mark-Divider">
<g id="Compass">
<g id="Outer Ring">
<mask id="path-1-outside-1_0_1" maskUnits="userSpaceOnUse" x="68.0469" y="5.62939" width="59" height="60" fill="black">
<rect fill="white" x="68.0469" y="5.62939" width="59" height="60"/>
<path d="M126.014 35.4364C126.014 19.8011 113.372 7.12607 97.7779 7.12607C82.1838 7.12607 69.5422 19.8011 69.5422 35.4364C69.5422 51.0718 82.1838 63.7468 97.7779 63.7468C113.372 63.7468 126.014 51.0718 126.014 35.4364ZM126.509 35.4364C126.509 51.3461 113.646 64.2435 97.7779 64.2435C81.9102 64.2435 69.0469 51.3461 69.0469 35.4364C69.0469 19.5268 81.9102 6.62939 97.7779 6.62939C113.646 6.62939 126.509 19.5268 126.509 35.4364Z"/>
</mask>
<path d="M126.014 35.4364C126.014 19.8011 113.372 7.12607 97.7779 7.12607C82.1838 7.12607 69.5422 19.8011 69.5422 35.4364C69.5422 51.0718 82.1838 63.7468 97.7779 63.7468C113.372 63.7468 126.014 51.0718 126.014 35.4364ZM126.509 35.4364C126.509 51.3461 113.646 64.2435 97.7779 64.2435C81.9102 64.2435 69.0469 51.3461 69.0469 35.4364C69.0469 19.5268 81.9102 6.62939 97.7779 6.62939C113.646 6.62939 126.509 19.5268 126.509 35.4364Z" fill="#8BA57D"/>
<path d="M126.014 35.4364C126.014 19.8011 113.372 7.12607 97.7779 7.12607C82.1838 7.12607 69.5422 19.8011 69.5422 35.4364C69.5422 51.0718 82.1838 63.7468 97.7779 63.7468C113.372 63.7468 126.014 51.0718 126.014 35.4364ZM126.509 35.4364C126.509 51.3461 113.646 64.2435 97.7779 64.2435C81.9102 64.2435 69.0469 51.3461 69.0469 35.4364C69.0469 19.5268 81.9102 6.62939 97.7779 6.62939C113.646 6.62939 126.509 19.5268 126.509 35.4364Z" stroke="#8BA57D" mask="url(#path-1-outside-1_0_1)"/>
</g>
<g id="Vector">
<path d="M97.7786 44.4462C103.25 44.4462 107.686 39.9989 107.686 34.5128C107.686 29.0267 103.25 24.5793 97.7786 24.5793C92.3069 24.5793 87.8713 29.0267 87.8713 34.5128C87.8713 39.9989 92.3069 44.4462 97.7786 44.4462Z" fill="url(#paint0_linear_0_1)"/>
<path d="M107.686 34.5128C107.686 29.0267 103.25 24.5793 97.7786 24.5793C92.3069 24.5793 87.8713 29.0267 87.8713 34.5128L87.884 35.0234C88.1406 40.1029 92.2029 44.1752 97.2689 44.4326L97.7786 44.4462C103.079 44.4462 107.408 40.2721 107.673 35.0234L107.686 34.5128ZM108.693 34.5127C108.693 40.5422 103.815 45.4463 97.7781 45.4463C91.7419 45.4461 86.8646 40.5421 86.8645 34.5127C86.8645 28.4833 91.7418 23.5793 97.7781 23.5791C103.815 23.5791 108.693 28.4831 108.693 34.5127Z" fill="#1C3B2A"/>
</g>
<g id="Vector_2" filter="url(#filter0_d_0_1)">
<path d="M98.2415 29.6456C98.2435 29.6476 98.2311 29.6969 98.2141 29.7555C98.1697 29.9075 98.1581 30.2252 98.1921 30.3561C98.2489 30.575 98.3318 30.6743 98.8026 31.0891C99.271 31.5015 99.4385 31.6867 99.5971 31.9675C99.7741 32.2809 99.8326 32.5014 99.8323 32.8537C99.8319 33.1183 99.8131 33.2286 99.7284 33.4608C99.5346 33.9921 99.0758 34.4204 98.5197 34.5898C98.2981 34.6572 98.1181 34.681 97.8267 34.6817C97.55 34.6825 97.4109 34.664 97.1877 34.5961C96.5432 34.4005 96.0082 33.9009 95.8405 33.338C95.7914 33.1733 95.7914 32.835 95.8406 32.6695C95.91 32.4359 96.0997 32.1597 96.2633 32.0539L96.3058 32.0265L96.2995 32.1579C96.2894 32.367 96.3619 32.5443 96.5213 32.7008C96.6321 32.8094 96.7387 32.8622 96.8667 32.8715C96.9966 32.8811 97.0582 32.869 97.1434 32.8178C97.1946 32.787 97.2232 32.7559 97.2471 32.7056C97.3264 32.5382 97.266 32.3246 97.0539 32.0241C96.8702 31.7639 96.8101 31.5967 96.8097 31.3435C96.8089 30.9255 96.9983 30.557 97.4056 30.1826C97.6327 29.974 97.865 29.8151 98.1054 29.7037C98.1779 29.6701 98.2389 29.6441 98.2415 29.6456Z" fill="url(#paint1_linear_0_1)"/>
</g>
<g id="Vector_3">
<path fill-rule="evenodd" clip-rule="evenodd" d="M95.0795 33.3866L94.6931 33.396L94.6932 33.0522H95.0795V33.3866Z" fill="#8BA57D"/>
<path d="M101.07 31.8593H100.549V31.3703H101.07V31.8593Z" fill="#8BA57D"/>
<path fill-rule="evenodd" clip-rule="evenodd" d="M95.3638 31.034H95.0131V30.6977H95.3743L95.3638 31.034Z" fill="#8BA57D"/>
<path d="M101.912 30.8813H101.542V30.5298H101.912V30.8813Z" fill="#8BA57D"/>
<path fill-rule="evenodd" clip-rule="evenodd" d="M94.0195 30.6063H93.6499V30.27H94.0195V30.6063Z" fill="#8BA57D"/>
<path fill-rule="evenodd" clip-rule="evenodd" d="M100.414 30.3472H100.044V30.0109H100.414V30.3472Z" fill="#8BA57D"/>
<path d="M99.7916 28.7873H99.3884V28.4206H99.7916V28.7873Z" fill="#8BA57D"/>
<path fill-rule="evenodd" clip-rule="evenodd" d="M96.1904 28.6502H95.7706V28.2681H96.1904V28.6502Z" fill="#8BA57D"/>
</g>
<g id="Vector_4" opacity="0.9" filter="url(#filter1_d_0_1)">
<path d="M100.8 33.1081H100.397V32.7338H100.8V33.1081Z" fill="#B06F4D"/>
<path d="M102.029 32.418L101.659 32.4195V32.0695H102.029V32.418Z" fill="#B06F4D"/>
<path d="M94.5919 31.779H94.1377V31.3588H94.5919V31.779ZM95.0295 29.3951H94.5246V28.9213H95.0295V29.3951Z" fill="#B06F4D"/>
<path fill-rule="evenodd" clip-rule="evenodd" d="M101.504 29.3188H101V28.8604H101.504V29.3188Z" fill="#B06F4D"/>
</g>
<path id="Vector_5" fill-rule="evenodd" clip-rule="evenodd" d="M103.476 35.083L103.517 35.1204C103.558 35.1578 103.558 35.159 103.558 35.4726C103.558 35.8232 103.55 35.8562 103.454 35.8969C103.424 35.9098 103.296 35.9318 103.171 35.9459C102.608 36.0095 102.073 36.1545 101.585 36.3765C100.486 36.8763 99.7858 37.6058 99.7828 38.2539C99.782 38.4442 99.8054 38.5359 99.9024 38.7198C99.9687 38.8458 100 38.884 100.14 39.0112C100.396 39.2423 100.798 39.467 101.22 39.6148C101.536 39.7256 101.522 39.7042 101.522 40.103C101.522 40.4199 101.511 40.4724 101.439 40.5077C101.418 40.5178 101.131 40.5234 100.632 40.5234H99.8573L99.7012 40.4477C99.5247 40.3623 99.3855 40.3246 99.0824 40.2802C98.7462 40.2309 98.5281 40.2141 98.1238 40.2117L97.9383 40.2115C97.0682 40.2138 96.5484 40.2893 96.2345 40.4592L96.13 40.5158L94.5374 40.5242L94.4382 40.434V39.7723L94.4844 39.7302C94.5107 39.7064 94.6035 39.6627 94.6989 39.6291C95.1863 39.4579 95.6673 39.1758 95.9096 38.9188C96.0623 38.7567 96.1881 38.4566 96.1881 38.2539C96.1881 37.9927 96.0313 37.6973 95.8127 37.5465C95.6105 37.4071 95.4494 37.3518 95.0714 37.292C94.2708 37.1656 93.6667 36.9573 93.0835 36.6066C92.6552 36.3492 92.3582 36.0891 92.1143 35.7583C91.9997 35.603 91.9789 35.5497 92.0183 35.5138C92.0345 35.4999 92.3588 35.4956 93.373 35.4956C94.1068 35.4956 94.7073 35.4903 94.7072 35.484C94.7072 35.4775 94.6989 35.4457 94.689 35.4133C94.6746 35.3664 94.6756 35.351 94.6933 35.3403C94.7058 35.3328 94.866 35.3282 95.0493 35.3299C95.4197 35.3335 95.4035 35.338 95.422 35.2267C95.4279 35.1908 95.4479 35.1438 95.4667 35.1221L95.5006 35.083H103.476Z" fill="url(#paint2_linear_0_1)"/>
<g id="Vector_6" filter="url(#filter2_f_0_1)">
<mask id="path-7-inside-2_0_1" fill="white">
<path d="M95.413 40.077H95.2505L95.5216 40.0192L96.3883 39.3446L96.7135 39.2649L96.3883 39.4126L95.5756 40.1508L95.413 40.077Z"/>
<path d="M95.7385 35.6471V36.6067C95.9011 36.1638 96.3887 35.9424 96.3887 35.9424L96.6326 35.8686L97.1202 35.7948L99.2334 35.5732H95.8197C95.7548 35.5732 95.7385 35.6226 95.7385 35.6471Z"/>
<path d="M100.37 40.1511L99.4765 39.4128L99.9641 39.708L100.533 40.0034H101.021L100.614 40.0772L100.37 40.1511Z"/>
</mask>
<path d="M95.413 40.077H95.2505L95.5216 40.0192L96.3883 39.3446L96.7135 39.2649L96.3883 39.4126L95.5756 40.1508L95.413 40.077Z" fill="#8BA57D"/>
<path d="M95.7385 35.6471V36.6067C95.9011 36.1638 96.3887 35.9424 96.3887 35.9424L96.6326 35.8686L97.1202 35.7948L99.2334 35.5732H95.8197C95.7548 35.5732 95.7385 35.6226 95.7385 35.6471Z" fill="#8BA57D"/>
<path d="M100.37 40.1511L99.4765 39.4128L99.9641 39.708L100.533 40.0034H101.021L100.614 40.0772L100.37 40.1511Z" fill="#8BA57D"/>
<path d="M95.413 40.077H95.2505L95.5216 40.0192L96.3883 39.3446L96.7135 39.2649L96.3883 39.4126L95.5756 40.1508L95.413 40.077Z" stroke="#8BA57D" stroke-width="0.4" mask="url(#path-7-inside-2_0_1)"/>
<path d="M95.7385 35.6471V36.6067C95.9011 36.1638 96.3887 35.9424 96.3887 35.9424L96.6326 35.8686L97.1202 35.7948L99.2334 35.5732H95.8197C95.7548 35.5732 95.7385 35.6226 95.7385 35.6471Z" stroke="#8BA57D" stroke-width="0.4" mask="url(#path-7-inside-2_0_1)"/>
<path d="M100.37 40.1511L99.4765 39.4128L99.9641 39.708L100.533 40.0034H101.021L100.614 40.0772L100.37 40.1511Z" stroke="#8BA57D" stroke-width="0.4" mask="url(#path-7-inside-2_0_1)"/>
</g>
<path id="Vector_7" opacity="0.75" d="M117.345 15.7231L107.438 23.1732L109.915 25.6566L117.345 15.7231ZM117.345 54.9603L107.438 47.5102L109.915 45.0269L117.345 54.9603ZM78.2114 54.9603L88.1187 47.5102L85.6419 45.0269L78.2114 54.9603ZM78.2114 15.7231L88.1187 23.1732L85.6419 25.6566L78.2114 15.7231Z" fill="#8BA57D"/>
<g id="Vector_8">
<mask id="path-9-inside-3_0_1" fill="white">
<path d="M97.7785 69.0256L94.0632 49.1587L97.7785 51.1454L101.494 49.1587L97.7785 69.0256Z"/>
</mask>
<path d="M97.7785 69.0256L94.0632 49.1587L97.7785 51.1454L101.494 49.1587L97.7785 69.0256Z" fill="#8BA57D" stroke="#BBC6B0" stroke-opacity="0.75" stroke-width="0.4" mask="url(#path-9-inside-3_0_1)"/>
</g>
<g id="Vector_9">
<mask id="path-10-inside-4_0_1" fill="white">
<path d="M132.454 35.1792L112.639 38.9042L114.621 35.1792L112.639 31.4541L132.454 35.1792ZM63.103 35.1792L82.9175 31.4541L80.9361 35.1792L82.9175 38.9042L63.103 35.1792Z"/>
</mask>
<path d="M132.454 35.1792L112.639 38.9042L114.621 35.1792L112.639 31.4541L132.454 35.1792ZM63.103 35.1792L82.9175 31.4541L80.9361 35.1792L82.9175 38.9042L63.103 35.1792Z" fill="#B06F4D" stroke="#E8E5E0" stroke-opacity="0.5" stroke-width="0.4" mask="url(#path-10-inside-4_0_1)"/>
</g>
<g id="North Pointer">
<mask id="path-11-inside-5_0_1" fill="white">
<path d="M97.7785 0L101.494 19.8669L97.7785 17.8802L94.0632 19.8669L97.7785 0Z"/>
</mask>
<path d="M97.7785 0L101.494 19.8669L97.7785 17.8802L94.0632 19.8669L97.7785 0Z" fill="#1C3B2A" stroke="#BBC6B0" stroke-opacity="0.5" stroke-width="0.4" mask="url(#path-11-inside-5_0_1)"/>
</g>
</g>
<g id="Vector_10">
<path d="M0 62.5759V6.24658H10.6663L43.541 46.8037H38.367V6.24658H51.1029V62.5759H40.5162L7.56195 22.0188H12.7359V62.5759H0Z" fill="url(#paint3_linear_0_1)"/>
<path d="M144.454 62.5759V6.24658H168.573C173.561 6.24658 177.859 7.0781 181.468 8.74116C185.076 10.3506 187.862 12.6843 189.826 15.7421C191.789 18.8 192.771 22.448 192.771 26.6861C192.771 30.8706 191.789 34.4917 189.826 37.5496C187.862 40.5538 185.076 42.8607 181.468 44.4701C177.859 46.0795 173.561 46.8842 168.573 46.8842H151.618L157.349 41.1708V62.5759H144.454ZM179.876 62.5759L165.946 42.1364H179.716L193.806 62.5759H179.876ZM157.349 42.6192L151.618 36.5035H167.856C171.836 36.5035 174.808 35.6451 176.771 33.9284C178.735 32.1581 179.716 29.744 179.716 26.6861C179.716 23.5746 178.735 21.1605 176.771 19.4438C174.808 17.7271 171.836 16.8687 167.856 16.8687H151.618L157.349 10.6725V42.6192Z" fill="url(#paint4_linear_0_1)"/>
<path d="M223.636 62.5759V16.8687H205.806V6.24658H254.361V16.8687H236.531V62.5759H223.636Z" fill="url(#paint5_linear_0_1)"/>
<path d="M304.569 6.24658H317.464V62.5759H304.569V6.24658ZM279.256 62.5759H266.361V6.24658H279.256V62.5759ZM305.524 39.4809H278.301V28.4564H305.524V39.4809Z" fill="url(#paint6_linear_0_1)"/>
<path d="M352.15 63.5414C347.693 63.5414 343.421 62.9513 339.335 61.771C335.249 60.5372 331.958 58.9545 329.464 57.0232L333.842 47.2058C336.23 48.9225 339.043 50.3442 342.28 51.4708C345.57 52.5437 348.887 53.0802 352.23 53.0802C354.777 53.0802 356.82 52.8388 358.359 52.356C359.951 51.8195 361.118 51.0952 361.861 50.1832C362.604 49.2712 362.976 48.2251 362.976 47.0449C362.976 45.5428 362.392 44.3625 361.225 43.5042C360.057 42.5922 358.518 41.868 356.608 41.3315C354.511 40.6942 352.386 40.1571 350.24 39.7221C347.907 39.1714 345.597 38.5271 343.315 37.7908C341.114 37.0771 339.003 36.1048 337.026 34.8939C335.126 33.7241 333.519 32.1269 332.33 30.2266C331.162 28.2953 330.579 25.8275 330.579 22.8233C330.579 19.6045 331.428 16.6807 333.126 14.052C334.877 11.3697 337.477 9.25061 340.927 7.69485C344.429 6.08544 348.807 5.28076 354.061 5.28076C357.563 5.28076 361.012 5.70991 364.409 6.56826C367.805 7.37297 370.803 8.60686 373.403 10.2699L369.423 20.1678C366.823 18.6657 364.223 17.5659 361.623 16.8685C359.14 16.1346 356.568 15.7554 353.981 15.7419C351.487 15.7419 349.444 16.037 347.852 16.6271C346.26 17.2172 345.119 17.9951 344.429 18.9607C343.739 19.8727 343.394 20.9457 343.394 22.1796C343.394 23.628 343.978 24.8082 345.145 25.7202C346.313 26.5786 347.852 27.276 349.762 27.8125C351.673 28.3489 353.769 28.8854 356.051 29.4219C358.385 29.9583 360.694 30.5753 362.976 31.2727C365.311 31.9701 367.433 32.909 369.344 34.0892C371.232 35.2468 372.815 36.8478 373.96 38.7564C375.181 40.6877 375.791 43.1287 375.791 46.0792C375.811 49.1789 374.895 52.2109 373.164 54.7701C371.413 57.3988 368.787 59.5178 365.284 61.1272C361.835 62.7366 357.457 63.5414 352.15 63.5414Z" fill="url(#paint7_linear_0_1)"/>
<path d="M417.96 63.5414C413.661 63.5414 409.655 62.8439 405.94 61.4491C402.279 60.0007 399.095 57.9621 396.388 55.3334C393.682 52.7043 391.517 49.559 390.02 46.0792C388.534 42.5385 387.792 38.6491 387.792 34.411C387.792 30.1729 388.534 26.2835 390.02 22.7428C391.517 19.263 393.682 16.1178 396.388 13.4887C399.168 10.8472 402.443 8.79511 406.02 7.45343C409.681 6.00496 413.688 5.28076 418.039 5.28076C422.868 5.28076 427.22 6.13906 431.094 7.85577C434.94 9.45834 438.332 12.0024 440.964 15.2591L432.686 22.9842C430.775 20.7847 428.653 19.1485 426.318 18.0756C423.983 16.949 421.436 16.3857 418.676 16.3857C416.076 16.3857 413.688 16.8148 411.512 17.6732C409.393 18.4943 407.468 19.7553 405.861 21.3748C404.252 23.0101 402.98 24.9521 402.119 27.0882C401.27 29.2877 400.846 31.7287 400.846 34.411C400.846 37.0934 401.27 39.5343 402.119 41.7338C402.98 43.8699 404.252 45.812 405.861 47.4472C407.468 49.0667 409.393 50.3277 411.512 51.1489C413.688 52.0073 416.076 52.4364 418.676 52.4364C421.436 52.4364 423.983 51.8999 426.318 50.827C428.653 49.7004 430.775 48.0106 432.686 45.7574L440.964 53.4826C438.321 56.7473 434.934 59.3153 431.094 60.9663C427.22 62.683 422.842 63.5414 417.96 63.5414Z" fill="url(#paint8_linear_0_1)"/>
<path d="M452.964 62.5759L477.799 6.24658H490.535L515.45 62.5759H501.918L481.54 12.8452H486.634L466.177 62.5759H452.964ZM465.381 50.5054L468.804 40.6075H497.46L500.962 50.5054H465.381Z" fill="url(#paint9_linear_0_1)"/>
<path d="M527.449 62.5759V6.24658H551.568C556.556 6.24658 560.855 7.0781 564.463 8.74116C568.072 10.3506 570.858 12.6843 572.821 15.7421C574.785 18.8 575.766 22.448 575.766 26.6861C575.766 30.8706 574.785 34.4917 572.821 37.5496C570.858 40.6075 568.072 42.9679 564.463 44.631C560.855 46.2404 556.556 47.0451 551.568 47.0451H534.613L540.345 41.1708V62.5759H527.449ZM540.345 42.6192L534.613 36.423H550.852C554.832 36.423 557.803 35.5647 559.767 33.848C561.73 32.1313 562.712 29.744 562.712 26.6861C562.712 23.5746 561.73 21.1605 559.767 19.4438C557.803 17.7271 554.832 16.8687 550.852 16.8687H534.613L540.345 10.6725V42.6192Z" fill="url(#paint10_linear_0_1)"/>
<path d="M599.627 28.9393H626.452V39.0786H599.627V28.9393ZM600.582 52.1148H630.909V62.5759H587.766V6.24658H629.874V16.7078H600.582V52.1148Z" fill="url(#paint11_linear_0_1)"/>
</g>
<g id="Vector_11">
<path d="M125.687 107.951H151.865V118.413H125.687V107.951ZM126.622 138.933H114V82.6025H155.215V93.064H126.622V138.933Z" fill="url(#paint12_linear_0_1)"/>
<path d="M197.132 138.933C192.821 138.933 188.822 138.233 185.134 136.833C181.498 135.432 178.33 133.461 175.629 130.919C172.98 128.378 170.861 125.336 169.396 121.972C167.942 118.548 167.215 114.814 167.215 110.768C167.215 106.722 167.942 102.987 169.396 99.564C170.871 96.1853 173.018 93.1411 175.707 90.6164C178.408 88.0748 181.576 86.1037 185.212 84.7032C188.848 83.3028 192.795 82.6025 197.054 82.6025C201.365 82.6025 205.313 83.3028 208.897 84.7032C212.533 86.1037 215.675 88.0748 218.324 90.6164C221.013 93.1411 223.16 96.1853 224.635 99.564C226.141 102.936 226.894 106.67 226.894 110.768C226.894 114.814 226.141 118.574 224.635 122.05C223.16 125.428 221.013 128.473 218.324 130.997C215.675 133.487 212.533 135.432 208.897 136.833C205.313 138.233 201.391 138.933 197.132 138.933ZM197.054 128.196C199.496 128.196 201.729 127.781 203.755 126.951C205.832 126.121 207.65 124.928 209.208 123.372C210.776 121.801 211.997 119.919 212.792 117.848C213.675 115.722 214.117 113.362 214.117 110.768C214.117 108.175 213.675 105.814 212.792 103.688C211.997 101.617 210.776 99.7346 209.208 98.1635C207.693 96.6011 205.86 95.3807 203.833 94.5845C201.755 93.7545 199.496 93.3396 197.054 93.3396C194.613 93.3396 192.354 93.7545 190.276 94.5845C188.262 95.4063 186.434 96.6234 184.9 98.1635C183.325 99.7446 182.081 101.622 181.239 103.688C180.407 105.814 179.992 108.175 179.992 110.768C179.992 113.31 180.407 115.67 181.239 117.848C182.121 119.975 183.316 121.816 184.822 123.372C186.381 124.928 188.199 126.121 190.276 126.951C192.354 127.781 194.613 128.196 197.054 128.196Z" fill="url(#paint13_linear_0_1)"/>
<path d="M263.592 138.933C255.853 138.933 249.802 136.744 245.439 132.367C241.076 127.989 238.894 121.739 238.894 113.616V82.6025H251.516V113.141C251.516 118.416 252.58 122.213 254.71 124.534C256.839 126.855 259.826 128.015 263.67 128.015C267.513 128.015 270.5 126.855 272.629 124.534C274.759 122.213 275.824 118.416 275.824 113.141V82.6025H288.289V113.616C288.289 121.739 286.108 127.989 281.745 132.367C277.382 136.744 271.331 138.933 263.592 138.933Z" fill="url(#paint14_linear_0_1)"/>
<path d="M300.289 138.933V82.6025H310.729L342.906 123.161H337.842V82.6025H350.308V138.933H339.946L307.691 98.3752H312.755V138.933H300.289Z" fill="url(#paint15_linear_0_1)"/>
<path d="M362.308 138.933V82.6025H387.083C393.005 82.6025 398.225 83.7828 402.743 86.1434C407.262 88.4502 410.794 91.696 413.339 95.8805C415.884 100.065 417.157 105.028 417.157 110.768C417.157 116.455 415.884 121.417 413.339 125.655C410.794 129.84 407.262 133.113 402.743 135.473C398.225 137.78 393.005 138.933 387.083 138.933H362.308ZM374.929 128.23H386.46C390.096 128.23 393.238 127.533 395.887 126.138C398.588 124.69 400.666 122.651 402.12 120.022C403.626 117.394 404.38 114.309 404.38 110.768C404.38 107.174 403.626 104.089 402.12 101.514C400.666 98.8849 398.588 96.873 395.887 95.4782C393.238 94.0297 390.096 93.3055 386.46 93.3055H374.929V128.23Z" fill="url(#paint16_linear_0_1)"/>
<path d="M429.157 138.933V82.6025H452.764C457.646 82.6025 461.853 83.4341 465.385 85.0972C468.917 86.7066 471.644 89.0404 473.566 92.0983C475.488 95.1563 476.449 98.8043 476.449 103.043C476.449 107.227 475.488 110.848 473.566 113.906C471.644 116.911 468.917 119.218 465.385 120.827C461.853 122.437 457.646 123.241 452.764 123.241H436.169L441.779 117.528V138.933H429.157ZM463.827 138.933L450.193 118.493H463.671L477.462 138.933H463.827ZM441.779 118.976L436.169 112.86H452.063C455.958 112.86 458.867 112.002 460.789 110.285C462.71 108.515 463.671 106.101 463.671 103.043C463.671 99.9309 462.71 97.5168 460.789 95.8C458.867 94.0833 455.958 93.225 452.063 93.225H436.169L441.779 87.0286V118.976Z" fill="url(#paint17_linear_0_1)"/>
<path d="M501.114 138.933V115.918L503.996 123.805L480 82.6025H493.401L511.788 114.228H504.074L522.539 82.6025H534.927L510.931 123.805L513.735 115.918V138.933H501.114Z" fill="url(#paint18_linear_0_1)"/>
</g>
<path id="Line 1 (Stroke)" d="M631 105.268L631 115.268L551 115.268L551 105.268L631 105.268Z" fill="#B06F4D"/>
<path id="Line 2 (Stroke)" d="M80 107.268L80 117.268L-8.74227e-07 117.268L0 107.268L80 107.268Z" fill="#B06F4D"/>
</g>
<defs>
<filter id="filter0_d_0_1" x="95.3037" y="29.1455" width="5.02856" height="6.03613" filterUnits="userSpaceOnUse" color-interpolation-filters="sRGB">
<feFlood flood-opacity="0" result="BackgroundImageFix"/>
<feColorMatrix in="SourceAlpha" type="matrix" values="0 0 0 0 0 0 0 0 0 0 0 0 0 0 0 0 0 0 127 0" result="hardAlpha"/>
<feOffset/>
<feGaussianBlur stdDeviation="0.25"/>
<feComposite in2="hardAlpha" operator="out"/>
<feColorMatrix type="matrix" values="0 0 0 0 1 0 0 0 0 0.834135 0 0 0 0 0.557692 0 0 0 1 0"/>
<feBlend mode="normal" in2="BackgroundImageFix" result="effect1_dropShadow_0_1"/>
<feBlend mode="normal" in="SourceGraphic" in2="effect1_dropShadow_0_1" result="shape"/>
</filter>
<filter id="filter1_d_0_1" x="93.9377" y="28.6604" width="8.29087" height="4.64756" filterUnits="userSpaceOnUse" color-interpolation-filters="sRGB">
<feFlood flood-opacity="0" result="BackgroundImageFix"/>
<feColorMatrix in="SourceAlpha" type="matrix" values="0 0 0 0 0 0 0 0 0 0 0 0 0 0 0 0 0 0 127 0" result="hardAlpha"/>
<feOffset/>
<feGaussianBlur stdDeviation="0.1"/>
<feComposite in2="hardAlpha" operator="out"/>
<feColorMatrix type="matrix" values="0 0 0 0 1 0 0 0 0 0.834135 0 0 0 0 0.557692 0 0 0 1 0"/>
<feBlend mode="normal" in2="BackgroundImageFix" result="effect1_dropShadow_0_1"/>
<feBlend mode="normal" in="SourceGraphic" in2="effect1_dropShadow_0_1" result="shape"/>
</filter>
<filter id="filter2_f_0_1" x="95.1505" y="35.4732" width="5.97026" height="4.77764" filterUnits="userSpaceOnUse" color-interpolation-filters="sRGB">
<feFlood flood-opacity="0" result="BackgroundImageFix"/>
<feBlend mode="normal" in="SourceGraphic" in2="BackgroundImageFix" result="shape"/>
<feGaussianBlur stdDeviation="0.05" result="effect1_foregroundBlur_0_1"/>
</filter>
<linearGradient id="paint0_linear_0_1" x1="97.7786" y1="23.5791" x2="97.7786" y2="45.4463" gradientUnits="userSpaceOnUse">
<stop stop-color="#8BA57D"/>
<stop offset="1" stop-color="#1C3B2A"/>
</linearGradient>
<linearGradient id="paint1_linear_0_1" x1="97.818" y1="29.646" x2="97.818" y2="34.6822" gradientUnits="userSpaceOnUse">
<stop offset="0.600962" stop-color="#B06F4D"/>
<stop offset="1" stop-color="#4A2F20"/>
</linearGradient>
<linearGradient id="paint2_linear_0_1" x1="97.7792" y1="35.083" x2="97.7792" y2="40.5242" gradientUnits="userSpaceOnUse">
<stop stop-color="#8BA57D"/>
<stop offset="0.043" stop-color="#1C3B2A"/>
</linearGradient>
<linearGradient id="paint3_linear_0_1" x1="609.338" y1="6.24658" x2="609.338" y2="62.5759" gradientUnits="userSpaceOnUse">
<stop offset="0.197115" stop-color="#8BA57D"/>
<stop offset="0.951923" stop-color="#1C3B2A"/>
</linearGradient>
<linearGradient id="paint4_linear_0_1" x1="609.338" y1="6.24658" x2="609.338" y2="62.5759" gradientUnits="userSpaceOnUse">
<stop offset="0.197115" stop-color="#8BA57D"/>
<stop offset="0.951923" stop-color="#1C3B2A"/>
</linearGradient>
<linearGradient id="paint5_linear_0_1" x1="609.338" y1="6.24658" x2="609.338" y2="62.5759" gradientUnits="userSpaceOnUse">
<stop offset="0.197115" stop-color="#8BA57D"/>
<stop offset="0.951923" stop-color="#1C3B2A"/>
</linearGradient>
<linearGradient id="paint6_linear_0_1" x1="609.338" y1="6.24658" x2="609.338" y2="62.5759" gradientUnits="userSpaceOnUse">
<stop offset="0.197115" stop-color="#8BA57D"/>
<stop offset="0.951923" stop-color="#1C3B2A"/>
</linearGradient>
<linearGradient id="paint7_linear_0_1" x1="609.338" y1="6.24658" x2="609.338" y2="62.5759" gradientUnits="userSpaceOnUse">
<stop offset="0.197115" stop-color="#8BA57D"/>
<stop offset="0.951923" stop-color="#1C3B2A"/>
</linearGradient>
<linearGradient id="paint8_linear_0_1" x1="609.338" y1="6.24658" x2="609.338" y2="62.5759" gradientUnits="userSpaceOnUse">
<stop offset="0.197115" stop-color="#8BA57D"/>
<stop offset="0.951923" stop-color="#1C3B2A"/>
</linearGradient>
<linearGradient id="paint9_linear_0_1" x1="609.338" y1="6.24658" x2="609.338" y2="62.5759" gradientUnits="userSpaceOnUse">
<stop offset="0.197115" stop-color="#8BA57D"/>
<stop offset="0.951923" stop-color="#1C3B2A"/>
</linearGradient>
<linearGradient id="paint10_linear_0_1" x1="609.338" y1="6.24658" x2="609.338" y2="62.5759" gradientUnits="userSpaceOnUse">
<stop offset="0.197115" stop-color="#8BA57D"/>
<stop offset="0.951923" stop-color="#1C3B2A"/>
</linearGradient>
<linearGradient id="paint11_linear_0_1" x1="609.338" y1="6.24658" x2="609.338" y2="62.5759" gradientUnits="userSpaceOnUse">
<stop offset="0.197115" stop-color="#8BA57D"/>
<stop offset="0.951923" stop-color="#1C3B2A"/>
</linearGradient>
<linearGradient id="paint12_linear_0_1" x1="364.454" y1="60.6961" x2="364.454" y2="159.052" gradientUnits="userSpaceOnUse">
<stop offset="0.201923" stop-color="#B06F4D"/>
<stop offset="0.899038" stop-color="#4A2F20"/>
</linearGradient>
<linearGradient id="paint13_linear_0_1" x1="364.454" y1="60.6961" x2="364.454" y2="159.052" gradientUnits="userSpaceOnUse">
<stop offset="0.201923" stop-color="#B06F4D"/>
<stop offset="0.899038" stop-color="#4A2F20"/>
</linearGradient>
<linearGradient id="paint14_linear_0_1" x1="364.454" y1="60.6961" x2="364.454" y2="159.052" gradientUnits="userSpaceOnUse">
<stop offset="0.201923" stop-color="#B06F4D"/>
<stop offset="0.899038" stop-color="#4A2F20"/>
</linearGradient>
<linearGradient id="paint15_linear_0_1" x1="364.454" y1="60.6961" x2="364.454" y2="159.052" gradientUnits="userSpaceOnUse">
<stop offset="0.201923" stop-color="#B06F4D"/>
<stop offset="0.899038" stop-color="#4A2F20"/>
</linearGradient>
<linearGradient id="paint16_linear_0_1" x1="364.454" y1="60.6961" x2="364.454" y2="159.052" gradientUnits="userSpaceOnUse">
<stop offset="0.201923" stop-color="#B06F4D"/>
<stop offset="0.899038" stop-color="#4A2F20"/>
</linearGradient>
<linearGradient id="paint17_linear_0_1" x1="364.454" y1="60.6961" x2="364.454" y2="159.052" gradientUnits="userSpaceOnUse">
<stop offset="0.201923" stop-color="#B06F4D"/>
<stop offset="0.899038" stop-color="#4A2F20"/>
</linearGradient>
<linearGradient id="paint18_linear_0_1" x1="364.454" y1="60.6961" x2="364.454" y2="159.052" gradientUnits="userSpaceOnUse">
<stop offset="0.201923" stop-color="#B06F4D"/>
<stop offset="0.899038" stop-color="#4A2F20"/>
</linearGradient>
</defs>
</svg>
