<svg width="436" height="92" viewBox="0 0 436 92" fill="none" xmlns="http://www.w3.org/2000/svg">
<rect width="436" height="92" fill="#1E1E1E"/>
<g id="North-Mark-source">
<g id="North-Mark-source_2">
<g id="Vector">
<path d="M80.1459 70.2856H98.234V77.5089H80.1459V70.2856ZM80.7919 91.6778H72.0708V52.7827H100.549V60.0061H80.7919V91.6778Z" fill="url(#paint0_linear_0_1)"/>
<path d="M129.512 91.6778C126.534 91.6778 123.77 91.1944 121.222 90.2274C118.71 89.2603 116.521 87.8993 114.654 86.1444C112.824 84.3892 111.36 82.2894 110.348 79.9663C109.343 77.6025 108.84 75.0239 108.84 72.2303C108.84 69.4367 109.343 66.858 110.348 64.4942C111.367 62.1613 112.85 60.0593 114.708 58.3161C116.574 56.5612 118.764 55.2002 121.276 54.2332C123.788 53.2662 126.516 52.7827 129.459 52.7827C132.437 52.7827 135.165 53.2662 137.641 54.2332C140.154 55.2002 142.325 56.5612 144.155 58.3161C146.013 60.0593 147.497 62.1613 148.516 64.4942C149.556 66.8222 150.077 69.4009 150.077 72.2303C150.077 75.0239 149.556 77.6204 148.516 80.02C147.497 82.353 146.013 84.4549 144.155 86.1981C142.325 87.9173 140.154 89.2603 137.641 90.2274C135.165 91.1944 132.455 91.6778 129.512 91.6778ZM129.459 84.2641C131.145 84.2641 132.689 83.9776 134.088 83.4046C135.524 82.8315 136.78 82.0078 137.857 80.9333C138.94 79.8485 139.784 78.5492 140.333 77.1191C140.943 75.6506 141.248 74.0211 141.248 72.2303C141.248 70.4395 140.943 68.81 140.333 67.3415C139.784 65.9114 138.94 64.612 137.857 63.5272C136.809 62.4484 135.543 61.6058 134.142 61.056C132.707 60.4829 131.145 60.1964 129.459 60.1964C127.772 60.1964 126.211 60.4829 124.775 61.056C123.384 61.6234 122.121 62.4638 121.061 63.5272C119.972 64.6189 119.112 65.9155 118.53 67.3415C117.956 68.81 117.669 70.4395 117.669 72.2303C117.669 73.9852 117.956 75.6148 118.53 77.1191C119.14 78.5875 119.966 79.8589 121.007 80.9333C122.083 82.0078 123.34 82.8315 124.775 83.4046C126.211 83.9776 127.772 84.2641 129.459 84.2641Z" fill="url(#paint1_linear_0_1)"/>
<path d="M175.434 91.6778C170.086 91.6778 165.905 90.1664 162.89 87.1437C159.876 84.1209 158.368 79.8053 158.368 74.1969V52.7827H167.089V73.8691C167.089 77.511 167.825 80.1331 169.297 81.7355C170.768 83.338 172.832 84.1392 175.488 84.1392C178.143 84.1392 180.207 83.338 181.678 81.7355C183.15 80.1331 183.886 77.511 183.886 73.8691V52.7827H192.499V74.1969C192.499 79.8053 190.992 84.1209 187.977 87.1437C184.962 90.1664 180.781 91.6778 175.434 91.6778Z" fill="url(#paint2_linear_0_1)"/>
<path d="M200.791 91.6778V52.7827H208.004L230.238 80.7872H226.738V52.7827H235.352V91.6778H228.192L205.905 63.6734H209.404V91.6778H200.791Z" fill="url(#paint3_linear_0_1)"/>
<path d="M243.643 91.6778V52.7827H260.762C264.854 52.7827 268.461 53.5977 271.583 55.2276C274.705 56.8204 277.146 59.0615 278.904 61.9509C280.663 64.8402 281.542 68.2667 281.542 72.2303C281.542 76.1569 280.663 79.5833 278.904 82.5097C277.146 85.3991 274.705 87.6587 271.583 89.2886C268.461 90.8815 264.854 91.6778 260.762 91.6778H243.643ZM252.364 84.2877H260.332C262.844 84.2877 265.015 83.8062 266.846 82.8431C268.712 81.8429 270.147 80.4353 271.152 78.6202C272.193 76.8051 272.713 74.6752 272.713 72.2303C272.713 69.7484 272.193 67.6185 271.152 65.8404C270.147 64.0253 268.712 62.6362 266.846 61.673C265.015 60.6729 262.844 60.1728 260.332 60.1728H252.364V84.2877Z" fill="url(#paint4_linear_0_1)"/>
<path d="M289.834 91.6778V52.7827H306.145C309.519 52.7827 312.426 53.3569 314.866 54.5052C317.307 55.6165 319.191 57.2279 320.519 59.3393C321.847 61.4508 322.511 63.9697 322.511 66.8961C322.511 69.7854 321.847 72.2859 320.519 74.3973C319.191 76.4717 317.307 78.0646 314.866 79.1759C312.426 80.2872 309.519 80.8427 306.145 80.8427H294.679L298.555 76.8977V91.6778H289.834ZM313.79 91.6778L304.369 77.5645H313.682L323.211 91.6778H313.79ZM298.555 77.8979L294.679 73.675H305.661C308.353 73.675 310.362 73.0823 311.69 71.8969C313.018 70.6745 313.682 69.0075 313.682 66.8961C313.682 64.7476 313.018 63.0806 311.69 61.8953C310.362 60.7099 308.353 60.1172 305.661 60.1172H294.679L298.555 55.8388V77.8979Z" fill="url(#paint5_linear_0_1)"/>
<path d="M339.554 91.6778V75.7864L341.545 81.2317L324.965 52.7827H334.224L346.929 74.6196H341.599L354.358 52.7827H362.917L346.337 81.2317L348.275 75.7864V91.6778H339.554Z" fill="url(#paint6_linear_0_1)"/>
</g>
<g id="Compass">
<g id="Outer Ring">
<mask id="path-2-outside-1_0_1" maskUnits="userSpaceOnUse" x="46.608" y="3.57744" width="42" height="42" fill="black">
<rect fill="white" x="46.608" y="3.57744" width="42" height="42"/>
<path d="M86.9701 24.468C86.9701 13.6722 78.2352 4.92038 67.4602 4.92038C56.6852 4.92038 47.9503 13.6722 47.9503 24.468C47.9503 35.2639 56.6852 44.0156 67.4602 44.0156C78.2352 44.0156 86.9701 35.2639 86.9701 24.468ZM87.3123 24.468C87.3123 35.4533 78.4242 44.3586 67.4602 44.3586C56.4961 44.3586 47.608 35.4533 47.608 24.468C47.608 13.4828 56.4961 4.57744 67.4602 4.57744C78.4242 4.57744 87.3123 13.4828 87.3123 24.468Z"/>
</mask>
<path d="M86.9701 24.468C86.9701 13.6722 78.2352 4.92038 67.4602 4.92038C56.6852 4.92038 47.9503 13.6722 47.9503 24.468C47.9503 35.2639 56.6852 44.0156 67.4602 44.0156C78.2352 44.0156 86.9701 35.2639 86.9701 24.468ZM87.3123 24.468C87.3123 35.4533 78.4242 44.3586 67.4602 44.3586C56.4961 44.3586 47.608 35.4533 47.608 24.468C47.608 13.4828 56.4961 4.57744 67.4602 4.57744C78.4242 4.57744 87.3123 13.4828 87.3123 24.468Z" fill="#8BA57D"/>
<path d="M86.9701 24.468C86.9701 13.6722 78.2352 4.92038 67.4602 4.92038C56.6852 4.92038 47.9503 13.6722 47.9503 24.468C47.9503 35.2639 56.6852 44.0156 67.4602 44.0156C78.2352 44.0156 86.9701 35.2639 86.9701 24.468ZM87.3123 24.468C87.3123 35.4533 78.4242 44.3586 67.4602 44.3586C56.4961 44.3586 47.608 35.4533 47.608 24.468C47.608 13.4828 56.4961 4.57744 67.4602 4.57744C78.4242 4.57744 87.3123 13.4828 87.3123 24.468Z" stroke="#8BA57D" mask="url(#path-2-outside-1_0_1)"/>
</g>
<g id="Vector_2">
<path d="M67.4605 30.6889C71.2412 30.6889 74.3061 27.6181 74.3061 23.8301C74.3061 20.0421 71.2412 16.9713 67.4605 16.9713C63.6798 16.9713 60.615 20.0421 60.615 23.8301C60.615 27.6181 63.6798 30.6889 67.4605 30.6889Z" fill="url(#paint7_linear_0_1)"/>
<path d="M74.3061 23.8301C74.3061 20.0421 71.2412 16.9713 67.4605 16.9713C63.6798 16.9713 60.615 20.0421 60.615 23.8301L60.6237 24.1827C60.8011 27.69 63.6079 30.5018 67.1084 30.6795L67.4605 30.6889C71.1232 30.6889 74.1142 27.8068 74.2974 24.1827L74.3061 23.8301ZM75.0019 23.8301C75.0018 27.9933 71.6312 31.3795 67.4602 31.3795C63.2894 31.3793 59.9193 27.9932 59.9193 23.8301C59.9193 19.6669 63.2894 16.2808 67.4602 16.2807C71.6312 16.2807 75.0019 19.6668 75.0019 23.8301Z" fill="#1C3B2A"/>
</g>
<g id="Vector_3" filter="url(#filter0_d_0_1)">
<path d="M67.7805 20.4696C67.7819 20.4709 67.7733 20.505 67.7615 20.5455C67.7309 20.6504 67.7229 20.8698 67.7464 20.9602C67.7856 21.1113 67.8429 21.1799 68.1682 21.4663C68.4919 21.751 68.6075 21.8789 68.7172 22.0728C68.8395 22.2892 68.8799 22.4415 68.8797 22.6847C68.8794 22.8674 68.8664 22.9435 68.8079 23.1039C68.6739 23.4707 68.357 23.7665 67.9727 23.8834C67.8196 23.9299 67.6953 23.9464 67.4939 23.9469C67.3027 23.9474 67.2066 23.9346 67.0523 23.8878C66.607 23.7528 66.2374 23.4078 66.1215 23.0191C66.0876 22.9054 66.0876 22.6718 66.1216 22.5575C66.1695 22.3962 66.3006 22.2055 66.4136 22.1325L66.443 22.1135L66.4386 22.2043C66.4317 22.3486 66.4818 22.4711 66.5919 22.5791C66.6684 22.6541 66.7421 22.6906 66.8305 22.697C66.9203 22.7036 66.9629 22.6952 67.0218 22.6599C67.0571 22.6387 67.0769 22.6172 67.0934 22.5824C67.1482 22.4668 67.1064 22.3194 66.9599 22.1119C66.8329 21.9322 66.7914 21.8167 66.7912 21.642C66.7906 21.3533 66.9215 21.0989 67.2029 20.8404C67.3598 20.6964 67.5204 20.5866 67.6865 20.5097C67.7366 20.4865 67.7787 20.4685 67.7805 20.4696Z" fill="url(#paint8_linear_0_1)"/>
</g>
<g id="Vector_4">
<path fill-rule="evenodd" clip-rule="evenodd" d="M65.5956 23.0526L65.3287 23.0592L65.3288 22.8217H65.5956V23.0526Z" fill="#8BA57D"/>
<path d="M69.7347 21.9981H69.3747V21.6604H69.7347V21.9981Z" fill="#8BA57D"/>
<path fill-rule="evenodd" clip-rule="evenodd" d="M65.7921 21.4282H65.5498V21.196H65.7994L65.7921 21.4282Z" fill="#8BA57D"/>
<path d="M70.3163 21.3228H70.061V21.0801H70.3163V21.3228Z" fill="#8BA57D"/>
<path fill-rule="evenodd" clip-rule="evenodd" d="M64.8632 21.1329H64.6079V20.9007H64.8632V21.1329Z" fill="#8BA57D"/>
<path fill-rule="evenodd" clip-rule="evenodd" d="M69.2813 20.954H69.0259V20.7218H69.2813V20.954Z" fill="#8BA57D"/>
<path d="M68.8516 19.877H68.573V19.6238H68.8516V19.877Z" fill="#8BA57D"/>
<path fill-rule="evenodd" clip-rule="evenodd" d="M66.3633 19.7823H66.0732V19.5184H66.3633V19.7823Z" fill="#8BA57D"/>
</g>
<g id="Vector_5" opacity="0.9" filter="url(#filter1_d_0_1)">
<path d="M69.5485 22.8604H69.2699V22.6019H69.5485V22.8604Z" fill="#B06F4D"/>
<path d="M70.3972 22.3838L70.1418 22.3849V22.1432H70.3972V22.3838Z" fill="#B06F4D"/>
<path d="M65.2588 21.9426H64.9449V21.6525H65.2588V21.9426ZM65.5611 20.2966H65.2122V19.9695H65.5611V20.2966Z" fill="#B06F4D"/>
<path fill-rule="evenodd" clip-rule="evenodd" d="M70.035 20.2439H69.6867V19.9274H70.035V20.2439Z" fill="#B06F4D"/>
</g>
<path id="Vector_6" fill-rule="evenodd" clip-rule="evenodd" d="M71.3972 24.224L71.4257 24.2498C71.4541 24.2756 71.4543 24.2764 71.4543 24.493C71.4543 24.7351 71.4487 24.7578 71.3821 24.7859C71.3611 24.7949 71.2733 24.8101 71.1869 24.8198C70.7973 24.8637 70.4281 24.9638 70.0909 25.1171C69.3314 25.4622 68.8475 25.9659 68.8455 26.4134C68.8449 26.5448 68.8611 26.6081 68.9281 26.7351C68.974 26.8221 68.9955 26.8485 69.0926 26.9363C69.2692 27.0959 69.5468 27.251 69.8382 27.3531C70.0566 27.4296 70.0475 27.4148 70.0475 27.6902C70.0475 27.909 70.0399 27.9452 69.9898 27.9696C69.9751 27.9766 69.7768 27.9804 69.4323 27.9804H68.8969L68.7891 27.9282C68.6672 27.8692 68.571 27.8432 68.3615 27.8125C68.1292 27.7784 67.9785 27.7669 67.6992 27.7652L67.571 27.7651C66.9698 27.7667 66.6106 27.8188 66.3937 27.9361L66.3215 27.9752L65.2211 27.981L65.1525 27.9187V27.4618L65.1845 27.4328C65.2026 27.4163 65.2667 27.3861 65.3327 27.3629C65.6695 27.2447 66.0018 27.0499 66.1692 26.8725C66.2747 26.7606 66.3617 26.5533 66.3617 26.4134C66.3617 26.233 66.2533 26.0291 66.1022 25.925C65.9626 25.8287 65.8512 25.7905 65.5901 25.7493C65.0368 25.6619 64.6195 25.5181 64.2165 25.276C63.9206 25.0983 63.7153 24.9187 63.5468 24.6903C63.4676 24.583 63.4532 24.5462 63.4805 24.5214C63.4917 24.5118 63.7158 24.5089 64.4165 24.5089C64.9235 24.5089 65.3385 24.5052 65.3384 24.5008C65.3384 24.4964 65.3327 24.4744 65.3258 24.452C65.3159 24.4197 65.3166 24.4091 65.3288 24.4016C65.3375 24.3965 65.4481 24.3933 65.5748 24.3944C65.8307 24.3969 65.8195 24.4 65.8323 24.3232C65.8364 24.2984 65.8502 24.2659 65.8632 24.251L65.8866 24.224H71.3972Z" fill="url(#paint9_linear_0_1)"/>
<g id="Vector_7" filter="url(#filter2_f_0_1)">
<mask id="path-8-inside-2_0_1" fill="white">
<path d="M65.8261 27.6722H65.7138L65.9011 27.6323L66.5 27.1665L66.7247 27.1115L66.5 27.2135L65.9385 27.7232L65.8261 27.6722Z"/>
<path d="M66.051 24.6135V25.276C66.1634 24.9702 66.5003 24.8174 66.5003 24.8174L66.6688 24.7664L67.0057 24.7154L68.4659 24.5625H66.1071C66.0623 24.5625 66.051 24.5965 66.051 24.6135Z"/>
<path d="M69.2515 27.7234L68.6338 27.2136L68.9707 27.4174L69.3639 27.6214H69.7008L69.42 27.6724L69.2515 27.7234Z"/>
</mask>
<path d="M65.8261 27.6722H65.7138L65.9011 27.6323L66.5 27.1665L66.7247 27.1115L66.5 27.2135L65.9385 27.7232L65.8261 27.6722Z" fill="#8BA57D"/>
<path d="M66.051 24.6135V25.276C66.1634 24.9702 66.5003 24.8174 66.5003 24.8174L66.6688 24.7664L67.0057 24.7154L68.4659 24.5625H66.1071C66.0623 24.5625 66.051 24.5965 66.051 24.6135Z" fill="#8BA57D"/>
<path d="M69.2515 27.7234L68.6338 27.2136L68.9707 27.4174L69.3639 27.6214H69.7008L69.42 27.6724L69.2515 27.7234Z" fill="#8BA57D"/>
<path d="M65.8261 27.6722H65.7138L65.9011 27.6323L66.5 27.1665L66.7247 27.1115L66.5 27.2135L65.9385 27.7232L65.8261 27.6722Z" stroke="#8BA57D" stroke-width="0.4" mask="url(#path-8-inside-2_0_1)"/>
<path d="M66.051 24.6135V25.276C66.1634 24.9702 66.5003 24.8174 66.5003 24.8174L66.6688 24.7664L67.0057 24.7154L68.4659 24.5625H66.1071C66.0623 24.5625 66.051 24.5965 66.051 24.6135Z" stroke="#8BA57D" stroke-width="0.4" mask="url(#path-8-inside-2_0_1)"/>
<path d="M69.2515 27.7234L68.6338 27.2136L68.9707 27.4174L69.3639 27.6214H69.7008L69.42 27.6724L69.2515 27.7234Z" stroke="#8BA57D" stroke-width="0.4" mask="url(#path-8-inside-2_0_1)"/>
</g>
<path id="Vector_8" opacity="0.75" d="M80.9804 10.8565L74.1348 16.0006L75.8462 17.7153L80.9804 10.8565ZM80.9804 37.9488L74.1348 32.8047L75.8462 31.09L80.9804 37.9488ZM53.9404 37.9488L60.786 32.8047L59.0746 31.09L53.9404 37.9488ZM53.9404 10.8565L60.786 16.0006L59.0746 17.7153L53.9404 10.8565Z" fill="#8BA57D"/>
<g id="Vector_9">
<mask id="path-10-inside-3_0_1" fill="white">
<path d="M67.4605 47.6607L64.8934 33.943L67.4605 35.3148L70.0276 33.943L67.4605 47.6607Z"/>
</mask>
<path d="M67.4605 47.6607L64.8934 33.943L67.4605 35.3148L70.0276 33.943L67.4605 47.6607Z" fill="#8BA57D" stroke="#BBC6B0" stroke-opacity="0.75" stroke-width="0.4" mask="url(#path-10-inside-3_0_1)"/>
</g>
<g id="Vector_10">
<mask id="path-11-inside-4_0_1" fill="white">
<path d="M91.42 24.2905L77.7289 26.8625L79.098 24.2905L77.7289 21.7184L91.42 24.2905ZM43.501 24.2905L57.1921 21.7184L55.823 24.2905L57.1921 26.8625L43.501 24.2905Z"/>
</mask>
<path d="M91.42 24.2905L77.7289 26.8625L79.098 24.2905L77.7289 21.7184L91.42 24.2905ZM43.501 24.2905L57.1921 21.7184L55.823 24.2905L57.1921 26.8625L43.501 24.2905Z" fill="#B06F4D" stroke="#E8E5E0" stroke-opacity="0.5" stroke-width="0.4" mask="url(#path-11-inside-4_0_1)"/>
</g>
<g id="North Pointer">
<mask id="path-12-inside-5_0_1" fill="white">
<path d="M67.4605 0L70.0276 13.7176L67.4605 12.3459L64.8934 13.7176L67.4605 0Z"/>
</mask>
<path d="M67.4605 0L70.0276 13.7176L67.4605 12.3459L64.8934 13.7176L67.4605 0Z" fill="#1C3B2A" stroke="#BBC6B0" stroke-opacity="0.5" stroke-width="0.4" mask="url(#path-12-inside-5_0_1)"/>
</g>
</g>
<g id="Vector_11">
<path d="M0 43.5155V4.62142H7.37008L30.0854 32.6252H26.5103V4.62142H35.3104V43.5155H27.9953L5.22506 15.5118H8.80011V43.5155H0Z" fill="url(#paint10_linear_0_1)"/>
<path d="M99.8128 43.5155V4.62142H116.478C119.925 4.62142 122.895 5.19557 125.388 6.34387C127.881 7.45513 129.806 9.06648 131.163 11.1779C132.52 13.2893 133.198 15.8081 133.198 18.7344C133.198 21.6237 132.52 24.124 131.163 26.2354C129.806 28.3098 127.881 29.9026 125.388 31.0138C122.895 32.1251 119.925 32.6807 116.478 32.6807H104.763L108.723 28.7358V43.5155H99.8128ZM124.288 43.5155L114.663 29.4025H124.178L133.913 43.5155H124.288ZM108.723 29.7359L104.763 25.5131H115.983C118.733 25.5131 120.786 24.9204 122.143 23.7351C123.5 22.5127 124.178 20.8458 124.178 18.7344C124.178 16.586 123.5 14.9191 122.143 13.7338C120.786 12.5484 118.733 11.9558 115.983 11.9558H104.763L108.723 7.6774V29.7359Z" fill="url(#paint11_linear_0_1)"/>
<path d="M154.525 43.5155V11.9558H142.205V4.62142H175.755V11.9558H163.435V43.5155H154.525Z" fill="url(#paint12_linear_0_1)"/>
<path d="M210.447 4.62142H219.357V43.5155H210.447V4.62142ZM192.957 43.5155H184.047V4.62142H192.957V43.5155ZM211.107 27.5689H192.297V19.9568H211.107V27.5689Z" fill="url(#paint13_linear_0_1)"/>
<path d="M243.324 44.1821C240.244 44.1821 237.292 43.7746 234.469 42.9597C231.646 42.1078 229.372 41.015 227.649 39.6815L230.674 32.9028C232.324 34.0881 234.267 35.0698 236.504 35.8477C238.777 36.5885 241.069 36.9589 243.379 36.9589C245.139 36.9589 246.551 36.7922 247.614 36.4589C248.714 36.0884 249.521 35.5883 250.034 34.9586C250.547 34.3289 250.804 33.6066 250.804 32.7917C250.804 31.7545 250.401 30.9396 249.594 30.3469C248.787 29.7172 247.724 29.2171 246.404 28.8467C244.956 28.4066 243.487 28.0358 242.004 27.7355C240.392 27.3552 238.796 26.9104 237.219 26.4019C235.698 25.9091 234.24 25.2378 232.874 24.4017C231.561 23.594 230.451 22.4912 229.629 21.1791C228.822 19.8455 228.419 18.1416 228.419 16.0673C228.419 13.8447 229.006 11.8259 230.179 10.0109C231.389 8.15878 233.186 6.69563 235.569 5.62141C237.989 4.51015 241.014 3.95455 244.644 3.95455C247.064 3.95455 249.448 4.25086 251.794 4.84354C254.141 5.39916 256.213 6.25114 258.009 7.39944L255.259 14.2337C253.463 13.1965 251.666 12.4371 249.869 11.9556C248.154 11.4489 246.376 11.187 244.589 11.1777C242.866 11.1777 241.454 11.3814 240.354 11.7889C239.254 12.1964 238.466 12.7335 237.989 13.4002C237.512 14.0299 237.274 14.7708 237.274 15.6228C237.274 16.6229 237.677 17.4378 238.484 18.0675C239.291 18.6602 240.354 19.1417 241.674 19.5121C242.994 19.8826 244.442 20.253 246.019 20.6234C247.632 20.9938 249.227 21.4198 250.804 21.9014C252.418 22.3829 253.884 23.0312 255.204 23.8461C256.509 24.6454 257.603 25.7508 258.394 27.0687C259.238 28.4022 259.659 30.0876 259.659 32.1249C259.673 34.2652 259.04 36.3587 257.844 38.1257C256.634 39.9408 254.819 41.4039 252.399 42.5152C250.016 43.6264 246.991 44.1821 243.324 44.1821Z" fill="url(#paint14_linear_0_1)"/>
<path d="M288.796 44.1821C285.826 44.1821 283.058 43.7005 280.491 42.7375C277.961 41.7373 275.761 40.3297 273.891 38.5147C272.021 36.6994 270.525 34.5276 269.491 32.1249C268.464 29.6802 267.951 26.9946 267.951 24.0683C267.951 21.142 268.464 18.4564 269.491 16.0117C270.525 13.609 272.021 11.4372 273.891 9.62196C275.812 7.79806 278.075 6.38112 280.546 5.45472C283.076 4.45459 285.845 3.95455 288.851 3.95455C292.188 3.95455 295.195 4.54718 297.871 5.73252C300.529 6.83906 302.873 8.59569 304.691 10.8443L298.971 16.1784C297.651 14.6596 296.185 13.5299 294.571 12.789C292.958 12.0112 291.198 11.6222 289.291 11.6222C287.495 11.6222 285.845 11.9185 284.341 12.5112C282.877 13.0782 281.547 13.9489 280.436 15.0671C279.324 16.1962 278.446 17.5371 277.851 19.0121C277.264 20.5308 276.971 22.2162 276.971 24.0683C276.971 25.9204 277.264 27.6058 277.851 29.1245C278.446 30.5995 279.324 31.9404 280.436 33.0695C281.547 34.1877 282.877 35.0584 284.341 35.6254C285.845 36.2181 287.495 36.5144 289.291 36.5144C291.198 36.5144 292.958 36.144 294.571 35.4031C296.185 34.6252 297.651 33.4585 298.971 31.9027L304.691 37.2367C302.865 39.491 300.525 41.2641 297.871 42.4041C295.195 43.5894 292.17 44.1821 288.796 44.1821Z" fill="url(#paint15_linear_0_1)"/>
<path d="M312.983 43.5155L330.143 4.62142H338.943L356.158 43.5155H346.808L332.728 9.17762H336.248L322.113 43.5155H312.983ZM321.563 35.1811L323.928 28.3468H343.728L346.148 35.1811H321.563Z" fill="url(#paint16_linear_0_1)"/>
<path d="M364.45 43.5155V4.62142H381.115C384.562 4.62142 387.532 5.19557 390.025 6.34387C392.519 7.45513 394.444 9.06648 395.8 11.1779C397.157 13.2893 397.835 15.8081 397.835 18.7344C397.835 21.6237 397.157 24.124 395.8 26.2354C394.444 28.3468 392.519 29.9766 390.025 31.1249C387.532 32.2362 384.562 32.7919 381.115 32.7919H369.4L373.36 28.7358V43.5155H364.45ZM373.36 29.7359L369.4 25.4575H380.62C383.37 25.4575 385.424 24.8649 386.78 23.6795C388.137 22.4942 388.815 20.8458 388.815 18.7344C388.815 16.586 388.137 14.9191 386.78 13.7338C385.424 12.5484 383.37 11.9558 380.62 11.9558H369.4L373.36 7.6774V29.7359Z" fill="url(#paint17_linear_0_1)"/>
<path d="M414.322 20.2902H432.857V27.2911H414.322V20.2902ZM414.982 36.2923H435.937V43.5155H406.127V4.62142H435.222V11.8446H414.982V36.2923Z" fill="url(#paint18_linear_0_1)"/>
</g>
</g>
</g>
<defs>
<filter id="filter0_d_0_1" x="65.5961" y="19.9695" width="3.7836" height="4.47737" filterUnits="userSpaceOnUse" color-interpolation-filters="sRGB">
<feFlood flood-opacity="0" result="BackgroundImageFix"/>
<feColorMatrix in="SourceAlpha" type="matrix" values="0 0 0 0 0 0 0 0 0 0 0 0 0 0 0 0 0 0 127 0" result="hardAlpha"/>
<feOffset/>
<feGaussianBlur stdDeviation="0.25"/>
<feComposite in2="hardAlpha" operator="out"/>
<feColorMatrix type="matrix" values="0 0 0 0 1 0 0 0 0 0.834135 0 0 0 0 0.557692 0 0 0 1 0"/>
<feBlend mode="normal" in2="BackgroundImageFix" result="effect1_dropShadow_0_1"/>
<feBlend mode="normal" in="SourceGraphic" in2="effect1_dropShadow_0_1" result="shape"/>
</filter>
<filter id="filter1_d_0_1" x="64.7449" y="19.7274" width="5.85229" height="3.33299" filterUnits="userSpaceOnUse" color-interpolation-filters="sRGB">
<feFlood flood-opacity="0" result="BackgroundImageFix"/>
<feColorMatrix in="SourceAlpha" type="matrix" values="0 0 0 0 0 0 0 0 0 0 0 0 0 0 0 0 0 0 127 0" result="hardAlpha"/>
<feOffset/>
<feGaussianBlur stdDeviation="0.1"/>
<feComposite in2="hardAlpha" operator="out"/>
<feColorMatrix type="matrix" values="0 0 0 0 1 0 0 0 0 0.834135 0 0 0 0 0.557692 0 0 0 1 0"/>
<feBlend mode="normal" in2="BackgroundImageFix" result="effect1_dropShadow_0_1"/>
<feBlend mode="normal" in="SourceGraphic" in2="effect1_dropShadow_0_1" result="shape"/>
</filter>
<filter id="filter2_f_0_1" x="65.6138" y="24.4625" width="4.18701" height="3.36088" filterUnits="userSpaceOnUse" color-interpolation-filters="sRGB">
<feFlood flood-opacity="0" result="BackgroundImageFix"/>
<feBlend mode="normal" in="SourceGraphic" in2="BackgroundImageFix" result="shape"/>
<feGaussianBlur stdDeviation="0.05" result="effect1_foregroundBlur_0_1"/>
</filter>
<linearGradient id="paint0_linear_0_1" x1="245.126" y1="37.6568" x2="245.126" y2="105.569" gradientUnits="userSpaceOnUse">
<stop offset="0.201923" stop-color="#B06F4D"/>
<stop offset="0.899038" stop-color="#4A2F20"/>
</linearGradient>
<linearGradient id="paint1_linear_0_1" x1="245.126" y1="37.6568" x2="245.126" y2="105.569" gradientUnits="userSpaceOnUse">
<stop offset="0.201923" stop-color="#B06F4D"/>
<stop offset="0.899038" stop-color="#4A2F20"/>
</linearGradient>
<linearGradient id="paint2_linear_0_1" x1="245.126" y1="37.6568" x2="245.126" y2="105.569" gradientUnits="userSpaceOnUse">
<stop offset="0.201923" stop-color="#B06F4D"/>
<stop offset="0.899038" stop-color="#4A2F20"/>
</linearGradient>
<linearGradient id="paint3_linear_0_1" x1="245.126" y1="37.6568" x2="245.126" y2="105.569" gradientUnits="userSpaceOnUse">
<stop offset="0.201923" stop-color="#B06F4D"/>
<stop offset="0.899038" stop-color="#4A2F20"/>
</linearGradient>
<linearGradient id="paint4_linear_0_1" x1="245.126" y1="37.6568" x2="245.126" y2="105.569" gradientUnits="userSpaceOnUse">
<stop offset="0.201923" stop-color="#B06F4D"/>
<stop offset="0.899038" stop-color="#4A2F20"/>
</linearGradient>
<linearGradient id="paint5_linear_0_1" x1="245.126" y1="37.6568" x2="245.126" y2="105.569" gradientUnits="userSpaceOnUse">
<stop offset="0.201923" stop-color="#B06F4D"/>
<stop offset="0.899038" stop-color="#4A2F20"/>
</linearGradient>
<linearGradient id="paint6_linear_0_1" x1="245.126" y1="37.6568" x2="245.126" y2="105.569" gradientUnits="userSpaceOnUse">
<stop offset="0.201923" stop-color="#B06F4D"/>
<stop offset="0.899038" stop-color="#4A2F20"/>
</linearGradient>
<linearGradient id="paint7_linear_0_1" x1="67.4606" y1="16.2807" x2="67.4606" y2="31.3795" gradientUnits="userSpaceOnUse">
<stop stop-color="#8BA57D"/>
<stop offset="1" stop-color="#1C3B2A"/>
</linearGradient>
<linearGradient id="paint8_linear_0_1" x1="67.4879" y1="20.4699" x2="67.4879" y2="23.9472" gradientUnits="userSpaceOnUse">
<stop offset="0.600962" stop-color="#B06F4D"/>
<stop offset="1" stop-color="#4A2F20"/>
</linearGradient>
<linearGradient id="paint9_linear_0_1" x1="67.4611" y1="24.224" x2="67.4611" y2="27.981" gradientUnits="userSpaceOnUse">
<stop stop-color="#8BA57D"/>
<stop offset="0.043" stop-color="#1C3B2A"/>
</linearGradient>
<linearGradient id="paint10_linear_0_1" x1="421.032" y1="4.62142" x2="421.032" y2="43.5155" gradientUnits="userSpaceOnUse">
<stop offset="0.197115" stop-color="#8BA57D"/>
<stop offset="0.951923" stop-color="#1C3B2A"/>
</linearGradient>
<linearGradient id="paint11_linear_0_1" x1="421.032" y1="4.62142" x2="421.032" y2="43.5155" gradientUnits="userSpaceOnUse">
<stop offset="0.197115" stop-color="#8BA57D"/>
<stop offset="0.951923" stop-color="#1C3B2A"/>
</linearGradient>
<linearGradient id="paint12_linear_0_1" x1="421.032" y1="4.62142" x2="421.032" y2="43.5155" gradientUnits="userSpaceOnUse">
<stop offset="0.197115" stop-color="#8BA57D"/>
<stop offset="0.951923" stop-color="#1C3B2A"/>
</linearGradient>
<linearGradient id="paint13_linear_0_1" x1="421.032" y1="4.62142" x2="421.032" y2="43.5155" gradientUnits="userSpaceOnUse">
<stop offset="0.197115" stop-color="#8BA57D"/>
<stop offset="0.951923" stop-color="#1C3B2A"/>
</linearGradient>
<linearGradient id="paint14_linear_0_1" x1="421.032" y1="4.62142" x2="421.032" y2="43.5155" gradientUnits="userSpaceOnUse">
<stop offset="0.197115" stop-color="#8BA57D"/>
<stop offset="0.951923" stop-color="#1C3B2A"/>
</linearGradient>
<linearGradient id="paint15_linear_0_1" x1="421.032" y1="4.62142" x2="421.032" y2="43.5155" gradientUnits="userSpaceOnUse">
<stop offset="0.197115" stop-color="#8BA57D"/>
<stop offset="0.951923" stop-color="#1C3B2A"/>
</linearGradient>
<linearGradient id="paint16_linear_0_1" x1="421.032" y1="4.62142" x2="421.032" y2="43.5155" gradientUnits="userSpaceOnUse">
<stop offset="0.197115" stop-color="#8BA57D"/>
<stop offset="0.951923" stop-color="#1C3B2A"/>
</linearGradient>
<linearGradient id="paint17_linear_0_1" x1="421.032" y1="4.62142" x2="421.032" y2="43.5155" gradientUnits="userSpaceOnUse">
<stop offset="0.197115" stop-color="#8BA57D"/>
<stop offset="0.951923" stop-color="#1C3B2A"/>
</linearGradient>
<linearGradient id="paint18_linear_0_1" x1="421.032" y1="4.62142" x2="421.032" y2="43.5155" gradientUnits="userSpaceOnUse">
<stop offset="0.197115" stop-color="#8BA57D"/>
<stop offset="0.951923" stop-color="#1C3B2A"/>
</linearGradient>
</defs>
</svg>
