<svg width="633" height="828" viewBox="0 0 633 828" fill="none" xmlns="http://www.w3.org/2000/svg">
<g id="Northscape Foundry Logos">
<rect x="0.5" y="-1075.5" width="632" height="3245" rx="4.5" stroke="#8A38F5" stroke-dasharray="10 5"/>
<g id="Property 1=Dark">
<g id="Wayfinder Logo-Dark">
<g id="Vector">
<path d="M459.219 826.84V810.609L461.295 816.17L444.012 787.113H453.663L466.906 809.417H461.351L474.649 787.113H483.571L466.289 816.17L468.309 810.609V826.84H459.219Z" fill="url(#paint0_linear_0_1)"/>
<path d="M406.496 826.84V787.113H423.498C427.014 787.113 430.044 787.7 432.588 788.873C435.132 790.008 437.096 791.654 438.48 793.81C439.864 795.967 440.556 798.539 440.556 801.528C440.556 804.479 439.864 807.033 438.48 809.19C437.096 811.309 435.132 812.935 432.588 814.07C430.044 815.206 427.014 815.773 423.498 815.773H411.546L415.586 811.744V826.84H406.496ZM431.466 826.84L421.646 812.425H431.354L441.285 826.84H431.466ZM415.586 812.765L411.546 808.452H422.993C425.798 808.452 427.893 807.847 429.277 806.636C430.662 805.387 431.354 803.685 431.354 801.528C431.354 799.334 430.662 797.631 429.277 796.421C427.893 795.21 425.798 794.605 422.993 794.605H411.546L415.586 790.235V812.765Z" fill="url(#paint1_linear_0_1)"/>
<path d="M357.893 826.84V787.113H375.737C380.001 787.113 383.761 787.946 387.015 789.61C390.27 791.237 392.813 793.526 394.646 796.477C396.479 799.428 397.396 802.928 397.396 806.977C397.396 810.987 396.479 814.487 394.646 817.476C392.813 820.427 390.27 822.735 387.015 824.399C383.761 826.026 380.001 826.84 375.737 826.84H357.893ZM366.983 819.292H375.288C377.906 819.292 380.169 818.8 382.077 817.816C384.022 816.795 385.519 815.357 386.566 813.503C387.651 811.649 388.193 809.474 388.193 806.977C388.193 804.442 387.651 802.266 386.566 800.45C385.519 798.596 384.022 797.177 382.077 796.194C380.169 795.172 377.906 794.661 375.288 794.661H366.983V819.292Z" fill="url(#paint2_linear_0_1)"/>
<path d="M310.331 826.84V787.113H317.851L341.025 815.716H337.378V787.113H346.355V826.84H338.893L315.662 798.237H319.309V826.84H310.331Z" fill="url(#paint3_linear_0_1)"/>
<path d="M281.317 827.521C275.743 827.521 271.385 825.95 268.243 822.81C265.1 819.67 263.529 815.187 263.529 809.36V787.113H272.619V809.02C272.619 812.803 273.386 815.527 274.92 817.192C276.454 818.857 278.605 819.689 281.373 819.689C284.141 819.689 286.292 818.857 287.826 817.192C289.36 815.527 290.126 812.803 290.126 809.02V787.113H299.104V809.36C299.104 815.187 297.533 819.67 294.391 822.81C291.249 825.95 286.891 827.521 281.317 827.521Z" fill="url(#paint4_linear_0_1)"/>
<path d="M233.355 827.521C230.25 827.521 227.37 827.01 224.714 825.989C222.095 824.967 219.814 823.529 217.868 821.675C215.96 819.821 214.435 817.603 213.379 815.149C212.332 812.652 211.808 809.928 211.808 806.977C211.808 804.026 212.332 801.302 213.379 798.804C214.441 796.34 215.988 794.12 217.924 792.278C219.87 790.424 222.152 788.986 224.77 787.965C227.389 786.943 230.232 786.433 233.299 786.433C236.404 786.433 239.247 786.943 241.828 787.965C244.447 788.986 246.71 790.424 248.618 792.278C250.554 794.12 252.101 796.34 253.163 798.804C254.248 801.264 254.79 803.988 254.79 806.977C254.79 809.928 254.248 812.671 253.163 815.206C252.101 817.67 250.554 819.891 248.618 821.732C246.71 823.548 244.447 824.967 241.828 825.989C239.247 827.01 236.423 827.521 233.355 827.521ZM233.299 819.689C235.057 819.689 236.666 819.386 238.125 818.781C239.621 818.176 240.93 817.305 242.053 816.17C243.182 815.024 244.061 813.652 244.634 812.141C245.27 810.59 245.588 808.868 245.588 806.977C245.588 805.085 245.27 803.364 244.634 801.812C244.061 800.302 243.182 798.929 242.053 797.783C240.961 796.643 239.641 795.753 238.181 795.172C236.685 794.567 235.057 794.264 233.299 794.264C231.541 794.264 229.914 794.567 228.417 795.172C226.967 795.772 225.651 796.66 224.546 797.783C223.411 798.936 222.515 800.306 221.908 801.812C221.31 803.364 221.011 805.085 221.011 806.977C221.011 808.831 221.31 810.552 221.908 812.141C222.544 813.692 223.405 815.035 224.49 816.17C225.612 817.305 226.921 818.176 228.417 818.781C229.914 819.386 231.541 819.689 233.299 819.689Z" fill="url(#paint5_linear_0_1)"/>
<path d="M184.996 804.99H203.85V812.368H184.996V804.99ZM185.669 826.84H176.579V787.113H206.262V794.491H185.669V826.84Z" fill="url(#paint6_linear_0_1)"/>
</g>
<g id="Vector_2">
<path d="M508.071 744.001H526.98V751.152H508.071V744.001ZM508.744 760.346H530.123V767.723H499.71V727.997H529.393V735.375H508.744V760.346Z" fill="url(#paint7_linear_0_1)"/>
<path d="M459.161 767.723V727.997H476.163C479.68 727.997 482.71 728.584 485.253 729.756C487.797 730.892 489.761 732.537 491.145 734.694C492.529 736.85 493.221 739.423 493.221 742.412C493.221 745.363 492.529 747.917 491.145 750.074C489.761 752.23 487.797 753.895 485.253 755.068C482.71 756.203 479.68 756.77 476.163 756.77H464.211L468.252 752.627V767.723H459.161ZM468.252 753.649L464.211 749.279H475.658C478.464 749.279 480.559 748.674 481.943 747.463C483.327 746.252 484.019 744.569 484.019 742.412C484.019 740.218 483.327 738.515 481.943 737.304C480.559 736.094 478.464 735.488 475.658 735.488H464.211L468.252 731.119V753.649Z" fill="url(#paint8_linear_0_1)"/>
<path d="M411.037 767.723L428.544 727.997H437.522L455.085 767.723H445.546L431.181 732.651H434.773L420.352 767.723H411.037ZM419.791 759.211L422.204 752.23H442.404L444.873 759.211H419.791Z" fill="url(#paint9_linear_0_1)"/>
<path d="M394.558 768.405C391.528 768.405 388.703 767.913 386.085 766.929C383.504 765.908 381.259 764.47 379.351 762.616C377.443 760.762 375.918 758.544 374.862 756.089C373.815 753.592 373.291 750.849 373.291 747.86C373.291 744.872 373.815 742.129 374.862 739.631C375.918 737.177 377.443 734.959 379.351 733.105C381.311 731.242 383.62 729.795 386.141 728.849C388.722 727.827 391.546 727.316 394.614 727.316C398.018 727.316 401.086 727.922 403.816 729.132C406.528 730.263 408.919 732.057 410.774 734.354L404.939 739.802C403.592 738.251 402.096 737.097 400.45 736.34C398.804 735.545 397.008 735.148 395.063 735.148C393.23 735.148 391.546 735.451 390.013 736.056C388.519 736.635 387.162 737.525 386.029 738.667C384.895 739.82 383.998 741.19 383.392 742.696C382.793 744.247 382.494 745.969 382.494 747.86C382.494 749.752 382.793 751.474 383.392 753.025C383.998 754.531 384.895 755.901 386.029 757.054C387.162 758.196 388.519 759.086 390.013 759.665C391.546 760.27 393.23 760.573 395.063 760.573C397.008 760.573 398.804 760.195 400.45 759.438C402.096 758.643 403.592 757.452 404.939 755.862L410.774 761.311C408.911 763.613 406.523 765.424 403.816 766.589C401.086 767.799 397.999 768.405 394.558 768.405Z" fill="url(#paint10_linear_0_1)"/>
<path d="M352.884 768.405C349.741 768.405 346.73 767.988 343.85 767.156C340.969 766.286 338.65 765.17 336.892 763.808L339.978 756.884C341.661 758.095 343.644 759.097 345.926 759.892C348.245 760.649 350.583 761.027 352.94 761.027C354.735 761.027 356.176 760.857 357.26 760.516C358.383 760.138 359.206 759.627 359.729 758.984C360.253 758.341 360.515 757.603 360.515 756.771C360.515 755.711 360.103 754.879 359.281 754.273C358.458 753.63 357.373 753.119 356.026 752.741C354.548 752.292 353.05 751.913 351.537 751.606C349.893 751.218 348.264 750.763 346.655 750.244C345.104 749.741 343.616 749.055 342.222 748.201C340.883 747.376 339.75 746.25 338.912 744.909C338.089 743.547 337.677 741.807 337.677 739.688C337.677 737.418 338.276 735.356 339.473 733.502C340.707 731.611 342.54 730.116 344.972 729.019C347.441 727.884 350.527 727.316 354.23 727.316C356.699 727.316 359.131 727.619 361.525 728.224C363.919 728.792 366.033 729.662 367.866 730.835L365.06 737.815C363.227 736.756 361.394 735.98 359.561 735.489C357.811 734.971 355.998 734.704 354.174 734.694C352.416 734.694 350.976 734.902 349.854 735.318C348.731 735.735 347.927 736.283 347.441 736.964C346.955 737.607 346.711 738.364 346.711 739.234C346.711 740.256 347.123 741.088 347.946 741.731C348.769 742.337 349.854 742.829 351.2 743.207C352.547 743.585 354.025 743.964 355.633 744.342C357.279 744.72 358.906 745.155 360.515 745.647C362.161 746.139 363.657 746.801 365.004 747.634C366.335 748.45 367.451 749.579 368.258 750.925C369.119 752.287 369.549 754.009 369.549 756.089C369.563 758.276 368.917 760.414 367.697 762.219C366.463 764.073 364.611 765.567 362.142 766.702C359.711 767.837 356.625 768.405 352.884 768.405Z" fill="url(#paint11_linear_0_1)"/>
<path d="M321.596 727.997H330.686V767.723H321.596V727.997ZM303.752 767.723H294.662V727.997H303.752V767.723ZM322.269 751.436H303.079V743.661H322.269V751.436Z" fill="url(#paint12_linear_0_1)"/>
<path d="M268.111 767.723V735.488H255.542V727.997H289.771V735.488H277.201V767.723H268.111Z" fill="url(#paint13_linear_0_1)"/>
<path d="M219.261 767.723V727.997H236.263C239.78 727.997 242.81 728.584 245.353 729.756C247.897 730.892 249.861 732.537 251.245 734.694C252.629 736.85 253.321 739.423 253.321 742.412C253.321 745.363 252.629 747.917 251.245 750.074C249.861 752.192 247.897 753.819 245.353 754.954C242.81 756.089 239.78 756.657 236.263 756.657H224.311L228.351 752.627V767.723H219.261ZM244.231 767.723L234.412 753.308H244.119L254.051 767.723H244.231ZM228.351 753.649L224.311 749.336H235.758C238.564 749.336 240.659 748.73 242.043 747.52C243.427 746.271 244.119 744.569 244.119 742.412C244.119 740.218 243.427 738.515 242.043 737.304C240.659 736.094 238.564 735.488 235.758 735.488H224.311L228.351 731.119V753.649Z" fill="url(#paint14_linear_0_1)"/>
<path d="M190.994 768.405C187.89 768.405 185.009 767.894 182.353 766.872C179.735 765.851 177.453 764.413 175.507 762.559C173.599 760.705 172.074 758.487 171.019 756.033C169.971 753.536 169.447 750.812 169.447 747.86C169.447 744.909 169.971 742.185 171.019 739.688C172.081 737.224 173.627 735.003 175.564 733.162C177.509 731.308 179.791 729.87 182.409 728.849C185.028 727.827 187.871 727.316 190.938 727.316C194.043 727.316 196.886 727.827 199.467 728.849C202.086 729.87 204.349 731.308 206.257 733.162C208.193 735.003 209.74 737.224 210.802 739.688C211.887 742.147 212.429 744.872 212.429 747.86C212.429 750.812 211.887 753.555 210.802 756.089C209.74 758.554 208.193 760.774 206.257 762.616C204.349 764.432 202.086 765.851 199.467 766.872C196.886 767.894 194.062 768.405 190.994 768.405ZM190.938 760.573C192.696 760.573 194.305 760.27 195.764 759.665C197.26 759.059 198.57 758.189 199.692 757.054C200.821 755.908 201.7 754.536 202.273 753.025C202.909 751.474 203.227 749.752 203.227 747.86C203.227 745.969 202.909 744.247 202.273 742.696C201.7 741.185 200.821 739.813 199.692 738.667C198.6 737.527 197.28 736.637 195.82 736.056C194.324 735.451 192.696 735.148 190.938 735.148C189.18 735.148 187.553 735.451 186.057 736.056C184.606 736.656 183.29 737.543 182.185 738.667C181.051 739.82 180.154 741.19 179.548 742.696C178.949 744.247 178.65 745.969 178.65 747.86C178.65 749.714 178.949 751.436 179.548 753.025C180.183 754.576 181.044 755.919 182.129 757.054C183.251 758.189 184.56 759.059 186.057 759.665C187.553 760.27 189.18 760.573 190.938 760.573Z" fill="url(#paint15_linear_0_1)"/>
<path d="M126.598 767.723V727.997H134.117L157.291 756.6H153.644V727.997H162.622V767.723H155.159L131.929 739.12H135.576V767.723H126.598Z" fill="url(#paint16_linear_0_1)"/>
</g>
<g id="Vector (Stroke)" opacity="0.8">
<mask id="path-4-outside-1_0_1" maskUnits="userSpaceOnUse" x="53.1714" y="102.49" width="526" height="532" fill="black">
<rect fill="white" x="53.1714" y="102.49" width="526" height="532"/>
<path d="M573.314 368.304C573.314 224.573 458.11 108.056 316 108.056C173.889 108.056 58.6857 224.573 58.6857 368.304C58.6857 512.034 173.889 628.551 316 628.551C458.11 628.551 573.314 512.034 573.314 368.304ZM577.828 368.304C577.828 514.556 460.604 633.117 316 633.117C171.396 633.117 54.1714 514.556 54.1714 368.304C54.1714 222.051 171.396 103.49 316 103.49C460.604 103.49 577.828 222.051 577.828 368.304Z"/>
</mask>
<path d="M573.314 368.304C573.314 224.573 458.11 108.056 316 108.056C173.889 108.056 58.6857 224.573 58.6857 368.304C58.6857 512.034 173.889 628.551 316 628.551C458.11 628.551 573.314 512.034 573.314 368.304ZM577.828 368.304C577.828 514.556 460.604 633.117 316 633.117C171.396 633.117 54.1714 514.556 54.1714 368.304C54.1714 222.051 171.396 103.49 316 103.49C460.604 103.49 577.828 222.051 577.828 368.304Z" fill="#8BA57D"/>
<path d="M573.314 368.304C573.314 224.573 458.11 108.056 316 108.056C173.889 108.056 58.6857 224.573 58.6857 368.304C58.6857 512.034 173.889 628.551 316 628.551C458.11 628.551 573.314 512.034 573.314 368.304ZM577.828 368.304C577.828 514.556 460.604 633.117 316 633.117C171.396 633.117 54.1714 514.556 54.1714 368.304C54.1714 222.051 171.396 103.49 316 103.49C460.604 103.49 577.828 222.051 577.828 368.304Z" stroke="#E8E5E0" stroke-opacity="0.75" stroke-width="2" mask="url(#path-4-outside-1_0_1)"/>
</g>
<g id="Maker&#39;s Mark">
<path id="Vector_3" d="M315.999 459.619C365.862 459.619 406.285 418.735 406.285 368.304C406.285 317.872 365.862 276.989 315.999 276.989C266.136 276.989 225.713 317.872 225.713 368.304C225.713 418.735 266.136 459.619 315.999 459.619Z" fill="url(#paint17_linear_0_1)"/>
<path id="Vector (Stroke)_2" d="M406.285 368.303C406.284 318.266 366.492 277.629 317.167 276.997L316 276.989C266.136 276.989 225.714 317.872 225.713 368.303C225.713 418.341 265.507 458.979 314.833 459.611L316 459.619C365.863 459.618 406.285 418.735 406.285 368.303ZM410.285 368.303C410.285 420.901 368.114 463.618 316 463.619C263.884 463.619 221.713 420.901 221.713 368.303C221.714 315.705 263.885 272.989 316 272.989C368.114 272.989 410.284 315.706 410.285 368.303Z" fill="#8BA57D"/>
<path id="Vector_4" fill-rule="evenodd" clip-rule="evenodd" d="M369.326 371.539L369.716 371.895C370.104 372.252 370.107 372.263 370.107 375.248C370.107 378.587 370.03 378.901 369.12 379.289C368.833 379.412 367.633 379.621 366.453 379.755C361.13 380.361 356.087 381.742 351.481 383.856C341.105 388.615 334.494 395.561 334.466 401.733C334.459 403.544 334.68 404.417 335.595 406.169C336.221 407.368 336.516 407.732 337.842 408.943C340.255 411.144 344.047 413.283 348.028 414.691C351.012 415.745 350.887 415.542 350.887 419.34C350.887 422.357 350.784 422.857 350.1 423.193C349.899 423.289 347.19 423.342 342.483 423.342H335.169L333.696 422.622C332.03 421.808 330.716 421.449 327.854 421.027C324.681 420.557 322.622 420.398 318.806 420.374L317.054 420.372C308.842 420.394 303.935 421.113 300.972 422.731L299.985 423.27L284.952 423.35L284.015 422.491V416.19L284.452 415.79C284.7 415.563 285.576 415.146 286.477 414.826C291.078 413.196 295.618 410.51 297.905 408.064C299.346 406.52 300.534 403.662 300.534 401.733C300.534 399.245 299.053 396.433 296.99 394.996C295.082 393.669 293.561 393.143 289.993 392.573C282.435 391.369 276.733 389.386 271.228 386.047C267.185 383.596 264.381 381.119 262.079 377.969C260.997 376.491 260.801 375.983 261.173 375.641C261.326 375.509 264.387 375.468 273.96 375.468C280.887 375.468 286.556 375.417 286.554 375.357C286.554 375.296 286.477 374.993 286.383 374.684C286.247 374.238 286.257 374.091 286.424 373.989C286.542 373.918 288.054 373.874 289.784 373.89C293.28 373.924 293.127 373.967 293.302 372.907C293.358 372.565 293.547 372.118 293.724 371.911L294.044 371.539H369.326Z" fill="url(#paint18_linear_0_1)"/>
<g id="Vector_5" filter="url(#filter0_f_0_1)">
<path d="M293.222 419.133H291.688L294.248 418.583L302.429 412.159L305.498 411.401L302.429 412.807L294.758 419.836L293.222 419.133Z" fill="#8BA57D"/>
<path d="M296.291 376.96V386.097C297.827 381.88 302.429 379.773 302.429 379.773L304.732 379.07L309.334 378.367L329.282 376.257H297.058C296.446 376.257 296.291 376.727 296.291 376.96Z" fill="#8BA57D"/>
<path d="M340.023 419.836L331.584 412.807L336.187 415.618L341.558 418.43H346.161L342.325 419.133L340.023 419.836Z" fill="#8BA57D"/>
<path d="M293.222 419.133H291.688L294.248 418.583L302.429 412.159L305.498 411.401L302.429 412.807L294.758 419.836L293.222 419.133Z" stroke="#8BA57D" stroke-width="0.01"/>
<path d="M296.291 376.96V386.097C297.827 381.88 302.429 379.773 302.429 379.773L304.732 379.07L309.334 378.367L329.282 376.257H297.058C296.446 376.257 296.291 376.727 296.291 376.96Z" stroke="#8BA57D" stroke-width="0.01"/>
<path d="M340.023 419.836L331.584 412.807L336.187 415.618L341.558 418.43H346.161L342.325 419.133L340.023 419.836Z" stroke="#8BA57D" stroke-width="0.01"/>
</g>
<g id="Vector_6" filter="url(#filter1_d_0_1)">
<path d="M319.934 319.238C319.953 319.257 319.836 319.727 319.676 320.285C319.256 321.732 319.147 324.757 319.468 326.004C320.005 328.088 320.787 329.034 325.231 332.983C329.653 336.91 331.233 338.674 332.731 341.347C334.402 344.332 334.954 346.431 334.951 349.786C334.948 352.305 334.77 353.355 333.97 355.567C332.14 360.626 327.81 364.704 322.561 366.317C320.469 366.958 318.77 367.185 316.019 367.191C313.407 367.199 312.094 367.023 309.987 366.376C303.904 364.515 298.853 359.757 297.27 354.397C296.807 352.829 296.807 349.608 297.271 348.031C297.926 345.807 299.717 343.178 301.262 342.17L301.662 341.909L301.603 343.16C301.508 345.151 302.192 346.84 303.696 348.329C304.742 349.364 305.749 349.866 306.957 349.955C308.184 350.046 308.765 349.931 309.569 349.444C310.052 349.151 310.322 348.854 310.548 348.375C311.296 346.781 310.726 344.748 308.724 341.887C306.99 339.408 306.422 337.816 306.419 335.406C306.411 331.425 308.199 327.916 312.044 324.352C314.188 322.366 316.381 320.852 318.65 319.791C319.334 319.471 319.909 319.224 319.934 319.238Z" fill="url(#paint19_linear_0_1)"/>
</g>
<g id="Vector_7">
<path fill-rule="evenodd" clip-rule="evenodd" d="M290.086 361.731L286.433 361.821L286.434 358.546H290.086V361.731Z" fill="#8BA57D"/>
<path d="M346.635 347.196H341.71V342.539H346.635V347.196Z" fill="#8BA57D"/>
<path fill-rule="evenodd" clip-rule="evenodd" d="M292.767 339.339H289.452V336.137H292.867L292.767 339.339Z" fill="#8BA57D"/>
<path d="M354.576 337.882H351.082V334.536H354.576V337.882Z" fill="#8BA57D"/>
<path fill-rule="evenodd" clip-rule="evenodd" d="M280.079 335.264H276.585V332.062H280.079V335.264Z" fill="#8BA57D"/>
<path fill-rule="evenodd" clip-rule="evenodd" d="M340.439 332.791H336.944V329.589H340.439V332.791Z" fill="#8BA57D"/>
<path d="M334.562 317.947H330.75V314.455H334.562V317.947Z" fill="#8BA57D"/>
<path fill-rule="evenodd" clip-rule="evenodd" d="M300.57 316.638H296.6V313H300.57V316.638Z" fill="#8BA57D"/>
</g>
<g id="Vector_8" opacity="0.9" filter="url(#filter2_d_0_1)">
<path d="M344.093 362.33H340.28V358.765H344.093V362.33Z" fill="#B06F4D"/>
<path d="M355.687 355.753L352.192 355.767V352.435H355.687V355.753Z" fill="#B06F4D"/>
<path d="M285.48 349.67H281.192V345.669H285.48V349.67ZM289.611 326.97H284.844V322.459H289.611V326.97Z" fill="#B06F4D"/>
<path fill-rule="evenodd" clip-rule="evenodd" d="M348.381 326.242H343.615V321.877H348.381V326.242Z" fill="#B06F4D"/>
</g>
</g>
<g id="Vector_9" filter="url(#filter3_d_0_1)">
<path d="M300 37V2H306.131L322.523 22.9674V2H330V37H323.785L307.477 16.2074V37H300Z" fill="url(#paint20_linear_0_1)"/>
</g>
<g id="Vector_10" opacity="0.75">
<mask id="path-13-inside-2_0_1" fill="white">
<path d="M494.314 187.957L404.028 256.443L426.6 279.271L494.314 187.957ZM494.314 548.651L404.028 480.164L426.6 457.336L494.314 548.651ZM137.686 548.651L227.971 480.164L205.4 457.336L137.686 548.651ZM137.686 187.957L227.971 256.443L205.4 279.271L137.686 187.957Z"/>
</mask>
<path d="M494.314 187.957L404.028 256.443L426.6 279.271L494.314 187.957ZM494.314 548.651L404.028 480.164L426.6 457.336L494.314 548.651ZM137.686 548.651L227.971 480.164L205.4 457.336L137.686 548.651ZM137.686 187.957L227.971 256.443L205.4 279.271L137.686 187.957Z" fill="#8BA57D" stroke="#E8E5E0" stroke-opacity="0.5" stroke-width="2" mask="url(#path-13-inside-2_0_1)"/>
</g>
<g id="Vector_11">
<mask id="path-14-inside-3_0_1" fill="white">
<path d="M315.999 49L349.856 231.63L315.999 213.367L282.142 231.63L315.999 49Z"/>
</mask>
<path d="M315.999 49L349.856 231.63L315.999 213.367L282.142 231.63L315.999 49Z" fill="#1C3B2A" stroke="#E8E5E0" stroke-opacity="0.5" stroke-width="2" mask="url(#path-14-inside-3_0_1)"/>
</g>
<g id="Vector_12">
<mask id="path-15-inside-4_0_1" fill="white">
<path d="M632 368.303L451.429 402.546L469.486 368.303L451.429 334.06L632 368.303ZM0 368.303L180.571 334.06L162.514 368.303L180.571 402.546L0 368.303Z"/>
</mask>
<path d="M632 368.303L451.429 402.546L469.486 368.303L451.429 334.06L632 368.303ZM0 368.303L180.571 334.06L162.514 368.303L180.571 402.546L0 368.303Z" fill="#B06F4D" stroke="#E8E5E0" stroke-opacity="0.5" stroke-width="2" mask="url(#path-15-inside-4_0_1)"/>
</g>
<g id="Vector_13">
<mask id="path-16-inside-5_0_1" fill="white">
<path d="M315.999 687.905L282.142 505.275L315.999 523.538L349.856 505.275L315.999 687.905Z"/>
</mask>
<path d="M315.999 687.905L282.142 505.275L315.999 523.538L349.856 505.275L315.999 687.905Z" fill="#8BA57D" stroke="#E8E5E0" stroke-opacity="0.5" stroke-width="2" mask="url(#path-16-inside-5_0_1)"/>
</g>
</g>
</g>
</g>
<defs>
<filter id="filter0_f_0_1" x="290.188" y="374.752" width="57.4746" height="46.5957" filterUnits="userSpaceOnUse" color-interpolation-filters="sRGB">
<feFlood flood-opacity="0" result="BackgroundImageFix"/>
<feBlend mode="normal" in="SourceGraphic" in2="BackgroundImageFix" result="shape"/>
<feGaussianBlur stdDeviation="0.75" result="effect1_foregroundBlur_0_1"/>
</filter>
<filter id="filter1_d_0_1" x="290.923" y="313.237" width="50.0278" height="59.9546" filterUnits="userSpaceOnUse" color-interpolation-filters="sRGB">
<feFlood flood-opacity="0" result="BackgroundImageFix"/>
<feColorMatrix in="SourceAlpha" type="matrix" values="0 0 0 0 0 0 0 0 0 0 0 0 0 0 0 0 0 0 127 0" result="hardAlpha"/>
<feOffset/>
<feGaussianBlur stdDeviation="3"/>
<feComposite in2="hardAlpha" operator="out"/>
<feColorMatrix type="matrix" values="0 0 0 0 1 0 0 0 0 0.834135 0 0 0 0 0.557692 0 0 0 1 0"/>
<feBlend mode="normal" in2="BackgroundImageFix" result="effect1_dropShadow_0_1"/>
<feBlend mode="normal" in="SourceGraphic" in2="effect1_dropShadow_0_1" result="shape"/>
</filter>
<filter id="filter2_d_0_1" x="279.192" y="319.877" width="78.4946" height="44.4526" filterUnits="userSpaceOnUse" color-interpolation-filters="sRGB">
<feFlood flood-opacity="0" result="BackgroundImageFix"/>
<feColorMatrix in="SourceAlpha" type="matrix" values="0 0 0 0 0 0 0 0 0 0 0 0 0 0 0 0 0 0 127 0" result="hardAlpha"/>
<feOffset/>
<feGaussianBlur stdDeviation="1"/>
<feComposite in2="hardAlpha" operator="out"/>
<feColorMatrix type="matrix" values="0 0 0 0 1 0 0 0 0 0.834135 0 0 0 0 0.557692 0 0 0 1 0"/>
<feBlend mode="normal" in2="BackgroundImageFix" result="effect1_dropShadow_0_1"/>
<feBlend mode="normal" in="SourceGraphic" in2="effect1_dropShadow_0_1" result="shape"/>
</filter>
<filter id="filter3_d_0_1" x="296" y="1" width="38" height="43" filterUnits="userSpaceOnUse" color-interpolation-filters="sRGB">
<feFlood flood-opacity="0" result="BackgroundImageFix"/>
<feColorMatrix in="SourceAlpha" type="matrix" values="0 0 0 0 0 0 0 0 0 0 0 0 0 0 0 0 0 0 127 0" result="hardAlpha"/>
<feOffset dy="3"/>
<feGaussianBlur stdDeviation="2"/>
<feComposite in2="hardAlpha" operator="out"/>
<feColorMatrix type="matrix" values="0 0 0 0 0 0 0 0 0 0 0 0 0 0 0 0 0 0 0.25 0"/>
<feBlend mode="normal" in2="BackgroundImageFix" result="effect1_dropShadow_0_1"/>
<feBlend mode="normal" in="SourceGraphic" in2="effect1_dropShadow_0_1" result="shape"/>
</filter>
<linearGradient id="paint0_linear_0_1" x1="109.023" y1="771.664" x2="109.023" y2="841.027" gradientUnits="userSpaceOnUse">
<stop offset="0.201923" stop-color="#B06F4D"/>
<stop offset="0.899038" stop-color="#4A2F20"/>
</linearGradient>
<linearGradient id="paint1_linear_0_1" x1="109.023" y1="771.664" x2="109.023" y2="841.027" gradientUnits="userSpaceOnUse">
<stop offset="0.201923" stop-color="#B06F4D"/>
<stop offset="0.899038" stop-color="#4A2F20"/>
</linearGradient>
<linearGradient id="paint2_linear_0_1" x1="109.023" y1="771.664" x2="109.023" y2="841.027" gradientUnits="userSpaceOnUse">
<stop offset="0.201923" stop-color="#B06F4D"/>
<stop offset="0.899038" stop-color="#4A2F20"/>
</linearGradient>
<linearGradient id="paint3_linear_0_1" x1="109.023" y1="771.664" x2="109.023" y2="841.027" gradientUnits="userSpaceOnUse">
<stop offset="0.201923" stop-color="#B06F4D"/>
<stop offset="0.899038" stop-color="#4A2F20"/>
</linearGradient>
<linearGradient id="paint4_linear_0_1" x1="109.023" y1="771.664" x2="109.023" y2="841.027" gradientUnits="userSpaceOnUse">
<stop offset="0.201923" stop-color="#B06F4D"/>
<stop offset="0.899038" stop-color="#4A2F20"/>
</linearGradient>
<linearGradient id="paint5_linear_0_1" x1="109.023" y1="771.664" x2="109.023" y2="841.027" gradientUnits="userSpaceOnUse">
<stop offset="0.201923" stop-color="#B06F4D"/>
<stop offset="0.899038" stop-color="#4A2F20"/>
</linearGradient>
<linearGradient id="paint6_linear_0_1" x1="109.023" y1="771.664" x2="109.023" y2="841.027" gradientUnits="userSpaceOnUse">
<stop offset="0.201923" stop-color="#B06F4D"/>
<stop offset="0.899038" stop-color="#4A2F20"/>
</linearGradient>
<linearGradient id="paint7_linear_0_1" x1="144.61" y1="727.997" x2="144.61" y2="767.723" gradientUnits="userSpaceOnUse">
<stop offset="0.201923" stop-color="#8BA57D"/>
<stop offset="0.899038" stop-color="#1C3B2A"/>
</linearGradient>
<linearGradient id="paint8_linear_0_1" x1="144.61" y1="727.997" x2="144.61" y2="767.723" gradientUnits="userSpaceOnUse">
<stop offset="0.201923" stop-color="#8BA57D"/>
<stop offset="0.899038" stop-color="#1C3B2A"/>
</linearGradient>
<linearGradient id="paint9_linear_0_1" x1="144.61" y1="727.997" x2="144.61" y2="767.723" gradientUnits="userSpaceOnUse">
<stop offset="0.201923" stop-color="#8BA57D"/>
<stop offset="0.899038" stop-color="#1C3B2A"/>
</linearGradient>
<linearGradient id="paint10_linear_0_1" x1="144.61" y1="727.997" x2="144.61" y2="767.723" gradientUnits="userSpaceOnUse">
<stop offset="0.201923" stop-color="#8BA57D"/>
<stop offset="0.899038" stop-color="#1C3B2A"/>
</linearGradient>
<linearGradient id="paint11_linear_0_1" x1="144.61" y1="727.997" x2="144.61" y2="767.723" gradientUnits="userSpaceOnUse">
<stop offset="0.201923" stop-color="#8BA57D"/>
<stop offset="0.899038" stop-color="#1C3B2A"/>
</linearGradient>
<linearGradient id="paint12_linear_0_1" x1="144.61" y1="727.997" x2="144.61" y2="767.723" gradientUnits="userSpaceOnUse">
<stop offset="0.201923" stop-color="#8BA57D"/>
<stop offset="0.899038" stop-color="#1C3B2A"/>
</linearGradient>
<linearGradient id="paint13_linear_0_1" x1="144.61" y1="727.997" x2="144.61" y2="767.723" gradientUnits="userSpaceOnUse">
<stop offset="0.201923" stop-color="#8BA57D"/>
<stop offset="0.899038" stop-color="#1C3B2A"/>
</linearGradient>
<linearGradient id="paint14_linear_0_1" x1="144.61" y1="727.997" x2="144.61" y2="767.723" gradientUnits="userSpaceOnUse">
<stop offset="0.201923" stop-color="#8BA57D"/>
<stop offset="0.899038" stop-color="#1C3B2A"/>
</linearGradient>
<linearGradient id="paint15_linear_0_1" x1="144.61" y1="727.997" x2="144.61" y2="767.723" gradientUnits="userSpaceOnUse">
<stop offset="0.201923" stop-color="#8BA57D"/>
<stop offset="0.899038" stop-color="#1C3B2A"/>
</linearGradient>
<linearGradient id="paint16_linear_0_1" x1="144.61" y1="727.997" x2="144.61" y2="767.723" gradientUnits="userSpaceOnUse">
<stop offset="0.201923" stop-color="#8BA57D"/>
<stop offset="0.899038" stop-color="#1C3B2A"/>
</linearGradient>
<linearGradient id="paint17_linear_0_1" x1="315.999" y1="276.989" x2="315.999" y2="459.619" gradientUnits="userSpaceOnUse">
<stop stop-color="#8BA57D"/>
<stop offset="1" stop-color="#1C3B2A"/>
</linearGradient>
<linearGradient id="paint18_linear_0_1" x1="315.553" y1="371.539" x2="315.553" y2="423.35" gradientUnits="userSpaceOnUse">
<stop stop-color="#8BA57D"/>
<stop offset="0.043" stop-color="#1C3B2A"/>
</linearGradient>
<linearGradient id="paint19_linear_0_1" x1="315.937" y1="319.237" x2="315.937" y2="367.192" gradientUnits="userSpaceOnUse">
<stop offset="0.600962" stop-color="#B06F4D"/>
<stop offset="1" stop-color="#4A2F20"/>
</linearGradient>
<linearGradient id="paint20_linear_0_1" x1="315" y1="2" x2="315" y2="37" gradientUnits="userSpaceOnUse">
<stop offset="0.197115" stop-color="#4A2F20"/>
<stop offset="0.903846" stop-color="#B06F4D"/>
</linearGradient>
</defs>
</svg>
